<?xml version="1.0" standalone="no"?>
<!DOCTYPE svg PUBLIC "-//W3C//DTD SVG 1.1//EN" "http://www.w3.org/Graphics/SVG/1.1/DTD/svg11.dtd" >
<svg xmlns="http://www.w3.org/2000/svg" xmlns:xlink="http://www.w3.org/1999/xlink" version="1.1">
<metadata></metadata>
<defs>
<font id="freightsans_mediumregular" horiz-adv-x="806" >
<font-face units-per-em="2048" ascent="1638" descent="-410" />
<missing-glyph horiz-adv-x="315" />
<glyph horiz-adv-x="0" />
<glyph unicode="&#xd;" horiz-adv-x="315" />
<glyph unicode=" "  horiz-adv-x="315" />
<glyph unicode="&#x09;" horiz-adv-x="315" />
<glyph unicode="&#xa0;" horiz-adv-x="315" />
<glyph unicode="!" horiz-adv-x="563" d="M150 102q0 53 37.5 91t97.5 38q57 0 93 -38t36 -91t-36 -93t-93 -40q-59 0 -97 40t-38 93zM182 1335h203l-51 -938h-98z" />
<glyph unicode="&#x22;" horiz-adv-x="622" d="M-10 815l235 506l154 -74l-320 -432h-69zM297 815l235 506l154 -74l-319 -432h-70z" />
<glyph unicode="#" horiz-adv-x="1146" d="M37 328v118h213l82 299h-254v119h284l121 451h123l-121 -451h328l121 451h123l-121 -451h182v-119h-215l-80 -299h254v-118h-284l-129 -480h-123l129 480h-328l-129 -480h-123l129 480h-182zM373 446h327l82 299h-329z" />
<glyph unicode="$" horiz-adv-x="1034" d="M63 90l58 158q59 -39 120.5 -67.5t133.5 -45.5l61 449q-66 18 -129 44.5t-112.5 68.5t-80 103.5t-30.5 149.5q0 80 30.5 146.5t87 115t135.5 74t173 25.5h35l24 184h99l-27 -195q74 -12 142.5 -36.5t131.5 -65.5l-61 -151q-51 35 -111.5 59t-121.5 37l-56 -410 q70 -18 137.5 -46t119.5 -72t85 -108.5t33 -154.5q0 -82 -33 -152.5t-92 -121.5t-142 -80t-184 -29h-38q2 0 -3.5 -34.5t-11.5 -75.5q-8 -49 -14 -111h-98l30 234q-162 25 -291 108zM254 963q0 -80 54 -125t163 -78l53 393h-12q-139 0 -198.5 -55.5t-59.5 -134.5zM473 125 h21q123 0 200.5 59.5t77.5 155.5q0 88 -58.5 134t-183.5 83z" />
<glyph unicode="%" horiz-adv-x="1515" d="M29 987q0 70 23.5 132.5t67.5 108.5t107.5 73.5t141.5 27.5q80 0 142 -27.5t106.5 -73.5t68 -108.5t23.5 -132.5q0 -68 -23.5 -129t-68 -107t-106.5 -74t-142 -28q-78 0 -141.5 28t-107.5 74t-67.5 107.5t-23.5 128.5zM139 987q0 -45 15.5 -87t45 -74.5t72.5 -51 t97 -18.5q53 0 96 18.5t72.5 51t45 74.5t15.5 87q0 98 -60.5 167t-168.5 69q-109 0 -169.5 -69t-60.5 -167zM184 -31l1020 1340h129l-1020 -1340h-129zM807 291q0 68 23.5 129t67.5 107t106.5 74t142.5 28q78 0 141.5 -28t107.5 -74t67.5 -107t23.5 -129q0 -70 -23.5 -132.5 t-67.5 -108.5t-107.5 -73.5t-141.5 -27.5q-80 0 -142.5 27.5t-106.5 73.5t-67.5 108.5t-23.5 132.5zM918 291q0 -98 60 -167t169 -69t169 69t60 167q0 47 -15 88t-45 73.5t-73 51t-96 18.5t-96 -18.5t-73 -51t-45 -73.5t-15 -88z" />
<glyph unicode="&#x26;" horiz-adv-x="1273" d="M47 330q0 63 24.5 118.5t66.5 100.5t99.5 76.5t120.5 50.5q-211 113 -211 301q0 61 26 120.5t74 106.5t118.5 76t162.5 29q86 0 151.5 -27t110 -70t67 -99t22.5 -118q0 -104 -70 -181t-174 -120q57 -29 130 -92t136 -135l197 307h196l-313 -399l311 -375l-182 -31 l-225 289q-92 -131 -203 -210t-246 -79q-92 0 -164.5 29t-123 78t-76 114.5t-25.5 139.5zM219 344q0 -92 61.5 -159.5t178.5 -67.5q100 0 189 62.5t163 168.5q-86 98 -175 172t-177 105q-104 -49 -172 -119t-68 -162zM319 989q0 -88 52.5 -143.5t156.5 -100.5 q82 35 133.5 92.5t51.5 143.5q0 80 -53.5 132t-145.5 52t-143.5 -53t-51.5 -123z" />
<glyph unicode="'" horiz-adv-x="315" d="M-10 815l235 506l154 -74l-320 -432h-69z" />
<glyph unicode="(" horiz-adv-x="745" d="M137 449q0 190 55.5 349.5t140.5 283.5t185 211t191 132l73 -106q-82 -45 -171 -126t-160.5 -192.5t-118.5 -251t-47 -300.5q0 -162 47 -300.5t118.5 -250t160.5 -192.5t171 -126l-71 -106q-92 45 -192.5 131t-185.5 210t-140.5 283.5t-55.5 350.5z" />
<glyph unicode=")" horiz-adv-x="745" d="M-37 -420q84 45 172 126t161 192.5t119 250t46 300.5t-46 301t-119 250.5t-161 192.5t-172 126l74 106q90 -45 191.5 -132t185.5 -211t139 -283.5t55 -349.5t-55 -350t-140 -284t-185.5 -210t-192.5 -131z" />
<glyph unicode="*" horiz-adv-x="702" d="M20 846l289 125v10l-280 129l102 145l209 -237l8 2l39 307l166 -53l-160 -270l6 -7l295 60v-172l-295 61l-6 -6l154 -272l-166 -50l-35 310l-6 2l-207 -228z" />
<glyph unicode="+" horiz-adv-x="991" d="M82 408l6 145h340v346h143v-346h336l6 -145h-342v-349h-143v349h-346z" />
<glyph unicode="," horiz-adv-x="450" d="M23 -266q209 152 208 260q0 39 -31.5 67.5t-115.5 67.5q6 49 40 85t99 36q31 0 62.5 -14.5t56.5 -39t40 -59.5t15 -76q0 -63 -25.5 -118.5t-68.5 -105.5t-97 -93t-112 -82z" />
<glyph unicode="-" horiz-adv-x="634" d="M68 418v157h503v-157h-503z" />
<glyph unicode="." horiz-adv-x="450" d="M96 102q0 53 37 91t96 38q57 0 93 -38t36 -91t-35.5 -93t-93.5 -40q-59 0 -96 40t-37 93z" />
<glyph unicode="/" horiz-adv-x="444" d="M-106 -408l497 1846h123l-498 -1846h-122z" />
<glyph unicode="0" horiz-adv-x="1181" d="M96 483q0 115 36 209t101.5 162t156.5 105.5t200 37.5t200 -37.5t156.5 -105.5t102 -162t36.5 -209t-36.5 -209t-102 -161.5t-157 -105.5t-199.5 -38q-109 0 -200 38t-156.5 105.5t-101.5 162t-36 208.5zM264 483q0 -76 23.5 -141.5t66.5 -112.5t102.5 -73.5t133.5 -26.5 t134 26.5t103 73.5t67 112.5t24 141.5q0 78 -24 142.5t-67 111.5t-103 74t-134 27t-133.5 -27t-102.5 -74t-66.5 -111.5t-23.5 -142.5z" />
<glyph unicode="1" horiz-adv-x="702" d="M86 864l410 135v-999h-166v786l-238 -75z" />
<glyph unicode="2" horiz-adv-x="935" d="M94 0v145q109 80 207 151t174 135.5t121 125.5t45 121q0 72 -51 117t-144 45q-78 0 -148.5 -32t-141.5 -85l-60 143q72 57 163 94t206 37q78 0 143.5 -21.5t112.5 -60t72.5 -94t25.5 -123.5q0 -84 -35.5 -151.5t-98 -129t-148.5 -124t-187 -133.5h514v-160h-770z" />
<glyph unicode="3" horiz-adv-x="894" d="M37 -305l31 158q57 -39 139 -60.5t178 -21.5q129 0 211 60t82 181q0 106 -78 158.5t-201 56.5q-43 2 -89 -2t-99 -14v145q80 18 153.5 44t132 62t93.5 82t35 105q0 92 -60.5 141.5t-171.5 49.5q-78 0 -150.5 -33t-144.5 -86l-59 143q72 57 165 95t208 38 q94 0 167.5 -24.5t125 -67.5t78 -102.5t26.5 -128.5q0 -57 -20.5 -107.5t-56.5 -92.5t-82 -74t-97 -52q76 -12 132 -44t94 -76t56.5 -96t18.5 -107q0 -96 -37 -172t-100.5 -128.5t-149.5 -80t-184 -27.5q-94 0 -188.5 19.5t-157.5 58.5z" />
<glyph unicode="4" horiz-adv-x="1071" d="M37 119l661 880h150v-819h194l7 -160h-201v-397h-164v397h-631zM272 180h412v557z" />
<glyph unicode="5" horiz-adv-x="878" d="M37 -295l31 166q59 -33 147 -63.5t180 -30.5q121 0 199 73.5t78 198.5q0 51 -18.5 97.5t-55.5 82t-91 56t-124 20.5q-45 0 -80 -2t-63.5 -7t-54 -11t-54.5 -15l-45 41l84 658h639l6 -166h-508l-49 -363q31 4 62.5 7.5t82.5 3.5q100 0 182.5 -29t139.5 -80t88 -124 t31 -161q0 -98 -36 -180t-97.5 -139t-143.5 -89t-174 -32q-102 0 -197.5 25.5t-158.5 62.5z" />
<glyph unicode="6" horiz-adv-x="1056" d="M88 502q0 133 44 260t131 234.5t219 188.5t309 122l51 -160q-223 -55 -371.5 -172t-200.5 -307l4 -2q63 59 139 93t187 34q78 0 145.5 -29t118.5 -81t81 -125t30 -163t-31 -167.5t-87 -135t-137 -90.5t-181 -33q-109 0 -193 42t-141.5 115t-87 170t-29.5 206zM266 449 q0 -63 19.5 -123t55.5 -104t88 -70.5t118 -26.5q119 0 188.5 72.5t69.5 189.5t-69.5 186.5t-180.5 69.5q-88 0 -163 -35t-116 -73q-10 -37 -10 -86z" />
<glyph unicode="7" horiz-adv-x="933" d="M35 803l6 166h850v-146l-578 -1200h-172l568 1180h-674z" />
<glyph unicode="8" horiz-adv-x="1038" d="M90 315q0 61 23.5 114.5t59.5 95.5t79 70t84 38q-45 25 -86 52.5t-72 62t-49 78.5t-18 100q0 78 28.5 144.5t82.5 114.5t133 75.5t177 27.5q102 0 177 -28.5t123.5 -76.5t72 -110.5t23.5 -130.5q0 -57 -19.5 -106.5t-50.5 -89t-68.5 -67.5t-76.5 -44q49 -25 91 -53.5 t74.5 -65.5t51 -82t18.5 -102q0 -74 -27.5 -139.5t-82 -114.5t-135 -79t-185.5 -30q-109 0 -188.5 28t-133 76t-80 110.5t-26.5 131.5zM260 334q0 -98 75 -156.5t191 -58.5q123 0 186.5 50t63.5 142q0 53 -26.5 91t-70.5 69t-100.5 56.5t-115.5 50.5q-92 -31 -147.5 -93.5 t-55.5 -150.5zM281 944q0 -47 25.5 -83t67.5 -65.5t97.5 -54t114.5 -49.5q78 33 125 91.5t47 140.5q0 102 -67.5 158.5t-166.5 56.5q-119 0 -181 -57.5t-62 -137.5z" />
<glyph unicode="9" horiz-adv-x="1056" d="M82 571q0 90 30.5 168t88 135.5t137.5 90t180 32.5q109 0 193 -42t141 -114.5t87 -169.5t30 -206q0 -133 -43 -260t-131 -234.5t-220.5 -188.5t-308.5 -122l-51 160q223 55 371.5 172t199.5 307l-4 2q-63 -59 -139 -93t-186 -34q-76 0 -144.5 28.5t-120 81t-81 125 t-29.5 162.5zM252 580q0 -117 69.5 -186.5t180.5 -69.5q88 0 162.5 34.5t115.5 73.5q11 37 11 86q0 66 -19.5 124t-55.5 102t-88.5 71t-117.5 27q-119 0 -188.5 -73t-69.5 -189z" />
<glyph unicode=":" horiz-adv-x="450" d="M96 102q0 53 37 91t96 38q57 0 93 -38t36 -91t-35.5 -93t-93.5 -40q-59 0 -96 40t-37 93zM96 733q0 53 37 91t96 38q57 0 93 -38t36 -91t-35.5 -93t-93.5 -40q-59 0 -96 40t-37 93z" />
<glyph unicode=";" horiz-adv-x="450" d="M23 -266q209 152 208 260q0 39 -31.5 67.5t-115.5 67.5q6 49 40 85t99 36q31 0 62.5 -14.5t56.5 -39t40 -59.5t15 -76q0 -63 -25.5 -118.5t-68.5 -105.5t-97 -93t-112 -82zM96 733q0 53 37 91t96 38q57 0 93 -38t36 -91t-35.5 -93t-93.5 -40q-59 0 -96 40t-37 93z" />
<glyph unicode="&#x3c;" horiz-adv-x="970" d="M68 422v121l821 387v-162l-608 -276v-21l610 -274v-162z" />
<glyph unicode="=" horiz-adv-x="950" d="M70 221l10 146h794l11 -146h-815zM70 739h815l-11 -145h-794z" />
<glyph unicode="&#x3e;" horiz-adv-x="970" d="M59 35v162l611 274v21l-609 276v162l822 -387v-121z" />
<glyph unicode="?" horiz-adv-x="729" d="M104 1133v157q29 8 66 13.5t90 5.5q86 0 156.5 -27t123 -72t81 -105t28.5 -126q0 -68 -19.5 -113t-50 -75.5t-68.5 -49t-77 -32.5q-66 -25 -112 -50.5t-46 -80.5q0 -47 35 -90.5t78 -84.5l-80 -24q-29 16 -57.5 39.5t-51 53.5t-36.5 64.5t-14 73.5q0 51 17 87t47 61.5 t66.5 43t73.5 32.5q33 12 62.5 24t53.5 28.5t37 38t13 52.5q0 70 -67.5 121t-204.5 51q-41 0 -78 -6t-66 -10zM176 102q0 53 38 91t95 38q59 0 95 -38t36 -91t-35.5 -93t-95.5 -40q-57 0 -95 40t-38 93z" />
<glyph unicode="@" horiz-adv-x="1695" d="M76 496q0 166 61.5 313t169 258t254 175.5t313.5 64.5q152 0 288 -47.5t239.5 -136.5t165 -214t61.5 -282q0 -129 -33.5 -229.5t-90 -169t-130.5 -103.5t-151 -35q-84 0 -145.5 39t-90.5 111q-53 -61 -115.5 -91t-126.5 -30q-66 0 -120 25.5t-93.5 71.5t-61 107.5 t-21.5 131.5q0 96 33.5 180t92 147.5t137.5 100.5t171 37q49 0 101 -14.5t93 -33.5l142 48l-99 -498q-20 -104 9.5 -161.5t115.5 -57.5q59 0 112.5 27.5t93.5 81t63.5 132t23.5 183.5q0 137 -56.5 247.5t-148.5 189.5t-212 121t-247 42q-147 0 -277 -59.5t-225.5 -159 t-150.5 -231.5t-55 -279q0 -139 48 -262t134 -214.5t205 -144.5t262 -53q66 0 128.5 11t123.5 30l23 -76q-72 -23 -137.5 -35t-141.5 -12q-160 0 -295 58.5t-233.5 159.5t-152.5 239.5t-54 296.5zM590 471q0 -106 57.5 -168.5t140.5 -62.5q53 0 94.5 20.5t82.5 54.5l82 410 q-31 33 -78 54.5t-103 21.5q-61 0 -112.5 -29t-88 -76t-56 -105.5t-19.5 -119.5z" />
<glyph unicode="A" horiz-adv-x="1175" d="M10 0l482 1280h198l475 -1280h-178l-121 336h-555l-121 -336h-180zM369 494h440l-219 606z" />
<glyph unicode="B" horiz-adv-x="1159" d="M162 0v1280h424q231 0 338.5 -94t107.5 -246q0 -199 -219 -281q129 -33 194.5 -110.5t65.5 -186.5q0 -82 -27.5 -148.5t-86 -113.5t-148.5 -73.5t-213 -26.5h-436zM336 160h278h3q282 0 282 200q0 111 -88 156t-223 45h-252v-401zM336 719h237q139 0 212 56.5t73 150.5 q0 92 -65.5 143t-192.5 51h-264v-401z" />
<glyph unicode="C" horiz-adv-x="1230" d="M94 637q0 154 48 277.5t133 211.5t203 136.5t257 48.5q111 0 219.5 -29t186.5 -78l-56 -157q-86 55 -167.5 81.5t-182.5 26.5q-104 0 -190 -35t-146.5 -101.5t-94.5 -160.5t-34 -213t34 -215t95.5 -163.5t148.5 -104.5t191 -37t199.5 36t163.5 89l28 -174 q-78 -49 -182 -78t-213 -29q-141 0 -259 47t-203 134.5t-132 210t-47 276.5z" />
<glyph unicode="D" horiz-adv-x="1318" d="M162 0v1280h385q160 0 284.5 -45t213 -128t134.5 -199t46 -259q0 -147 -45 -268t-133.5 -205t-215 -130t-292.5 -46h-377zM336 162h211q115 0 208 29.5t158.5 90t101.5 149.5t36 206q0 238 -134.5 359.5t-377.5 121.5h-203v-956z" />
<glyph unicode="E" horiz-adv-x="1071" d="M162 0v1280h811v-162h-637v-395h530v-162h-530v-399h637v-162h-811z" />
<glyph unicode="F" horiz-adv-x="1013" d="M162 0v1280h790v-164h-616v-416h510v-161h-510v-539h-174z" />
<glyph unicode="G" horiz-adv-x="1310" d="M94 637q0 154 48 277.5t133 211.5t203 136.5t257 48.5q113 0 229.5 -30t196.5 -81l-57 -160q-78 49 -174 82t-195 33q-104 0 -190 -35t-146.5 -101.5t-94.5 -160.5t-34 -213t34 -215t95.5 -163.5t148.5 -104.5t191 -37q80 0 151 18.5t128 46.5v304h-359v161h527v-563 q-100 -61 -223 -92t-228 -31q-141 0 -259 47t-203 134.5t-132 210t-47 276.5z" />
<glyph unicode="H" horiz-adv-x="1372" d="M162 0v1280h174v-557h702v557h172v-1280h-172v565h-702v-565h-174z" />
<glyph unicode="I" horiz-adv-x="505" d="M166 0v1280h172v-1280h-172z" />
<glyph unicode="J" horiz-adv-x="856" d="M29 49l26 168q59 -41 121 -65.5t133 -24.5q111 0 163 67.5t52 202.5v883h172v-891q0 -94 -22.5 -171t-69.5 -132t-119.5 -86t-173.5 -31q-84 0 -157.5 23.5t-124.5 56.5z" />
<glyph unicode="K" horiz-adv-x="1122" d="M162 0v1280h174v-610h2l543 610h219l-592 -633l598 -647h-223l-545 608h-2v-608h-174z" />
<glyph unicode="L" horiz-adv-x="1011" d="M162 0v1280h174v-1116h618v-164h-792z" />
<glyph unicode="M" horiz-adv-x="1581" d="M127 0l43 1280h231l394 -1053l391 1053h227l41 -1280h-176l-12 1065l-389 -1047h-175l-391 1049l-14 -1067h-170z" />
<glyph unicode="N" horiz-adv-x="1368" d="M162 0v1280h192l682 -1032v1032h170v-1292h-188l-686 1044v-1032h-170z" />
<glyph unicode="O" horiz-adv-x="1474" d="M94 637q0 143 47 266t133 214t204 142.5t259 51.5t259 -47t203 -134.5t133 -210t48 -274.5q0 -143 -47 -267t-133 -214t-203.5 -142.5t-259.5 -52.5q-141 0 -259 47t-203 134.5t-133 211t-48 275.5zM270 645q0 -119 34 -215t96.5 -163.5t149.5 -104.5t191 -37 q102 0 187.5 37t147 104.5t96 161.5t34.5 209q0 119 -34.5 214t-97 162.5t-149.5 104.5t-192 37q-102 0 -187 -37t-146.5 -103.5t-95.5 -160.5t-34 -209z" />
<glyph unicode="P" horiz-adv-x="1099" d="M162 0v1280h354q131 0 227.5 -30.5t159 -86t92 -131.5t29.5 -166q0 -217 -140.5 -326.5t-379.5 -113.5l-168 -2v-424h-174zM336 588l186 4q162 4 244 72.5t82 193.5q0 260 -340 260h-172v-530z" />
<glyph unicode="Q" horiz-adv-x="1474" d="M94 637q0 143 47 266t133 214t204 142.5t259 51.5t259 -47t203 -134.5t133 -210t48 -274.5q0 -104 -25.5 -197.5t-73.5 -172t-114.5 -140t-150.5 -100.5l403 -201l-76 -151l-550 290q-12 -2 -26.5 -3t-29.5 -1q-141 0 -259 47t-203 134.5t-133 211t-48 275.5zM270 645 q0 -119 34 -215t96.5 -164.5t149.5 -105.5t191 -37q102 0 187.5 37t147 104.5t96 162.5t34.5 210q0 119 -34.5 214t-97 162.5t-149.5 104.5t-192 37q-102 0 -187 -37t-146.5 -103.5t-95.5 -160.5t-34 -209z" />
<glyph unicode="R" horiz-adv-x="1116" d="M162 0v1280h383q233 0 352 -101.5t119 -273.5q0 -145 -78 -235t-211 -133l346 -537h-207l-311 508l-219 -14v-494h-174zM336 647l211 6q63 2 116.5 18.5t93.5 47.5t62.5 75t22.5 103q0 115 -85 169t-233 54h-188v-473z" />
<glyph unicode="S" horiz-adv-x="1042" d="M74 90l57 158q82 -53 172 -88t203 -35q123 0 200.5 59.5t77.5 155.5q0 98 -74.5 146.5t-232.5 88.5q-68 18 -136.5 44t-123.5 69t-89 106.5t-34 155.5q0 80 31 146.5t88 115t136 74t173 25.5q221 0 404 -113l-62 -151q-74 49 -164 77.5t-176 28.5q-139 0 -199.5 -55.5 t-60.5 -134.5q0 -96 80 -142.5t231 -87.5q70 -18 137.5 -46t121 -72t86 -108.5t32.5 -154.5q0 -82 -32.5 -152.5t-92 -121.5t-142.5 -80t-183 -29q-113 0 -224.5 31t-203.5 90z" />
<glyph unicode="T" horiz-adv-x="1146" d="M39 1116v164h1069v-164h-449v-1116h-172v1116h-448z" />
<glyph unicode="U" horiz-adv-x="1323" d="M160 475v805h172v-778q0 -174 83 -271.5t255 -97.5q150 0 235.5 88t85.5 268v791h172v-786q0 -121 -31.5 -218.5t-94 -165t-157 -104.5t-221.5 -37q-121 0 -214 36t-156.5 102.5t-96 159.5t-32.5 208z" />
<glyph unicode="V" horiz-adv-x="1153" d="M0 1280h178l397 -1094l398 1094h180l-479 -1280h-201z" />
<glyph unicode="W" horiz-adv-x="1839" d="M63 1280h183l276 -1042l301 1042h201l309 -1042l273 1042h170l-363 -1280h-174l-317 1065l-324 -1065h-170z" />
<glyph unicode="X" horiz-adv-x="1175" d="M25 0l458 643l-444 637h213l334 -502l344 502h207l-449 -627l463 -653h-217l-350 526l-355 -526h-204z" />
<glyph unicode="Y" horiz-adv-x="1105" d="M20 1280h197l340 -598l336 598h192l-444 -772v-508h-174v510z" />
<glyph unicode="Z" horiz-adv-x="1067" d="M47 0v131l725 987h-713v162h930v-135l-723 -983h721v-162h-940z" />
<glyph unicode="[" horiz-adv-x="749" d="M170 -455v1837h561v-133h-416v-1571h416v-133h-561z" />
<glyph unicode="\" horiz-adv-x="444" d="M-70 1438h123l498 -1846h-123z" />
<glyph unicode="]" horiz-adv-x="749" d="M20 -322h416v1571h-416v133h562v-1837h-562v133z" />
<glyph unicode="^" d="M84 1065l235 383h181l235 -383h-123l-200 260h-2l-203 -260h-123z" />
<glyph unicode="_" horiz-adv-x="944" d="M-25 0h994v-121h-994v121z" />
<glyph unicode="`" d="M145 1436h205l217 -371h-123z" />
<glyph unicode="a" horiz-adv-x="923" d="M68 238q0 63 25.5 120.5t89 102.5t172 74.5t272.5 37.5v27q0 115 -48.5 164t-162.5 49q-72 0 -155 -29.5t-148 -74.5l-33 151q61 43 156.5 76t195.5 33q193 0 280 -86q83 -82 83 -262v-17v-393q0 -57 15 -74.5t77 -17.5l-10 -142q-25 -2 -47 -2q-80 0 -124 28 q-56 36 -73 97h-8q-53 -63 -118 -97t-140 -34q-66 0 -121.5 20.5t-95 56.5t-61 85t-21.5 107zM246 258q0 -63 44 -104t122 -41q66 0 120 28.5t95 71.5v254q-209 -27 -295 -75t-86 -134z" />
<glyph unicode="b" horiz-adv-x="1071" d="M145 -31v1411l168 27v-555q51 47 115 82t147 35q98 0 176 -38t132.5 -104.5t82 -157t27.5 -196.5t-34.5 -198.5t-98 -160t-151.5 -106.5t-193 -39q-41 0 -99.5 8.5t-103.5 22.5zM313 188q83 -67 205 -67h4q72 0 127.5 27.5t93 74.5t57 110.5t19.5 135.5q0 156 -73.5 250 t-204.5 94q-66 0 -123.5 -24.5t-104.5 -65.5v-535z" />
<glyph unicode="c" horiz-adv-x="933" d="M84 469q0 113 36 205t98.5 157.5t149.5 101.5t189 36q92 0 165 -19.5t138 -60.5l-43 -154q-115 78 -260 78t-222 -91t-77 -251q0 -164 81 -255t214 -91q74 0 143.5 19.5t126.5 58.5l31 -156q-127 -78 -309 -78q-111 0 -197 36t-144.5 102.5t-89 158.5t-30.5 203z" />
<glyph unicode="d" horiz-adv-x="1077" d="M84 465q0 106 35 198.5t98.5 160t151.5 106.5t192 39q51 0 104.5 -8.5t98.5 -22.5v442l168 27v-1407h-168v86q-51 -47 -114.5 -82t-147.5 -35q-98 0 -176 38t-132.5 104.5t-82 156.5t-27.5 197zM258 469q0 -156 74 -250t205 -94q66 0 123 24.5t104 65.5v535 q-81 67 -205 67h-4q-72 0 -127 -27.5t-93 -74.5t-57.5 -110.5t-19.5 -135.5z" />
<glyph unicode="e" horiz-adv-x="983" d="M84 459q0 115 36 208t97.5 160.5t146.5 104.5t183 37q172 0 265 -99.5t93 -267.5q0 -39 -5 -79t-15 -70h-99h-101t-116 -2q-139 -2 -315 -2v-9q2 -70 25.5 -127t63.5 -99t96.5 -65.5t123.5 -23.5q74 0 148.5 19.5t132.5 58.5l30 -156q-63 -39 -144 -58.5t-171 -19.5 q-106 0 -193 36t-149.5 101.5t-97.5 155.5t-35 197zM262 571l481 4v15q0 104 -51 167.5t-162 63.5q-59 0 -107 -21.5t-82 -57t-53.5 -80t-25.5 -91.5z" />
<glyph unicode="f" horiz-adv-x="647" d="M16 797l9 106l153 45l2 119q2 98 24.5 167t62.5 110.5t96.5 61t125.5 19.5q53 0 103.5 -14.5t85.5 -30.5q0 -2 -6 -26.5t-14.5 -53t-14.5 -52t-6 -21.5q-33 14 -74 27.5t-76 13.5q-72 0 -105.5 -46t-33.5 -153v-131h297l-6 -152h-291v-786h-168v784z" />
<glyph unicode="g" horiz-adv-x="974" d="M14 -233q0 80 51.5 140.5t149.5 78.5q-59 27 -91 67.5t-32 89.5q0 59 42 108.5t114 74.5q-74 43 -115 116.5t-41 171.5q0 70 25.5 133.5t74 112.5t119 79t162.5 30q76 0 136.5 -16.5t105.5 -37.5l241 23l7 -166l-181 33q29 -27 46.5 -83t17.5 -110q0 -70 -27.5 -133 t-78 -109t-119 -74t-150.5 -28q-35 0 -62.5 5.5t-68.5 17.5q-29 -10 -60.5 -37t-31.5 -61q0 -20 8 -37t31.5 -28t65.5 -17.5t108 -6.5h86q211 0 310 -63.5t99 -187.5q0 -78 -38.5 -143.5t-107.5 -114t-161 -76t-198 -27.5q-92 0 -172 19.5t-138.5 55.5t-92.5 86t-34 114z M180 -197q0 -76 81 -125t216 -49q66 0 123 13.5t100 39t68 60.5t25 78q0 78 -70 102.5t-211 24.5q-45 0 -92 2t-78 6q-72 -20 -117 -59t-45 -93zM260 612q0 -94 58.5 -151.5t160.5 -57.5q92 0 146.5 60.5t54.5 159.5q0 92 -53.5 151.5t-161.5 59.5q-92 0 -148.5 -62 t-56.5 -160z" />
<glyph unicode="h" horiz-adv-x="1058" d="M145 0v1380l168 27v-576q66 66 146 102t170 36q135 0 214 -85t79 -239v-645h-168v590q0 123 -46 170t-139 47q-82 0 -148.5 -32t-107.5 -70v-705h-168z" />
<glyph unicode="i" horiz-adv-x="458" d="M119 1266q0 47 26.5 83.5t83.5 36.5t84 -36.5t27 -83.5t-26.5 -84t-84.5 -37q-57 0 -83.5 37t-26.5 84zM145 0v942l168 27v-969h-168z" />
<glyph unicode="j" horiz-adv-x="452" d="M-18 -391q43 20 74.5 48t51 66.5t28.5 94t9 131.5v993l168 27v-1008q0 -100 -11 -174t-37.5 -129t-68.5 -95t-102 -73zM119 1266q0 47 26.5 83.5t83.5 36.5t84 -36.5t27 -83.5t-26.5 -84t-84.5 -37q-57 0 -83.5 37t-26.5 84z" />
<glyph unicode="k" horiz-adv-x="933" d="M145 0v1380l168 27v-899h4l388 430h213l-431 -444l433 -494h-215l-388 463h-4v-463h-168z" />
<glyph unicode="l" horiz-adv-x="458" d="M145 0v1380l168 27v-1407h-168z" />
<glyph unicode="m" horiz-adv-x="1622" d="M145 0v942l168 27v-129q135 129 301 129q82 0 146.5 -39t99.5 -117q76 76 159 116t181 40q129 0 207 -86t78 -242v-641h-168v586q0 123 -44 173t-136 50q-78 0 -137.5 -34t-100.5 -73v-57v-645h-168v586q0 123 -44 173t-136 50q-78 0 -137.5 -28.5t-100.5 -67.5v-713 h-168z" />
<glyph unicode="n" horiz-adv-x="1058" d="M145 0v942l168 27v-142q66 66 145 104t160 38q143 0 223.5 -85t80.5 -239v-645h-168v590q0 123 -47.5 170t-147.5 47q-74 0 -139.5 -32t-106.5 -70v-705h-168z" />
<glyph unicode="o" horiz-adv-x="1081" d="M84 469q0 113 35 205t96 158.5t146 102.5t186 36q100 0 183 -36t142.5 -101.5t92 -157.5t32.5 -207q0 -113 -34.5 -205t-96 -157.5t-146.5 -101.5t-183 -36q-100 0 -183.5 36t-142.5 100.5t-93 157.5t-34 206zM250 471q0 -76 19.5 -139.5t57.5 -110.5t92 -73.5t124 -26.5 t124 25.5t91 71.5t55 109.5t18 139.5t-19 140.5t-57 111.5t-92.5 73.5t-123.5 26.5q-70 0 -124.5 -25.5t-91 -71.5t-55 -110.5t-18.5 -140.5z" />
<glyph unicode="p" horiz-adv-x="1077" d="M145 -477v1419l168 27v-117q51 47 115 82t147 35q98 0 176 -38t132.5 -104.5t82 -156.5t27.5 -197q0 -106 -34.5 -198.5t-98 -160t-151.5 -106.5t-193 -39q-41 0 -99.5 6.5t-103.5 18.5v-471h-168zM313 188q83 -67 205 -67h4q72 0 127.5 27.5t93 74.5t57 110.5 t19.5 135.5q0 156 -73.5 250t-204.5 94q-66 0 -123.5 -24.5t-104.5 -65.5v-535z" />
<glyph unicode="q" horiz-adv-x="1077" d="M84 465q0 106 35 198.5t98.5 160t151.5 106.5t192 39q66 0 130.5 -11.5t109.5 -23.5l131 35v-1446h-168v563q-51 -47 -114.5 -82t-147.5 -35q-98 0 -176 38t-132.5 104.5t-82 156.5t-27.5 197zM258 469q0 -156 74 -252t205 -96q66 0 123 26.5t104 67.5v535 q-41 35 -94.5 53t-114.5 18q-72 0 -127 -27.5t-93 -75.5t-57.5 -112.5t-19.5 -136.5z" />
<glyph unicode="r" horiz-adv-x="780" d="M145 0v942l168 27v-166q49 78 110.5 122t151.5 44q100 0 177 -47l-43 -158q-39 23 -77 33t-73 10q-68 0 -130 -48t-116 -147v-612h-168z" />
<glyph unicode="s" horiz-adv-x="821" d="M63 55l43 154q59 -41 138.5 -64.5t150.5 -23.5q80 0 133.5 34.5t53.5 98.5q0 35 -19.5 59.5t-50.5 42t-71 29.5t-81 25q-49 14 -99 34.5t-90 52t-64.5 78t-24.5 109.5q0 66 25.5 118t71.5 89t107.5 57.5t131.5 20.5q82 0 159.5 -18.5t143.5 -51.5l-43 -154 q-59 33 -134 51.5t-134 18.5q-76 0 -121 -29.5t-45 -87.5q0 -33 17.5 -57.5t47 -40.5t69.5 -28.5t83 -24.5q51 -14 102 -34.5t91 -52.5t65.5 -79t25.5 -115t-26.5 -122t-73.5 -94t-111.5 -61.5t-142.5 -21.5q-86 0 -174 23.5t-154 64.5z" />
<glyph unicode="t" horiz-adv-x="694" d="M14 797l6 106l156 47l4 203h162l-6 -215h293l-6 -152h-293l-15 -530v-8q0 -125 123 -125q43 0 86 9t84 26q2 0 6 -22.5t11 -51.5q8 -33 14 -74q-106 -41 -211 -41q-136 0 -206 70q-66 66 -66 207v16l14 524z" />
<glyph unicode="u" horiz-adv-x="1058" d="M137 293v645h168v-590q0 -123 46 -170t138 -47q82 0 149 32t107 70v705h168v-942l-168 -27v137q-66 -66 -145.5 -101.5t-169.5 -35.5q-135 0 -214 85t-79 239z" />
<glyph unicode="v" horiz-adv-x="903" d="M4 938h180l275 -729l262 729h178l-369 -940h-155z" />
<glyph unicode="w" horiz-adv-x="1400" d="M29 938h180l199 -696l217 692h153l240 -694l172 698h186l-282 -942h-154l-240 700l-229 -700h-154z" />
<glyph unicode="x" horiz-adv-x="847" d="M2 0l322 479l-304 459h189l215 -338l205 338h192l-297 -455l322 -483h-189l-233 367l-229 -367h-193z" />
<glyph unicode="y" horiz-adv-x="903" d="M-68 -438l50 155q37 -18 75.5 -31.5t73.5 -13.5q27 0 49.5 8.5t44 32t42 62.5t44.5 100l58 145l-365 918h180l273 -729l264 729h178l-375 -948l-63 -168q-33 -90 -69 -149.5t-76 -94.5t-85 -50t-100 -15q-53 0 -102 13t-97 36z" />
<glyph unicode="z" horiz-adv-x="839" d="M43 0v143l545 641h-527v154h730v-139l-545 -645h545v-154h-748z" />
<glyph unicode="{" horiz-adv-x="694" d="M43 473l6 82q131 10 190.5 44t59.5 124q0 49 -15.5 97t-33 98.5t-32.5 105.5t-15 117q0 141 117.5 203.5t338.5 72.5v-117q-166 -12 -235.5 -47.5t-69.5 -101.5q0 -47 15.5 -93t34 -94.5t34 -100.5t15.5 -111q0 -117 -71 -188.5t-206 -80.5v-20q135 -10 206 -82t71 -188 q0 -59 -15.5 -110.5t-34 -98.5t-34 -92.5t-15.5 -90.5q0 -70 70 -107.5t235 -47.5v-115q-221 10 -338.5 71.5t-117.5 202.5q0 61 15 116.5t32.5 107t33 98.5t15.5 96q0 88 -59.5 123t-190.5 45z" />
<glyph unicode="|" horiz-adv-x="464" d="M164 -408v1846h137v-1846h-137z" />
<glyph unicode="}" horiz-adv-x="694" d="M35 -354q166 10 235.5 48t69.5 105q0 45 -15.5 90t-33 93.5t-32.5 99.5t-15 111q0 117 68.5 188.5t205.5 81.5v20q-137 8 -205.5 80t-68.5 189q0 59 15 111t32.5 100.5t33 94.5t15.5 93q0 66 -69.5 101.5t-235.5 47.5v117q223 -10 340 -72.5t117 -203.5 q0 -61 -15.5 -116.5t-34 -106t-34 -98.5t-15.5 -97q0 -90 60.5 -124t191.5 -44l6 -82l-6 -82q-131 -10 -191.5 -45t-60.5 -123q0 -49 15.5 -96t34 -98.5t34 -106.5t15.5 -117q0 -141 -117 -202.5t-340 -71.5v115z" />
<glyph unicode="~" d="M57 379q14 133 59.5 196.5t139.5 63.5q47 0 91 -22.5t84 -49t75 -49t63 -22.5q29 0 47.5 27.5t28.5 99.5h115q-14 -131 -59.5 -194.5t-139.5 -63.5q-47 0 -91 22.5t-84 48t-75 48t-63 22.5q-29 0 -48.5 -27.5t-29.5 -99.5h-113z" />
<glyph unicode="&#xa1;" horiz-adv-x="563" d="M150 1176q0 53 35.5 93t95.5 40q57 0 95 -40t38 -93t-38 -91t-95 -38q-59 0 -95 38t-36 91zM178 -57l53 938h99l53 -938h-205z" />
<glyph unicode="&#xa2;" horiz-adv-x="911" d="M84 469q0 113 35 205t97.5 157.5t148.5 101.5t188 36h18l25 184h100l-26 -195q53 -8 100 -25.5t90 -43.5l-43 -154q-76 51 -168 68l-90 -678q72 0 140.5 19.5t123.5 58.5l31 -156q-127 -78 -305 -78h-12q2 0 -3.5 -34.5t-11.5 -75.5q-8 -49 -14 -111h-100l30 232 q-164 35 -259 165.5t-95 323.5zM258 471q0 -133 53.5 -219t147.5 -115l92 676q-143 -2 -218 -92t-75 -250z" />
<glyph unicode="&#xa3;" horiz-adv-x="1044" d="M45 100q66 18 109 40t67.5 52.5t33.5 71.5t9 96q0 96 -6 201h-190l-7 111h193q-6 111 -6 200q0 113 31.5 195t86 136t129 81t160.5 27q90 0 165 -23.5t138 -64.5l-40 -150q-53 35 -120 60.5t-145 25.5q-123 0 -180 -76.5t-57 -193.5q0 -45 2 -99.5t6 -117.5h401l-6 -111 h-391q2 -47 3 -92t1 -92q0 -80 -14 -137q70 -57 147.5 -87t134.5 -30q70 0 126.5 46t78.5 173l129 -29q-6 -84 -34.5 -148.5t-71.5 -107.5t-98.5 -65.5t-114.5 -22.5q-92 0 -182.5 46t-163.5 112q-41 -55 -108.5 -95t-176.5 -67q-10 41 -18 72q-8 27 -14.5 47t-6.5 16z" />
<glyph unicode="&#xa4;" horiz-adv-x="1028" d="M61 416l7 112h147q-2 25 -3 50.5t-1 54.5q0 33 1 63.5t3 59.5h-147l-7 112h170q23 117 67 201t105.5 138.5t136 79t156.5 24.5q186 0 314 -78l-41 -150q-59 39 -128 57.5t-145 18.5q-117 0 -190.5 -70.5t-104.5 -220.5h465l-6 -112h-473q-2 -25 -3 -51.5t-1 -55.5 q0 -66 6 -121h410l6 -112h-399q35 -154 109.5 -224.5t178.5 -70.5q164 0 281 76l29 -152q-127 -76 -314 -76q-88 0 -163.5 23.5t-136 77t-102.5 138.5t-61 208h-166z" />
<glyph unicode="&#xa5;" horiz-adv-x="1112" d="M25 1280h194l338 -563l336 563h188l-397 -629h313l-6 -112h-356v-160h356l6 -111h-360v-268h-166v268h-360l6 111h356v160h-356l-6 112h315z" />
<glyph unicode="&#xa6;" horiz-adv-x="759" d="M35 37l24 166q111 -74 213 -74q96 0 141.5 55.5t45.5 180.5v915h172v-918q0 -197 -90 -295t-265 -98q-70 0 -132 19.5t-109 48.5z" />
<glyph unicode="&#xa7;" horiz-adv-x="964" d="M53 592q0 45 17.5 84t47 70.5t67.5 56t79 39.5q-49 33 -79.5 77t-30.5 109q0 66 25.5 119t71.5 91t107.5 58.5t130.5 20.5q82 0 160 -18.5t144 -51.5l-43 -153q-59 33 -134 51t-135 18q-76 0 -121 -29.5t-45 -86.5q0 -33 22.5 -55.5t59.5 -39t85 -31t100 -28.5 q61 -18 123.5 -40t112.5 -54.5t82 -79.5t32 -115q0 -92 -53.5 -156.5t-143.5 -97.5q43 -33 69.5 -77t26.5 -105q0 -68 -26.5 -123t-73.5 -95t-111.5 -62.5t-142.5 -22.5q-86 0 -174 23.5t-153 64.5l43 153q59 -41 138 -64.5t150 -23.5q80 0 133.5 35t53.5 99q0 35 -22.5 58 t-59.5 41.5t-85 34t-102 29.5q-61 18 -123.5 39t-111.5 51.5t-80 75.5t-31 111zM209 631q0 -47 44 -78t110.5 -54.5t145.5 -46t146 -55.5q47 29 83 70t36 100q0 49 -42 81t-105.5 55.5t-139 45t-143.5 52.5q-49 -31 -92 -74t-43 -96z" />
<glyph unicode="&#xa8;" d="M76 1202q0 51 34.5 89t88.5 38q55 0 90 -38t35 -89q0 -53 -35 -91t-90 -38q-53 0 -88 38t-35 91zM496 1202q0 51 33.5 89t88.5 38t89 -38t34 -89q0 -53 -33.5 -91t-89.5 -38q-55 0 -88.5 38t-33.5 91z" />
<glyph unicode="&#xa9;" horiz-adv-x="1490" d="M76 637q0 139 52 261t143 213t213 144.5t261 53.5t261 -53.5t213.5 -144.5t143.5 -213t52 -261q0 -137 -52 -260t-143.5 -213t-213.5 -143.5t-261 -53.5t-261 53.5t-213 143.5t-143 213t-52 260zM137 637q0 -125 48 -236.5t130 -195.5t194 -132t236 -48q127 0 238 48 t192.5 132t130 195.5t48.5 236.5q0 127 -48.5 238.5t-130 194.5t-192.5 132t-238 49q-125 0 -236.5 -49t-193.5 -132t-130 -194.5t-48 -238.5zM406 635q0 86 27.5 156.5t76.5 121t117.5 77t150.5 26.5q61 0 124 -14.5t110 -43.5l-41 -110q-90 57 -193 57 q-113 0 -179.5 -70.5t-66.5 -193.5q0 -125 68 -198.5t180 -73.5q57 0 109.5 19.5t91.5 47.5l25 -121q-45 -29 -106.5 -43t-123.5 -14q-82 0 -150.5 25.5t-117.5 75t-75.5 119t-26.5 157.5z" />
<glyph unicode="&#xaa;" horiz-adv-x="720" d="M45 723q0 55 22.5 102t74 84t132 59.5t199.5 26.5v47q0 70 -38 105t-105 35q-59 0 -116.5 -23.5t-113.5 -66.5l-49 114q63 47 135 76t158 29q53 0 100.5 -12.5t83 -43t57 -81t21.5 -125.5v-295q0 -72 28 -124t56 -89l-141 -33q-39 45 -66 110h-2q-41 -43 -94 -75.5 t-125 -32.5q-98 0 -157.5 60.5t-59.5 152.5zM178 741q0 -59 37 -84.5t84 -25.5q53 0 99 19.5t75 47.5v195q-86 -4 -142.5 -18.5t-90 -36t-48 -47t-14.5 -50.5z" />
<glyph unicode="&#xab;" horiz-adv-x="1187" d="M41 387v184l510 314l16 -115l-379 -289v-4l379 -289l-16 -114zM584 383v192l536 332l15 -123l-398 -303v-4l398 -303l-15 -123z" />
<glyph unicode="&#xac;" horiz-adv-x="1077" d="M84 465q0 106 35 198.5t98.5 160t151.5 106.5t192 39q66 0 130.5 -11.5t109.5 -23.5l131 35v-758q0 -57 15.5 -74.5t76.5 -17.5l-10 -142q-113 -10 -174.5 30t-75.5 93q-53 -63 -115.5 -97t-146.5 -34q-98 0 -176 38t-132.5 104.5t-82 156.5t-27.5 197zM258 469 q0 -156 74 -252t205 -96q66 0 123 26.5t104 67.5v535q-41 35 -94.5 53t-114.5 18q-72 0 -127 -27.5t-93 -75.5t-57.5 -112.5t-19.5 -136.5z" />
<glyph unicode="&#xad;" horiz-adv-x="634" d="M68 418v157h503v-157h-503z" />
<glyph unicode="&#xae;" horiz-adv-x="1490" d="M76 637q0 139 52 261t143 213t213 144.5t261 53.5t261 -53.5t213.5 -144.5t143.5 -213t52 -261q0 -137 -52 -260t-143.5 -213t-213.5 -143.5t-261 -53.5t-261 53.5t-213 143.5t-143 213t-52 260zM137 637q0 -125 48 -236.5t130 -195.5t194 -132t236 -48q127 0 238 48 t192.5 132t130 195.5t48.5 236.5q0 127 -48.5 238.5t-130 194.5t-192.5 132t-238 49q-125 0 -236.5 -49t-193.5 -132t-130 -194.5t-48 -238.5zM487 283v725h263q135 0 206.5 -59.5t71.5 -168.5q0 -78 -37 -131t-102 -80l178 -286h-145l-158 258l-150 -9v-249h-127zM612 639 l123 2q90 2 128 37t38 94q0 66 -41 94.5t-125 28.5h-123v-256z" />
<glyph unicode="&#xaf;" d="M127 1102l8 108h545l10 -108h-563z" />
<glyph unicode="&#xb0;" horiz-adv-x="763" d="M47 975q0 68 23.5 129t66.5 107t105.5 73t138.5 27q78 0 140.5 -27t105.5 -73t66.5 -107t23.5 -129t-23.5 -128.5t-66.5 -106.5t-105.5 -72.5t-140.5 -26.5q-76 0 -138.5 26.5t-105.5 72.5t-66.5 106.5t-23.5 128.5zM156 975q0 -45 15 -87t44 -74t71 -50.5t95 -18.5 t96 18.5t72 50.5t44 74t15 87q0 98 -59.5 165.5t-167.5 67.5q-53 0 -95 -18.5t-71 -50t-44 -73.5t-15 -91z" />
<glyph unicode="&#xb1;" horiz-adv-x="1490" d="M76 637q0 139 52 261t143 213t213 144.5t261 53.5t261 -53.5t213.5 -144.5t143.5 -213t52 -261t-52 -261t-143.5 -213t-213.5 -143.5t-261 -52.5t-261 52.5t-213 143.5t-143 213t-52 261zM137 637q0 -125 48 -236.5t130 -195.5t194 -132t236 -48q127 0 238 48t192.5 132 t130 195.5t48.5 236.5q0 127 -48.5 238.5t-130 194.5t-192.5 132t-238 49q-125 0 -236.5 -49t-193.5 -132t-130 -194.5t-48 -238.5zM530 262v725h238q152 0 223.5 -67.5t71.5 -171.5q0 -129 -81 -192.5t-222 -63.5h-103v-230h-127zM655 602l113 2q166 4 166 139 q0 131 -174 131h-105v-272z" />
<glyph unicode="&#xb4;" d="M252 1065l217 371h205l-299 -371h-123z" />
<glyph unicode="&#xb5;" horiz-adv-x="1081" d="M84 465q0 106 36 198.5t99.5 160t152.5 106.5t193 39q66 0 130.5 -11.5t109.5 -23.5l131 35v-977q0 -250 -113.5 -364.5t-318.5 -114.5q-96 0 -176 20.5t-152 56.5l43 156q133 -76 285 -76q135 0 199.5 76t64.5 231v113q-51 -47 -114.5 -82t-147.5 -35q-98 0 -177 37 t-133.5 102.5t-83 155.5t-28.5 197zM258 469q0 -156 76 -250t207 -94q66 0 123 26.5t104 67.5v531q-41 35 -94 53t-115 18q-72 0 -128 -27.5t-94 -75.5t-58.5 -112.5t-20.5 -136.5z" />
<glyph unicode="&#xb6;" horiz-adv-x="1019" d="M92 893q0 96 36 169t100.5 121t154.5 72.5t199 24.5h252v-1411h-142v666q-29 -6 -59.5 -10.5t-65.5 -4.5q-121 0 -211 29t-148 79t-87 117.5t-29 147.5z" />
<glyph unicode="&#xb7;" horiz-adv-x="450" d="M96 467q0 53 37 91t96 38q57 0 93 -38t36 -91t-35.5 -93t-93.5 -40q-59 0 -96 40t-37 93z" />
<glyph unicode="&#xb8;" d="M254 -162l246 242h121l-226 -219q121 0 186.5 -45t65.5 -123q0 -86 -77.5 -145.5t-258.5 -82.5l-12 107q115 6 166 36t51 75q0 47 -58.5 68.5t-187.5 0.5z" />
<glyph unicode="&#xba;" horiz-adv-x="862" d="M66 909q0 90 27.5 165t76.5 127t116.5 81t149.5 29q80 0 146.5 -29t114.5 -81t74 -126t26 -166q0 -90 -28 -163.5t-77 -126t-116.5 -81t-147.5 -28.5t-146.5 28.5t-114.5 81t-74.5 126t-26.5 163.5zM199 911q0 -59 15 -110t46 -89t74 -59.5t98 -21.5q113 0 172.5 76.5 t59.5 199.5q0 61 -15.5 112.5t-46.5 89.5t-74 59.5t-98 21.5q-113 0 -172 -78t-59 -201z" />
<glyph unicode="&#xbb;" horiz-adv-x="1200" d="M66 174l397 303v4l-397 303l14 123l536 -332v-192l-536 -332zM633 188l379 289v4l-379 289l16 115l510 -314v-184l-510 -313z" />
<glyph unicode="&#xbc;" horiz-adv-x="1314" d="M16 797l9 106l153 45l2 99q2 98 24.5 166.5t62.5 110.5t96.5 61.5t125.5 19.5q53 0 103.5 -14.5t85.5 -30.5q0 -2 -6 -26.5t-14.5 -53.5t-14.5 -52.5t-6 -21.5q-33 14 -74 27.5t-76 13.5q-72 0 -105.5 -46t-33.5 -152v-111h498l2 129q2 98 24.5 167t62.5 110.5t96 61 t126 19.5q53 0 103.5 -14t85.5 -31q0 -2 -6.5 -26.5t-14.5 -53t-14 -52t-6 -21.5q-33 14 -74 27.5t-76 13.5q-72 0 -105.5 -46t-33.5 -153v-131h297l-6 -152h-291v-786h-168v786h-500v-786h-168v784z" />
<glyph unicode="&#xbd;" horiz-adv-x="1767" d="M16 797l9 106l153 45l2 99q2 98 24.5 166.5t62.5 110.5t96.5 61.5t125.5 19.5q53 0 103.5 -14.5t85.5 -30.5q0 -2 -6 -26.5t-14.5 -53.5t-14.5 -52.5t-6 -21.5q-33 14 -74 27.5t-76 13.5q-72 0 -105.5 -46t-33.5 -152v-111h498l2 129q2 98 24.5 167t62.5 110.5t96 61 t126 19.5q53 0 103.5 -14t85.5 -31q0 -2 -6.5 -26.5t-14.5 -53t-14 -52t-6 -21.5q-33 14 -74 27.5t-76 13.5q-72 0 -105.5 -46t-33.5 -153v-131h444l168 31v-969h-168v786h-444v-786h-168v786h-500v-786h-168v784z" />
<glyph unicode="&#xbe;" horiz-adv-x="1773" d="M16 797l9 106l153 45l2 99q2 98 24.5 166.5t62.5 110.5t96.5 61.5t125.5 19.5q53 0 103.5 -14.5t85.5 -30.5q0 -2 -6 -26.5t-14.5 -53.5t-14.5 -52.5t-6 -21.5q-33 14 -74 27.5t-76 13.5q-72 0 -105.5 -46t-33.5 -152v-111h498l2 129q2 98 24.5 167t62.5 110.5t96 61 t126 19.5q53 0 103.5 -14t85.5 -31q0 -2 -6.5 -26.5t-14.5 -53t-14 -52t-6 -21.5q-33 14 -74 27.5t-76 13.5q-72 0 -105.5 -46t-33.5 -153v-131h297l-6 -152h-291v-786h-168v786h-500v-786h-168v784zM1460 0v1380l168 27v-1407h-168z" />
<glyph unicode="&#xbf;" horiz-adv-x="729" d="M78 299q0 68 19.5 113t50 75.5t69.5 49t78 32.5q66 25 111 50.5t45 80.5q0 47 -34 90.5t-77 83.5l78 25q29 -16 58.5 -39.5t52 -53.5t37 -64.5t14.5 -73.5q0 -51 -17.5 -87t-47.5 -61.5t-66.5 -43t-73.5 -32.5q-33 -12 -62.5 -24t-53 -28.5t-37 -38t-13.5 -52.5 q0 -70 67.5 -121t204.5 -51q41 0 78 6t64 10v-157q-29 -8 -66 -13.5t-90 -5.5q-86 0 -156.5 27t-123 72t-81 105t-28.5 126zM289 1176q0 53 35.5 93t93.5 40q59 0 97 -40t38 -93t-38 -91t-97 -38q-57 0 -93 38t-36 91z" />
<glyph unicode="&#xc0;" horiz-adv-x="1175" d="M10 0l482 1280h198l475 -1280h-178l-121 336h-555l-121 -336h-180zM227 1778h205l217 -371h-123zM369 494h440l-219 606z" />
<glyph unicode="&#xc1;" horiz-adv-x="1175" d="M10 0l482 1280h198l475 -1280h-178l-121 336h-555l-121 -336h-180zM369 494h440l-219 606zM518 1407l217 371h205l-299 -371h-123z" />
<glyph unicode="&#xc2;" horiz-adv-x="1175" d="M10 0l482 1280h198l475 -1280h-178l-121 336h-555l-121 -336h-180zM268 1407l236 383h180l236 -383h-123l-201 260h-2l-203 -260h-123zM369 494h440l-219 606z" />
<glyph unicode="&#xc3;" horiz-adv-x="1175" d="M10 0l482 1280h198l475 -1280h-178l-121 336h-555l-121 -336h-180zM242 1427q14 133 59 197t139 64q47 0 91 -23t84 -49.5t75 -49t64 -22.5t47 27.5t28 99.5h115q-14 -131 -59 -194.5t-140 -63.5q-47 0 -91 22.5t-84 48t-74.5 48t-63.5 22.5t-48 -27.5t-30 -99.5h-112z M369 494h440l-219 606z" />
<glyph unicode="&#xc4;" horiz-adv-x="1175" d="M10 0l482 1280h198l475 -1280h-178l-121 336h-555l-121 -336h-180zM256 1544q0 51 35 89t88 38q55 0 90 -38t35 -89q0 -53 -35 -91t-90 -38q-53 0 -88 38t-35 91zM369 494h440l-219 606zM676 1544q0 51 33.5 89t89.5 38q55 0 89 -38t34 -89q0 -53 -34 -91t-89 -38t-89 38 t-34 91z" />
<glyph unicode="&#xc5;" horiz-adv-x="1175" d="M10 0l451 1202q-57 29 -90 80t-33 115q0 45 17.5 86t50 71.5t79.5 48t105 17.5q59 0 105 -17.5t79 -48t50.5 -71.5t17.5 -86q2 -61 -31 -113.5t-92 -81.5l446 -1202h-178l-121 336h-555l-121 -336h-180zM369 494h440l-219 606zM444 1399q0 -55 39 -96t107 -41 q70 0 109.5 41t39.5 96t-40 95t-109 40q-68 0 -107 -40t-39 -95z" />
<glyph unicode="&#xc6;" horiz-adv-x="1703" d="M-16 0l731 1280h903v-162h-639v-395h532v-162h-532v-399h639v-162h-811v334h-445l-186 -334h-192zM455 496h352v624z" />
<glyph unicode="&#xc7;" horiz-adv-x="1230" d="M94 637q0 154 48 277.5t133 211.5t203 136.5t257 48.5q111 0 219.5 -29t186.5 -78l-56 -157q-86 55 -167.5 81.5t-182.5 26.5q-104 0 -190 -35t-146.5 -101.5t-94.5 -160.5t-34 -213t34 -215t95.5 -163.5t148.5 -104.5t191 -37t199.5 36t163.5 89l28 -174 q-70 -43 -159.5 -71t-188.5 -34l-112 -110q121 0 186.5 -45t65.5 -123q0 -86 -78 -145.5t-258 -82.5l-13 107q115 6 166.5 36t51.5 75q0 47 -58.5 68.5t-187.5 0.5l-17 86l138 135q-127 10 -232.5 62.5t-180.5 138.5t-117 203t-42 260z" />
<glyph unicode="&#xc8;" horiz-adv-x="1071" d="M162 0v1280h811v-162h-637v-395h530v-162h-530v-399h637v-162h-811zM236 1778h204l217 -371h-122z" />
<glyph unicode="&#xc9;" horiz-adv-x="1071" d="M162 0v1280h811v-162h-637v-395h530v-162h-530v-399h637v-162h-811zM463 1407l217 371h205l-299 -371h-123z" />
<glyph unicode="&#xca;" horiz-adv-x="1071" d="M162 0v1280h811v-162h-637v-395h530v-162h-530v-399h637v-162h-811zM236 1407l235 383h180l236 -383h-123l-201 260h-2l-203 -260h-122z" />
<glyph unicode="&#xcb;" horiz-adv-x="1071" d="M162 0v1280h811v-162h-637v-395h530v-162h-530v-399h637v-162h-811zM227 1544q0 51 35 89t88 38q55 0 90 -38t35 -89q0 -53 -34.5 -91t-90.5 -38q-53 0 -88 38t-35 91zM647 1544q0 51 34 89t89 38t89 -38t34 -89q0 -53 -34 -91t-89 -38t-89 38t-34 91z" />
<glyph unicode="&#xcc;" horiz-adv-x="505" d="M-88 1778h205l217 -371h-123zM166 0v1280h172v-1280h-172z" />
<glyph unicode="&#xcd;" horiz-adv-x="505" d="M166 0v1280h172v-1280h-172zM182 1407l217 371h205l-299 -371h-123z" />
<glyph unicode="&#xce;" horiz-adv-x="505" d="M-68 1407l236 383h180l236 -383h-123l-201 260h-2l-203 -260h-123zM166 0v1280h172v-1280h-172z" />
<glyph unicode="&#xcf;" horiz-adv-x="505" d="M-76 1544q0 51 35 89t88 38q55 0 90 -38t35 -89q0 -53 -35 -91t-90 -38q-53 0 -88 38t-35 91zM166 0v1280h172v-1280h-172zM344 1544q0 51 34 89t89 38t89 -38t34 -89q0 -53 -34 -91t-89 -38t-89 38t-34 91z" />
<glyph unicode="&#xd0;" horiz-adv-x="1349" d="M33 573v150h170v557h385q160 0 284.5 -45t213 -128t134.5 -198.5t46 -259.5q0 -147 -45 -268t-133.5 -205t-215.5 -130t-292 -46h-377v573h-170zM377 162h211q115 0 208 29.5t158.5 90t101.5 149.5t36 206q0 238 -134.5 359.5t-377.5 121.5h-203v-395h325v-150h-325v-411 z" />
<glyph unicode="&#xd1;" horiz-adv-x="1368" d="M162 0v1280h192l682 -1032v1032h170v-1292h-188l-686 1044v-1032h-170zM336 1427q14 133 59 197t140 64q47 0 91 -23t84 -49.5t74.5 -49t63.5 -22.5t47 27.5t29 99.5h114q-14 -131 -59 -194.5t-139 -63.5q-47 0 -91 22.5t-84 48t-75 48t-64 22.5t-48 -27.5t-29 -99.5 h-113z" />
<glyph unicode="&#xd2;" horiz-adv-x="1474" d="M94 637q0 143 47 266t133 214t204 142.5t259 51.5t259 -47t203 -134.5t133 -210t48 -274.5q0 -143 -47 -267t-133 -214t-203.5 -142.5t-259.5 -52.5q-141 0 -259 47t-203 134.5t-133 211t-48 275.5zM270 645q0 -119 34 -215t96.5 -163.5t149.5 -104.5t191 -37 q102 0 187.5 37t147 104.5t96 161.5t34.5 209q0 119 -34.5 214t-97 162.5t-149.5 104.5t-192 37q-102 0 -187 -37t-146.5 -103.5t-95.5 -160.5t-34 -209zM397 1778h205l217 -371h-123z" />
<glyph unicode="&#xd3;" horiz-adv-x="1474" d="M94 637q0 143 47 266t133 214t204 142.5t259 51.5t259 -47t203 -134.5t133 -210t48 -274.5q0 -143 -47 -267t-133 -214t-203.5 -142.5t-259.5 -52.5q-141 0 -259 47t-203 134.5t-133 211t-48 275.5zM270 645q0 -119 34 -215t96.5 -163.5t149.5 -104.5t191 -37 q102 0 187.5 37t147 104.5t96 161.5t34.5 209q0 119 -34.5 214t-97 162.5t-149.5 104.5t-192 37q-102 0 -187 -37t-146.5 -103.5t-95.5 -160.5t-34 -209zM668 1407l217 371h205l-299 -371h-123z" />
<glyph unicode="&#xd4;" horiz-adv-x="1474" d="M94 637q0 143 47 266t133 214t204 142.5t259 51.5t259 -47t203 -134.5t133 -210t48 -274.5q0 -143 -47 -267t-133 -214t-203.5 -142.5t-259.5 -52.5q-141 0 -259 47t-203 134.5t-133 211t-48 275.5zM270 645q0 -119 34 -215t96.5 -163.5t149.5 -104.5t191 -37 q102 0 187.5 37t147 104.5t96 161.5t34.5 209q0 119 -34.5 214t-97 162.5t-149.5 104.5t-192 37q-102 0 -187 -37t-146.5 -103.5t-95.5 -160.5t-34 -209zM418 1407l235 383h181l235 -383h-123l-201 260h-2l-202 -260h-123z" />
<glyph unicode="&#xd5;" horiz-adv-x="1474" d="M94 637q0 143 47 266t133 214t204 142.5t259 51.5t259 -47t203 -134.5t133 -210t48 -274.5q0 -143 -47 -267t-133 -214t-203.5 -142.5t-259.5 -52.5q-141 0 -259 47t-203 134.5t-133 211t-48 275.5zM270 645q0 -119 34 -215t96.5 -163.5t149.5 -104.5t191 -37 q102 0 187.5 37t147 104.5t96 161.5t34.5 209q0 119 -34.5 214t-97 162.5t-149.5 104.5t-192 37q-102 0 -187 -37t-146.5 -103.5t-95.5 -160.5t-34 -209zM391 1427q14 133 59.5 197t139.5 64q47 0 91 -23t84 -49.5t74.5 -49t63.5 -22.5t47.5 27.5t28.5 99.5h115 q-14 -131 -59.5 -194.5t-139.5 -63.5q-47 0 -91 22.5t-84 48t-75 48t-63 22.5q-29 0 -48.5 -27.5t-29.5 -99.5h-113z" />
<glyph unicode="&#xd6;" horiz-adv-x="1474" d="M94 637q0 143 47 266t133 214t204 142.5t259 51.5t259 -47t203 -134.5t133 -210t48 -274.5q0 -143 -47 -267t-133 -214t-203.5 -142.5t-259.5 -52.5q-141 0 -259 47t-203 134.5t-133 211t-48 275.5zM270 645q0 -119 34 -215t96.5 -163.5t149.5 -104.5t191 -37 q102 0 187.5 37t147 104.5t96 161.5t34.5 209q0 119 -34.5 214t-97 162.5t-149.5 104.5t-192 37q-102 0 -187 -37t-146.5 -103.5t-95.5 -160.5t-34 -209zM410 1544q0 51 34.5 89t87.5 38q55 0 90 -38t35 -89q0 -53 -34.5 -91t-90.5 -38q-53 0 -87.5 38t-34.5 91zM829 1544 q0 51 34 89t89 38t89 -38t34 -89q0 -53 -33.5 -91t-89.5 -38q-55 0 -89 38t-34 91z" />
<glyph unicode="&#xd7;" horiz-adv-x="991" d="M82 158l326 321l-326 322l98 98l322 -326l321 326l99 -98l-326 -322l326 -321l-99 -99l-321 326l-322 -326z" />
<glyph unicode="&#xd8;" horiz-adv-x="1474" d="M100 637q0 143 47.5 266t133.5 214t203.5 142.5t258.5 51.5q78 0 150 -15.5t137 -44.5l96 166h131l-127 -221q119 -86 187.5 -225.5t68.5 -325.5q0 -143 -47 -266t-133 -214t-203.5 -143.5t-259.5 -52.5q-78 0 -150.5 15.5t-135.5 44.5l-95 -166h-131l127 221 q-121 86 -189.5 226.5t-68.5 326.5zM274 645q0 -135 45.5 -240.5t122.5 -173.5l508 879q-92 45 -211 45q-102 0 -187 -37t-146.5 -103.5t-96.5 -160.5t-35 -209zM537 170q92 -45 211 -45q102 0 187 37t146.5 104.5t95 161.5t33.5 209q0 135 -44 239.5t-122 172.5z" />
<glyph unicode="&#xd9;" horiz-adv-x="1323" d="M160 475v805h172v-778q0 -174 83 -271.5t255 -97.5q150 0 235.5 88t85.5 268v791h172v-786q0 -121 -31.5 -218.5t-94 -165t-157 -104.5t-221.5 -37q-121 0 -214 36t-156.5 102.5t-96 159.5t-32.5 208zM340 1778h205l217 -371h-123z" />
<glyph unicode="&#xda;" horiz-adv-x="1323" d="M160 475v805h172v-778q0 -174 83 -271.5t255 -97.5q150 0 235.5 88t85.5 268v791h172v-786q0 -121 -31.5 -218.5t-94 -165t-157 -104.5t-221.5 -37q-121 0 -214 36t-156.5 102.5t-96 159.5t-32.5 208zM569 1407l217 371h205l-299 -371h-123z" />
<glyph unicode="&#xdb;" horiz-adv-x="1323" d="M160 475v805h172v-778q0 -174 83 -271.5t255 -97.5q150 0 235.5 88t85.5 268v791h172v-786q0 -121 -31.5 -218.5t-94 -165t-157 -104.5t-221.5 -37q-121 0 -214 36t-156.5 102.5t-96 159.5t-32.5 208zM340 1407l235 383h181l235 -383h-123l-200 260h-2l-203 -260h-123z " />
<glyph unicode="&#xdc;" horiz-adv-x="1323" d="M160 475v805h172v-778q0 -174 83 -271.5t255 -97.5q150 0 235.5 88t85.5 268v791h172v-786q0 -121 -31.5 -218.5t-94 -165t-157 -104.5t-221.5 -37q-121 0 -214 36t-156.5 102.5t-96 159.5t-32.5 208zM332 1544q0 51 34.5 89t88.5 38q55 0 90 -38t35 -89q0 -53 -35 -91 t-90 -38q-53 0 -88 38t-35 91zM752 1544q0 51 33.5 89t88.5 38t89 -38t34 -89q0 -53 -33.5 -91t-89.5 -38q-55 0 -88.5 38t-33.5 91z" />
<glyph unicode="&#xdd;" horiz-adv-x="1105" d="M20 1280h197l340 -598l336 598h192l-444 -772v-508h-174v510zM481 1407l217 371h205l-299 -371h-123z" />
<glyph unicode="&#xde;" horiz-adv-x="1087" d="M162 0v1280h174v-209h180q131 0 227.5 -30.5t159 -86t92 -131.5t29.5 -166q0 -217 -140.5 -326.5t-379.5 -113.5l-168 -2v-215h-174zM336 379l186 4q162 4 244 72.5t82 193.5q0 260 -340 260h-172v-530z" />
<glyph unicode="&#xdf;" horiz-adv-x="1290" d="M16 797l9 106l153 45l2 119q2 98 24.5 167t62.5 112t96.5 61t125.5 18q53 0 103.5 -14.5t85.5 -30.5q0 -2 -6 -26.5t-14.5 -53t-14.5 -52t-6 -21.5q-33 14 -74 27.5t-76 13.5q-72 0 -105.5 -46t-33.5 -153v-1069h-168v784zM532 55l43 154q59 -41 138.5 -64.5t150.5 -23.5 q80 0 133.5 34.5t53.5 98.5q0 35 -19.5 59.5t-50.5 42t-71 29.5t-81 25q-49 14 -99 34.5t-90 52t-64.5 78t-24.5 109.5q0 66 25.5 118t71.5 89t107.5 57.5t131.5 20.5q82 0 159.5 -18.5t143.5 -51.5l-43 -154q-59 33 -134 51.5t-134 18.5q-76 0 -121 -29.5t-45 -87.5 q0 -33 17.5 -57.5t47 -40.5t69.5 -28.5t83 -24.5q51 -14 102 -34.5t91 -52.5t65.5 -79t25.5 -115t-26.5 -122t-73.5 -94t-111.5 -61.5t-142.5 -21.5q-86 0 -174 23.5t-154 64.5z" />
<glyph unicode="&#xe0;" horiz-adv-x="923" d="M68 238q0 63 25.5 120.5t89 102.5t172 74.5t272.5 37.5v27q0 115 -48.5 164t-162.5 49q-72 0 -155 -29.5t-148 -74.5l-33 151q61 43 156.5 76t195.5 33q193 0 280 -86t83 -279v-393q0 -57 15 -74.5t77 -17.5l-10 -142q-115 -10 -170.5 26t-73.5 97h-8q-53 -63 -118 -97 t-140 -34q-66 0 -121.5 20.5t-95 56.5t-61 85t-21.5 107zM92 1436h205l217 -371h-123zM246 258q0 -63 44 -104t122 -41q66 0 120 28.5t95 71.5v254q-209 -27 -295 -75t-86 -134z" />
<glyph unicode="&#xe1;" horiz-adv-x="923" d="M68 238q0 63 25.5 120.5t89 102.5t172 74.5t272.5 37.5v27q0 115 -48.5 164t-162.5 49q-72 0 -155 -29.5t-148 -74.5l-33 151q61 43 156.5 76t195.5 33q193 0 280 -86t83 -279v-393q0 -57 15 -74.5t77 -17.5l-10 -142q-115 -10 -170.5 26t-73.5 97h-8q-53 -63 -118 -97 t-140 -34q-66 0 -121.5 20.5t-95 56.5t-61 85t-21.5 107zM246 258q0 -63 44 -104t122 -41q66 0 120 28.5t95 71.5v254q-209 -27 -295 -75t-86 -134zM342 1065l217 371h205l-299 -371h-123z" />
<glyph unicode="&#xe2;" horiz-adv-x="923" d="M68 238q0 63 25.5 120.5t89 102.5t172 74.5t272.5 37.5v27q0 115 -48.5 164t-162.5 49q-72 0 -155 -29.5t-148 -74.5l-33 151q61 43 156.5 76t195.5 33q193 0 280 -86t83 -279v-393q0 -57 15 -74.5t77 -17.5l-10 -142q-115 -10 -170.5 26t-73.5 97h-8q-53 -63 -118 -97 t-140 -34q-66 0 -121.5 20.5t-95 56.5t-61 85t-21.5 107zM113 1065l235 383h180l236 -383h-123l-201 260h-2l-202 -260h-123zM246 258q0 -63 44 -104t122 -41q66 0 120 28.5t95 71.5v254q-209 -27 -295 -75t-86 -134z" />
<glyph unicode="&#xe3;" horiz-adv-x="923" d="M68 238q0 63 25.5 120.5t89 102.5t172 74.5t272.5 37.5v27q0 115 -48.5 164t-162.5 49q-72 0 -155 -29.5t-148 -74.5l-33 151q61 43 156.5 76t195.5 33q193 0 280 -86t83 -279v-393q0 -57 15 -74.5t77 -17.5l-10 -142q-115 -10 -170.5 26t-73.5 97h-8q-53 -63 -118 -97 t-140 -34q-66 0 -121.5 20.5t-95 56.5t-61 85t-21.5 107zM86 1085q14 133 59 197t140 64q47 0 91 -23t84 -49.5t74.5 -49t63.5 -22.5t47.5 27.5t28.5 99.5h114q-14 -131 -59 -194.5t-139 -63.5q-47 0 -91 22.5t-84 48t-75 48t-64 22.5t-48 -27.5t-29 -99.5h-113zM246 258 q0 -63 44 -104t122 -41q66 0 120 28.5t95 71.5v254q-209 -27 -295 -75t-86 -134z" />
<glyph unicode="&#xe4;" horiz-adv-x="923" d="M68 238q0 63 25.5 120.5t89 102.5t172 74.5t272.5 37.5v27q0 115 -48.5 164t-162.5 49q-72 0 -155 -29.5t-148 -74.5l-33 151q61 43 156.5 76t195.5 33q193 0 280 -86t83 -279v-393q0 -57 15 -74.5t77 -17.5l-10 -142q-115 -10 -170.5 26t-73.5 97h-8q-53 -63 -118 -97 t-140 -34q-66 0 -121.5 20.5t-95 56.5t-61 85t-21.5 107zM104 1202q0 51 35 89t88 38q55 0 90 -38t35 -89q0 -53 -34.5 -91t-90.5 -38q-53 0 -88 38t-35 91zM246 258q0 -63 44 -104t122 -41q66 0 120 28.5t95 71.5v254q-209 -27 -295 -75t-86 -134zM524 1202q0 51 34 89 t89 38t89 -38t34 -89q0 -53 -34 -91t-89 -38t-89 38t-34 91z" />
<glyph unicode="&#xe5;" horiz-adv-x="923" d="M68 238q0 63 25.5 120.5t89 102.5t172 74.5t272.5 37.5v27q0 115 -48.5 164t-162.5 49q-72 0 -155 -29.5t-148 -74.5l-33 151q61 43 156.5 76t195.5 33q193 0 280 -86t83 -279v-393q0 -57 15 -74.5t77 -17.5l-10 -142q-115 -10 -170.5 26t-73.5 97h-8q-53 -63 -118 -97 t-140 -34q-66 0 -121.5 20.5t-95 56.5t-61 85t-21.5 107zM184 1292q0 92 67.5 159t186.5 67t185.5 -67t68.5 -159q0 -45 -17.5 -86t-50 -71.5t-79.5 -48t-107 -17.5q-119 0 -186.5 65.5t-67.5 157.5zM246 258q0 -63 44 -104t122 -41q66 0 120 28.5t95 71.5v254 q-209 -27 -295 -75t-86 -134zM293 1294q0 -55 39 -96t106 -41q70 0 109 41t39 96t-39 95.5t-109 40.5q-68 0 -106.5 -40t-38.5 -96z" />
<glyph unicode="&#xe6;" horiz-adv-x="1544" d="M68 238q0 63 26.5 120.5t93 103.5t178 75.5t281.5 35.5v21q0 127 -58.5 173t-172.5 46q-72 0 -155 -29.5t-148 -74.5l-33 151q61 43 156.5 76t195.5 33q145 0 220 -43t110 -115q55 72 143 115t199 43q172 0 265 -99.5t93 -267.5q0 -39 -5 -79t-15 -70h-99h-101t-116 -2 q-139 -2 -315 -2v-9q2 -70 25.5 -127t63.5 -99t96.5 -65.5t123.5 -23.5q74 0 148.5 19.5t132.5 58.5l31 -156q-63 -39 -144.5 -58.5t-171.5 -19.5q-129 0 -229.5 52.5t-161.5 140.5q-49 -76 -139 -134.5t-219 -58.5q-66 0 -121.5 20.5t-95 56.5t-61 85t-21.5 107zM246 258 q0 -63 45 -104t131 -41q35 0 70.5 11t70.5 29.5t64.5 43t50.5 51.5q-6 16 -11 45t-9.5 61.5t-7.5 63.5t-3 49q-219 -20 -310 -71.5t-91 -137.5zM819 571l481 4v15q0 104 -51 167.5t-162 63.5q-59 0 -107 -21.5t-82 -57t-53.5 -80t-25.5 -91.5z" />
<glyph unicode="&#xe7;" horiz-adv-x="933" d="M84 469q0 113 36 205t98.5 157.5t149.5 101.5t189 36q92 0 165 -19.5t138 -60.5l-43 -154q-115 78 -260 78t-222 -91t-77 -251q0 -164 81 -255t214 -91q74 0 143.5 19.5t126.5 58.5l31 -156q-109 -63 -246 -76l-114 -110q121 0 186 -45t65 -123q0 -86 -77.5 -145.5 t-257.5 -82.5l-13 107q115 6 166 36t51 75q0 47 -58 68.5t-187 0.5l-17 86l135 133q-98 8 -172.5 48t-126 105.5t-78 153t-26.5 191.5z" />
<glyph unicode="&#xe8;" horiz-adv-x="983" d="M84 459q0 115 36 208t97.5 160.5t146.5 104.5t183 37q172 0 265 -99.5t93 -267.5q0 -39 -5 -79t-15 -70h-99h-101t-116 -2q-139 -2 -315 -2v-9q2 -70 25.5 -127t63.5 -99t96.5 -65.5t123.5 -23.5q74 0 148.5 19.5t132.5 58.5l30 -156q-63 -39 -144 -58.5t-171 -19.5 q-106 0 -193 36t-149.5 101.5t-97.5 155.5t-35 197zM178 1436h205l217 -371h-123zM262 571l481 4v15q0 104 -51 167.5t-162 63.5q-59 0 -107 -21.5t-82 -57t-53.5 -80t-25.5 -91.5z" />
<glyph unicode="&#xe9;" horiz-adv-x="983" d="M84 459q0 115 36 208t97.5 160.5t146.5 104.5t183 37q172 0 265 -99.5t93 -267.5q0 -39 -5 -79t-15 -70h-99h-101t-116 -2q-139 -2 -315 -2v-9q2 -70 25.5 -127t63.5 -99t96.5 -65.5t123.5 -23.5q74 0 148.5 19.5t132.5 58.5l30 -156q-63 -39 -144 -58.5t-171 -19.5 q-106 0 -193 36t-149.5 101.5t-97.5 155.5t-35 197zM262 571l481 4v15q0 104 -51 167.5t-162 63.5q-59 0 -107 -21.5t-82 -57t-53.5 -80t-25.5 -91.5zM428 1065l217 371h205l-299 -371h-123z" />
<glyph unicode="&#xea;" horiz-adv-x="983" d="M84 459q0 115 36 208t97.5 160.5t146.5 104.5t183 37q172 0 265 -99.5t93 -267.5q0 -39 -5 -79t-15 -70h-99h-101t-116 -2q-139 -2 -315 -2v-9q2 -70 25.5 -127t63.5 -99t96.5 -65.5t123.5 -23.5q74 0 148.5 19.5t132.5 58.5l30 -156q-63 -39 -144 -58.5t-171 -19.5 q-106 0 -193 36t-149.5 101.5t-97.5 155.5t-35 197zM158 1065l235 383h180l236 -383h-123l-201 260h-2l-202 -260h-123zM262 571l481 4v15q0 104 -51 167.5t-162 63.5q-59 0 -107 -21.5t-82 -57t-53.5 -80t-25.5 -91.5z" />
<glyph unicode="&#xeb;" horiz-adv-x="983" d="M84 459q0 115 36 208t97.5 160.5t146.5 104.5t183 37q172 0 265 -99.5t93 -267.5q0 -39 -5 -79t-15 -70h-99h-101t-116 -2q-139 -2 -315 -2v-9q2 -70 25.5 -127t63.5 -99t96.5 -65.5t123.5 -23.5q74 0 148.5 19.5t132.5 58.5l30 -156q-63 -39 -144 -58.5t-171 -19.5 q-106 0 -193 36t-149.5 101.5t-97.5 155.5t-35 197zM160 1202q0 51 34.5 89t88.5 38q55 0 90 -38t35 -89q0 -53 -35 -91t-90 -38q-53 0 -88 38t-35 91zM262 571l481 4v15q0 104 -51 167.5t-162 63.5q-59 0 -107 -21.5t-82 -57t-53.5 -80t-25.5 -91.5zM580 1202q0 51 33.5 89 t88.5 38t89 -38t34 -89q0 -53 -33.5 -91t-89.5 -38q-55 0 -88.5 38t-33.5 91z" />
<glyph unicode="&#xec;" horiz-adv-x="458" d="M-111 1436h205l217 -371h-123zM152 0v924l167 26v-950h-167z" />
<glyph unicode="&#xed;" horiz-adv-x="458" d="M152 0v924l167 26v-950h-167zM160 1065l217 371h205l-299 -371h-123z" />
<glyph unicode="&#xee;" horiz-adv-x="458" d="M-90 1065l235 383h181l235 -383h-123l-200 260h-2l-203 -260h-123zM152 0v924l167 26v-950h-167z" />
<glyph unicode="&#xef;" horiz-adv-x="458" d="M-98 1202q0 51 34.5 89t88.5 38q55 0 90 -38t35 -89q0 -53 -35 -91t-90 -38q-53 0 -88 38t-35 91zM152 0v924l167 26v-950h-167zM322 1202q0 51 33.5 89t88.5 38t89 -38t34 -89q0 -53 -33.5 -91t-89.5 -38q-55 0 -88.5 38t-33.5 91z" />
<glyph unicode="&#xf0;" horiz-adv-x="1093" d="M84 420q0 113 38 200t97.5 147t131 91t141.5 31q111 0 179 -39t120 -100l4 2q-14 41 -46 90t-73 101t-87 104.5t-89 95.5l-211 -58l-29 113l143 39q-39 37 -78.5 73t-82.5 70l190 45q41 -35 80 -68.5t74 -68.5l211 55l28 -112l-147 -39q147 -164 239.5 -342t92.5 -352 q0 -113 -30 -209t-87 -167t-143 -112t-201 -41q-104 0 -190.5 35t-147.5 95.5t-94 142.5t-33 178zM264 444q0 -156 81 -239.5t210 -83.5q127 0 208 87t81 251q0 59 -11.5 103t-25.5 75q-29 45 -106.5 73.5t-174.5 28.5q-51 0 -99 -20.5t-84 -58t-57.5 -93t-21.5 -123.5z" />
<glyph unicode="&#xf1;" horiz-adv-x="1058" d="M145 0v942l168 27v-142q66 66 145 104t160 38q143 0 223.5 -85t80.5 -239v-645h-168v590q0 123 -47.5 170t-147.5 47q-74 0 -139.5 -32t-106.5 -70v-705h-168zM182 1085q14 133 59.5 197t139.5 64q47 0 91 -23t84 -49.5t75 -49t63 -22.5q29 0 47.5 27.5t28.5 99.5h115 q-14 -131 -59.5 -194.5t-139.5 -63.5q-47 0 -91 22.5t-84 48t-75 48t-63 22.5q-29 0 -48.5 -27.5t-29.5 -99.5h-113z" />
<glyph unicode="&#xf2;" horiz-adv-x="1081" d="M84 469q0 113 35 205t96 158.5t146 102.5t186 36q100 0 183 -36t142.5 -101.5t92 -157.5t32.5 -207q0 -113 -34.5 -205t-96 -157.5t-146.5 -101.5t-183 -36q-100 0 -183.5 36t-142.5 100.5t-93 157.5t-34 206zM242 1436h204l218 -371h-123zM250 471q0 -76 19.5 -139.5 t57.5 -110.5t92 -73.5t124 -26.5t124 25.5t91 71.5t55 109.5t18 139.5t-19 140.5t-57 111.5t-92.5 73.5t-123.5 26.5q-70 0 -124.5 -25.5t-91 -71.5t-55 -110.5t-18.5 -140.5z" />
<glyph unicode="&#xf3;" horiz-adv-x="1081" d="M84 469q0 113 35 205t96 158.5t146 102.5t186 36q100 0 183 -36t142.5 -101.5t92 -157.5t32.5 -207q0 -113 -34.5 -205t-96 -157.5t-146.5 -101.5t-183 -36q-100 0 -183.5 36t-142.5 100.5t-93 157.5t-34 206zM250 471q0 -76 19.5 -139.5t57.5 -110.5t92 -73.5t124 -26.5 t124 25.5t91 71.5t55 109.5t18 139.5t-19 140.5t-57 111.5t-92.5 73.5t-123.5 26.5q-70 0 -124.5 -25.5t-91 -71.5t-55 -110.5t-18.5 -140.5zM430 1065l217 371h205l-299 -371h-123z" />
<glyph unicode="&#xf4;" horiz-adv-x="1081" d="M84 469q0 113 35 205t96 158.5t146 102.5t186 36q100 0 183 -36t142.5 -101.5t92 -157.5t32.5 -207q0 -113 -34.5 -205t-96 -157.5t-146.5 -101.5t-183 -36q-100 0 -183.5 36t-142.5 100.5t-93 157.5t-34 206zM221 1065l236 383h180l235 -383h-122l-201 260h-2l-203 -260 h-123zM250 471q0 -76 19.5 -139.5t57.5 -110.5t92 -73.5t124 -26.5t124 25.5t91 71.5t55 109.5t18 139.5t-19 140.5t-57 111.5t-92.5 73.5t-123.5 26.5q-70 0 -124.5 -25.5t-91 -71.5t-55 -110.5t-18.5 -140.5z" />
<glyph unicode="&#xf5;" horiz-adv-x="1081" d="M84 469q0 113 35 205t96 158.5t146 102.5t186 36q100 0 183 -36t142.5 -101.5t92 -157.5t32.5 -207q0 -113 -34.5 -205t-96 -157.5t-146.5 -101.5t-183 -36q-100 0 -183.5 36t-142.5 100.5t-93 157.5t-34 206zM195 1085q14 133 59 197t139 64q47 0 91 -23t84 -49.5 t75 -49t64 -22.5t47 27.5t28 99.5h115q-14 -131 -59 -194.5t-140 -63.5q-47 0 -91 22.5t-84 48t-74.5 48t-63.5 22.5t-48.5 -27.5t-29.5 -99.5h-112zM250 471q0 -76 19.5 -139.5t57.5 -110.5t92 -73.5t124 -26.5t124 25.5t91 71.5t55 109.5t18 139.5t-19 140.5t-57 111.5 t-92.5 73.5t-123.5 26.5q-70 0 -124.5 -25.5t-91 -71.5t-55 -110.5t-18.5 -140.5z" />
<glyph unicode="&#xf6;" horiz-adv-x="1081" d="M84 469q0 113 35 205t96 158.5t146 102.5t186 36q100 0 183 -36t142.5 -101.5t92 -157.5t32.5 -207q0 -113 -34.5 -205t-96 -157.5t-146.5 -101.5t-183 -36q-100 0 -183.5 36t-142.5 100.5t-93 157.5t-34 206zM213 1202q0 51 35 89t88 38q55 0 90 -38t35 -89 q0 -53 -35 -91t-90 -38q-53 0 -88 38t-35 91zM250 471q0 -76 19.5 -139.5t57.5 -110.5t92 -73.5t124 -26.5t124 25.5t91 71.5t55 109.5t18 139.5t-19 140.5t-57 111.5t-92.5 73.5t-123.5 26.5q-70 0 -124.5 -25.5t-91 -71.5t-55 -110.5t-18.5 -140.5zM633 1202q0 51 33.5 89 t89.5 38q55 0 89 -38t34 -89q0 -53 -34 -91t-89 -38t-89 38t-34 91z" />
<glyph unicode="&#xf7;" horiz-adv-x="991" d="M82 408l6 145h819l6 -145h-831zM362 168q0 53 40 93t100 40q59 0 97 -40t38 -93t-38 -95t-97 -42t-99.5 42t-40.5 95zM362 793q0 53 38 95t98 42q59 0 99 -42t40 -95t-40 -93.5t-99 -40.5t-97.5 40t-38.5 94z" />
<glyph unicode="&#xf8;" horiz-adv-x="1081" d="M90 469q0 113 35 205t96.5 158.5t146.5 102.5t185 36q102 0 192 -39l84 145h136l-121 -209q76 -66 118 -168t42 -231q0 -113 -35 -205t-96.5 -157.5t-146.5 -101.5t-183 -36q-102 0 -193 39l-84 -145h-135q33 57 59 104q23 41 42.5 73t17.5 32q-76 66 -118 167t-42 230z M256 471q0 -164 76 -258l336 582q-51 25 -123 24q-70 0 -124 -25.5t-91 -71.5t-55.5 -110.5t-18.5 -140.5zM428 143q55 -23 121 -22q70 0 124 25.5t91 71.5t55.5 109.5t18.5 139.5q0 164 -76 258z" />
<glyph unicode="&#xf9;" horiz-adv-x="1058" d="M137 293v645h168v-590q0 -123 46 -170t138 -47q82 0 149 32t107 70v705h168v-942l-168 -27v137q-66 -66 -145.5 -101.5t-169.5 -35.5q-135 0 -214 85t-79 239zM209 1436h205l217 -371h-123z" />
<glyph unicode="&#xfa;" horiz-adv-x="1058" d="M137 293v645h168v-590q0 -123 46 -170t138 -47q82 0 149 32t107 70v705h168v-942l-168 -27v137q-66 -66 -145.5 -101.5t-169.5 -35.5q-135 0 -214 85t-79 239zM438 1065l217 371h205l-299 -371h-123z" />
<glyph unicode="&#xfb;" horiz-adv-x="1058" d="M137 293v645h168v-590q0 -123 46 -170t138 -47q82 0 149 32t107 70v705h168v-942l-168 -27v137q-66 -66 -145.5 -101.5t-169.5 -35.5q-135 0 -214 85t-79 239zM209 1065l235 383h181l235 -383h-123l-200 260h-2l-203 -260h-123z" />
<glyph unicode="&#xfc;" horiz-adv-x="1058" d="M137 293v645h168v-590q0 -123 46 -170t138 -47q82 0 149 32t107 70v705h168v-942l-168 -27v137q-66 -66 -145.5 -101.5t-169.5 -35.5q-135 0 -214 85t-79 239zM190 1202q0 51 35 89t88 38q55 0 90 -38t35 -89q0 -53 -34.5 -91t-90.5 -38q-53 0 -88 38t-35 91zM610 1202 q0 51 34 89t89 38t89 -38t34 -89q0 -53 -34 -91t-89 -38t-89 38t-34 91z" />
<glyph unicode="&#xfd;" horiz-adv-x="903" d="M-68 -438l50 155q37 -18 75.5 -31.5t73.5 -13.5q27 0 49.5 8.5t44 32t42 62.5t44.5 100l58 145l-365 918h180l273 -729l264 729h178l-375 -948l-63 -168q-33 -90 -69 -149.5t-76 -94.5t-85 -50t-100 -15q-53 0 -102 13t-97 36zM381 1065l217 371h205l-299 -371h-123z" />
<glyph unicode="&#xfe;" horiz-adv-x="1064" d="M145 -504v1884l168 27v-545q51 41 113.5 74t138.5 33q102 0 182 -38t134.5 -104.5t83 -156.5t28.5 -197q0 -106 -34.5 -198.5t-98 -160t-151.5 -106.5t-193 -39q-41 0 -99.5 6.5t-103.5 18.5v-498h-168zM313 188q84 -68 209 -67q72 0 127.5 27.5t93 74.5t57 110.5 t19.5 135.5q0 156 -73.5 250t-204.5 94q-66 0 -123.5 -24.5t-104.5 -65.5v-535z" />
<glyph unicode="&#xff;" horiz-adv-x="903" d="M-68 -438l50 155q37 -18 75.5 -31.5t73.5 -13.5q27 0 49.5 8.5t44 32t42 62.5t44.5 100l58 145l-365 918h180l273 -729l264 729h178l-375 -948l-63 -168q-33 -90 -69 -149.5t-76 -94.5t-85 -50t-100 -15q-53 0 -102 13t-97 36zM123 1202q0 51 35 89t88 38q55 0 90 -38 t35 -89q0 -53 -35 -91t-90 -38q-53 0 -88 38t-35 91zM543 1202q0 51 33.5 89t89.5 38q55 0 88.5 -38t33.5 -89q0 -53 -33.5 -91t-88.5 -38t-89 38t-34 91z" />
<glyph unicode="&#x152;" horiz-adv-x="1888" d="M100 631q0 147 45 268t133.5 205t215.5 130t292 46h1014v-162h-637v-395h531v-162h-531v-399h637v-162h-1022q-160 0 -284.5 45t-212.5 128t-134.5 198.5t-46.5 259.5zM274 643q0 -238 134.5 -359.5t377.5 -121.5h203v956h-211q-115 0 -208 -29.5t-158.5 -90 t-101.5 -149.5t-36 -206z" />
<glyph unicode="&#x153;" horiz-adv-x="1740" d="M84 469q0 113 35 205t96 158.5t146 102.5t186 36q129 0 224 -56.5t151 -158.5q61 100 160.5 156.5t222.5 56.5q172 0 265 -99.5t93 -267.5q0 -39 -5 -79t-16 -70h-98h-101.5t-115.5 -2q-139 -2 -315 -2v-9q2 -70 25.5 -127t63.5 -99t96 -65.5t124 -23.5q74 0 148.5 19.5 t132.5 58.5l30 -156q-63 -39 -144 -58.5t-171 -19.5q-135 0 -238 56.5t-164 154.5q-59 -100 -156 -155.5t-222 -55.5q-100 0 -183.5 36t-142.5 100.5t-93 157.5t-34 206zM250 471q0 -76 19.5 -139.5t57.5 -110.5t92 -73.5t124 -26.5t124 25.5t91 71.5t55 109.5t18 139.5 t-19 140.5t-57 111.5t-92.5 73.5t-123.5 26.5q-70 0 -124.5 -25.5t-91 -71.5t-55 -110.5t-18.5 -140.5zM1020 571l481 4v15q0 104 -51 167.5t-162 63.5q-59 0 -107 -21.5t-82 -57t-53.5 -80t-25.5 -91.5z" />
<glyph unicode="&#x178;" horiz-adv-x="1105" d="M20 1280h197l340 -598l336 598h192l-444 -772v-508h-174v510zM223 1544q0 51 35 89t88 38q55 0 90 -38t35 -89q0 -53 -35 -91t-90 -38q-53 0 -88 38t-35 91zM643 1544q0 51 34 89t89 38t89 -38t34 -89q0 -53 -34 -91t-89 -38t-89 38t-34 91z" />
<glyph unicode="&#x2c6;" d="M84 1065l235 383h181l235 -383h-123l-200 260h-2l-203 -260h-123z" />
<glyph unicode="&#x2dc;" d="M57 1085q14 133 59.5 197t139.5 64q47 0 91 -23t84 -49.5t75 -49t63 -22.5q29 0 47.5 27.5t28.5 99.5h115q-14 -131 -59.5 -194.5t-139.5 -63.5q-47 0 -91 22.5t-84 48t-75 48t-63 22.5q-29 0 -48.5 -27.5t-29.5 -99.5h-113z" />
<glyph unicode="&#x2000;" horiz-adv-x="895" />
<glyph unicode="&#x2001;" horiz-adv-x="1790" />
<glyph unicode="&#x2002;" horiz-adv-x="895" />
<glyph unicode="&#x2003;" horiz-adv-x="1790" />
<glyph unicode="&#x2004;" horiz-adv-x="596" />
<glyph unicode="&#x2005;" horiz-adv-x="447" />
<glyph unicode="&#x2006;" horiz-adv-x="298" />
<glyph unicode="&#x2007;" horiz-adv-x="298" />
<glyph unicode="&#x2008;" horiz-adv-x="223" />
<glyph unicode="&#x2009;" horiz-adv-x="358" />
<glyph unicode="&#x200a;" horiz-adv-x="99" />
<glyph unicode="&#x2010;" horiz-adv-x="634" d="M68 418v157h503v-157h-503z" />
<glyph unicode="&#x2011;" horiz-adv-x="634" d="M68 418v157h503v-157h-503z" />
<glyph unicode="&#x2012;" horiz-adv-x="634" d="M68 418v157h503v-157h-503z" />
<glyph unicode="&#x2013;" horiz-adv-x="944" d="M61 424l7 121h813l6 -121h-826z" />
<glyph unicode="&#x2014;" horiz-adv-x="1906" d="M61 424l7 121h1775l6 -121h-1788z" />
<glyph unicode="&#x2018;" horiz-adv-x="450" d="M53 963q0 63 25.5 119.5t68.5 105.5t98.5 93t112.5 81l70 -70q-106 -78 -156.5 -142.5t-50.5 -117.5q0 -39 31 -67.5t115 -67.5q-6 -49 -40 -85t-100 -36q-31 0 -62.5 14.5t-56 39t-40 58.5t-15.5 75z" />
<glyph unicode="&#x2019;" horiz-adv-x="450" d="M23 850q209 152 208 260q0 39 -31.5 67.5t-115.5 67.5q6 49 40 85t99 36q31 0 62.5 -14.5t56.5 -39t40 -58t15 -74.5q0 -63 -25.5 -119.5t-68.5 -106t-97 -93.5t-112 -81z" />
<glyph unicode="&#x201a;" horiz-adv-x="450" d="M23 -248q209 152 208 260q0 39 -31.5 67.5t-115.5 67.5q6 49 40 85t99 36q31 0 62.5 -14t56.5 -39t40 -58.5t15 -74.5q0 -63 -25.5 -119.5t-68.5 -106t-97 -93.5t-112 -80z" />
<glyph unicode="&#x201c;" horiz-adv-x="888" d="M53 963q0 63 25.5 119.5t68.5 105.5t98.5 93t112.5 81l70 -70q-106 -78 -156.5 -142.5t-50.5 -117.5q0 -39 31 -67.5t115 -67.5q-6 -49 -40 -85t-100 -36q-31 0 -62.5 14.5t-56 39t-40 58.5t-15.5 75zM492 963q0 63 25.5 119.5t68.5 105.5t98 93t113 81l69 -70 q-106 -78 -156.5 -142.5t-50.5 -117.5q0 -39 31 -67.5t115 -67.5q-6 -49 -40 -85t-99 -36q-31 0 -63 14.5t-56.5 39t-39.5 58.5t-15 75z" />
<glyph unicode="&#x201d;" horiz-adv-x="888" d="M23 850q209 152 208 260q0 39 -31.5 67.5t-115.5 67.5q6 49 40 85t99 36q31 0 62.5 -14.5t56.5 -39t40 -58t15 -74.5q0 -63 -25.5 -119.5t-68.5 -106t-97 -93.5t-112 -81zM461 850q209 152 209 260q0 39 -32 67.5t-116 67.5q6 49 40 85t100 36q31 0 62.5 -14.5t56 -39 t40 -58t15.5 -74.5q0 -63 -26 -119.5t-69 -106t-97 -93.5t-112 -81z" />
<glyph unicode="&#x201e;" horiz-adv-x="860" d="M23 -248q209 152 208 260q0 39 -31.5 67.5t-115.5 67.5q6 49 40 85t99 36q31 0 62.5 -14t56.5 -39t40 -58.5t15 -74.5q0 -63 -25.5 -119.5t-68.5 -106t-97 -93.5t-112 -80zM461 -248q209 152 209 260q0 39 -32 67.5t-116 67.5q6 49 40 85t100 36q31 0 62.5 -14t56 -39 t40 -58.5t15.5 -74.5q0 -63 -26 -119.5t-69 -106t-97 -93.5t-112 -80z" />
<glyph unicode="&#x2022;" horiz-adv-x="919" d="M66 475q0 23 12 63t30.5 83t39 80.5t34.5 52.5q16 16 53 35.5t80 37t84 29.5t62 12q23 0 62.5 -12t82.5 -29.5t81 -37t52 -35.5q16 -14 36 -52t37 -81t29.5 -83t12.5 -63t-12.5 -62.5t-29.5 -82.5t-36.5 -81t-36.5 -54q-14 -14 -52 -35t-81 -38.5t-84 -29.5t-63 -12 q-20 0 -61.5 12t-84.5 29.5t-79.5 38t-51.5 35.5q-14 16 -34.5 54t-39 81t-30.5 83t-12 62z" />
<glyph unicode="&#x2026;" horiz-adv-x="1376" d="M96 102q0 53 37 91t96 38q57 0 93 -38t36 -91t-35.5 -93t-93.5 -40q-59 0 -96 40t-37 93zM557 102q0 53 38 91t97 38q57 0 93 -38t36 -91t-35.5 -93t-93.5 -40q-59 0 -97 40t-38 93zM1020 102q0 53 38 91t95 38q59 0 95 -38t36 -91t-36 -93t-95 -40q-57 0 -95 40t-38 93z " />
<glyph unicode="&#x202f;" horiz-adv-x="358" />
<glyph unicode="&#x2039;" horiz-adv-x="700" d="M61 383v192l537 332l16 -123l-409 -303v-4l409 -303l-16 -123z" />
<glyph unicode="&#x203a;" horiz-adv-x="700" d="M86 174l410 303v4l-410 303l16 123l537 -332v-192l-537 -332z" />
<glyph unicode="&#x205f;" horiz-adv-x="447" />
<glyph unicode="&#x20ac;" horiz-adv-x="1028" d="M61 416l7 112h147q-2 25 -3 50.5t-1 54.5q0 33 1 63.5t3 59.5h-147l-7 112h170q23 117 67 201t105.5 138.5t136 79t156.5 24.5q186 0 314 -78l-41 -150q-59 39 -128 57.5t-145 18.5q-117 0 -190.5 -70.5t-104.5 -220.5h465l-6 -112h-473q-2 -25 -3 -51.5t-1 -55.5 q0 -66 6 -121h410l6 -112h-399q35 -154 109.5 -224.5t178.5 -70.5q164 0 281 76l29 -152q-127 -76 -314 -76q-88 0 -163.5 23.5t-136 77t-102.5 138.5t-61 208h-166z" />
<glyph unicode="&#x2122;" horiz-adv-x="1943" d="M88 1157v125h721v-125h-307v-641h-129v641h-285zM913 516l15 766h233l164 -592h23l188 592h221l10 -766h-131l2 625h-22l-217 -602h-144l-190 600h-23l-10 -623h-119z" />
<glyph unicode="&#x25fc;" horiz-adv-x="942" d="M0 0v942h942v-942h-942z" />
<glyph unicode="&#xfb01;" horiz-adv-x="1099" d="M16 797l9 106l153 45l2 119q2 98 24.5 167t62.5 110.5t96.5 61t125.5 19.5q53 0 103.5 -14t85.5 -31q0 -2 -6 -26.5t-14.5 -53t-14.5 -52t-6 -21.5q-33 14 -74 27.5t-76 13.5q-72 0 -105.5 -46t-33.5 -153v-131h445l168 31v-969h-168v786h-445v-786h-168v784z" />
<glyph unicode="&#xfb02;" horiz-adv-x="1105" d="M16 797l9 106l153 45l2 119q2 98 24.5 167t62.5 110.5t96.5 61t125.5 19.5q53 0 103.5 -14.5t85.5 -30.5q0 -2 -6 -26.5t-14.5 -53t-14.5 -52t-6 -21.5q-33 14 -74 27.5t-76 13.5q-72 0 -105.5 -46t-33.5 -153v-131h297l-6 -152h-291v-786h-168v784zM793 0v1380l168 27 v-1407h-168z" />
<glyph unicode="&#xfb03;" horiz-adv-x="1767" d="M16 797l9 106l153 45l2 99q2 98 24.5 166.5t62.5 110.5t96.5 61.5t125.5 19.5q53 0 103.5 -14.5t85.5 -30.5q0 -2 -6 -26.5t-14.5 -53.5t-14.5 -52.5t-6 -21.5q-33 14 -74 27.5t-76 13.5q-72 0 -105.5 -46t-33.5 -152v-111h498l2 129q2 98 24.5 167t62.5 110.5t96 61 t126 19.5q53 0 103.5 -14t85.5 -31q0 -2 -6.5 -26.5t-14.5 -53t-14 -52t-6 -21.5q-33 14 -74 27.5t-76 13.5q-72 0 -105.5 -46t-33.5 -153v-131h444l168 31v-969h-168v786h-444v-786h-168v786h-500v-786h-168v784z" />
<glyph unicode="&#xfb04;" horiz-adv-x="1773" d="M16 797l9 106l153 45l2 99q2 98 24.5 166.5t62.5 110.5t96.5 61.5t125.5 19.5q53 0 103.5 -14.5t85.5 -30.5q0 -2 -6 -26.5t-14.5 -53.5t-14.5 -52.5t-6 -21.5q-33 14 -74 27.5t-76 13.5q-72 0 -105.5 -46t-33.5 -152v-111h498l2 129q2 98 24.5 167t62.5 110.5t96 61 t126 19.5q53 0 103.5 -14t85.5 -31q0 -2 -6.5 -26.5t-14.5 -53t-14 -52t-6 -21.5q-33 14 -74 27.5t-76 13.5q-72 0 -105.5 -46t-33.5 -153v-131h297l-6 -152h-291v-786h-168v786h-500v-786h-168v784zM1460 0v1380l168 27v-1407h-168z" />
</font>
</defs>
</svg>
