<?xml version="1.0" standalone="no"?>
<!DOCTYPE svg PUBLIC "-//W3C//DTD SVG 1.1//EN" "http://www.w3.org/Graphics/SVG/1.1/DTD/svg11.dtd" >
<svg xmlns="http://www.w3.org/2000/svg" xmlns:xlink="http://www.w3.org/1999/xlink" version="1.1">
<metadata></metadata>
<defs>
<font id="jubilat_mediumregular" horiz-adv-x="1503" >
<font-face units-per-em="2048" ascent="1638" descent="-410" />
<missing-glyph horiz-adv-x="481" />
<glyph unicode="&#xfb01;" horiz-adv-x="1198" d="M25 844v153h135v72q0 180 73 255t242 75q97 0 174 -37v-148q-27 17 -86 17q-83 0 -110.5 -40.5t-24.5 -160.5v-33h375q140 0 239 21v-811q0 -31 7.5 -42t25.5 -11h86v-154h-522v154h90q19 0 27 11t8 42v555q0 47 -9.5 64.5t-35.5 17.5h-287v-637q0 -33 8 -43t27 -10h106 v-154h-538v154h90q19 0 27 10t8 43v637h-135zM729 1237q0 71 48 119.5t124 48.5q74 0 123 -49t49 -119t-49 -119t-123 -49q-76 0 -124 48.5t-48 119.5z" />
<glyph unicode="&#xfb02;" horiz-adv-x="1200" d="M25 844v153h135v52q0 105 19 172.5t65.5 107t113.5 55t172 15.5q17 0 98.5 -7.5t139.5 -15.5h274v-1169q0 -33 8 -43t25 -10h82v-154h-516v154h90q19 0 27 10t8 43v956q0 41 -12.5 59.5t-48.5 18.5h-91q-115 0 -153.5 -43.5t-38.5 -183.5v-17h194v-153h-184v-637 q0 -33 8 -43t27 -10h106v-154h-538v154h90q19 0 27 10t8 43v637h-135z" />
<glyph unicode="&#xfb03;" horiz-adv-x="1779" d="M25 844v153h135v72q0 179 75.5 254.5t243.5 75.5q105 0 187 -37v-148q-31 17 -86 17q-86 0 -119 -41t-33 -160v-33h311v72q0 180 73 255t241 75q94 0 176 -37v-148q-31 17 -86 17q-85 0 -114 -41t-23 -160v-33h376q141 0 240 21v-811q0 -31 7.5 -42t25.5 -11h86v-154 h-522v154h92q18 0 25 11t7 42v555q0 47 -9.5 64.5t-35.5 17.5h-288v-637q0 -33 9 -43t28 -10h104v-154h-533v154h87q19 0 26.5 10t7.5 43v637h-307v-637q0 -33 8 -43t27 -10h96v-154h-528v154h90q19 0 27 10t8 43v637h-135zM1309 1237q0 71 48 119.5t124 48.5q74 0 123 -49 t49 -119t-49 -119t-123 -49q-76 0 -124 48.5t-48 119.5z" />
<glyph unicode="&#xfb04;" horiz-adv-x="1779" d="M25 844v153h135v72q0 179 75.5 254.5t243.5 75.5q105 0 187 -37v-148q-31 17 -86 17q-86 0 -119 -41t-33 -160v-33h311v52q0 105 19.5 172.5t65.5 107t113.5 55t172.5 15.5q17 0 98 -7.5t138 -15.5h274v-1169q0 -33 8 -43t27 -10h80v-154h-516v154h92q17 0 24.5 10 t7.5 43v952q0 41 -12 58.5t-49 17.5h-88q-80 0 -119 -17t-56.5 -64.5t-17.5 -143.5v-13h193v-153h-184v-637q0 -33 9 -43t28 -10h104v-154h-533v154h87q19 0 26.5 10t7.5 43v637h-307v-637q0 -33 8 -43t27 -10h96v-154h-528v154h90q19 0 27 10t8 43v637h-135z" />
<glyph horiz-adv-x="0" />
<glyph horiz-adv-x="682" />
<glyph unicode=" "  horiz-adv-x="481" />
<glyph unicode="&#x09;" horiz-adv-x="481" />
<glyph unicode="&#xa0;" horiz-adv-x="481" />
<glyph unicode="!" horiz-adv-x="475" d="M72 133q0 70 46.5 115t117.5 45q72 0 118.5 -45t46.5 -115q0 -69 -46.5 -114.5t-118.5 -45.5t-118 45.5t-46 114.5zM98 1014v346h287v-346q0 -85 -15.5 -187.5t-47 -251t-35.5 -172.5h-90q-5 28 -36.5 173.5t-47 249.5t-15.5 188z" />
<glyph unicode="&#x22;" horiz-adv-x="770" d="M76 1223v137h248v-137q0 -29 -6.5 -72.5t-19.5 -100.5t-22 -93t-25.5 -97t-17.5 -65h-65q-2 9 -17.5 65.5t-25.5 95.5t-23 94t-19.5 99.5t-6.5 73.5zM446 1223v137h248v-137q0 -25 -5.5 -63t-12.5 -73t-19 -85.5t-19 -78.5t-19.5 -74.5t-14.5 -53.5h-65q-93 327 -93 428z " />
<glyph unicode="#" horiz-adv-x="1216" d="M41 328v194h207l112 316h-196v194h266l119 328h147l-118 -328h311l119 328h147l-119 -328h140v-194h-209l-113 -316h199v-194h-269l-116 -328h-148l117 328h-311l-117 -328h-148l117 328h-137zM395 522h312l112 316h-311z" />
<glyph unicode="$" horiz-adv-x="1116" d="M37 352q0 90 46 139.5t126 49.5q64 0 103.5 -36t39.5 -93t-31 -94t-88 -46q62 -53 189 -73v415q-59 14 -105 29.5t-95 42.5t-81 61t-52.5 86t-20.5 117q0 145 96 245t258 134v141h96v-127q30 3 64 3q7 0 20.5 -1.5t20.5 -1.5v127h96v-133q166 -23 257 -99t91 -191 q0 -86 -46 -135.5t-126 -49.5q-64 0 -103.5 36t-39.5 93q0 56 29 91.5t83 45.5q-54 39 -145 56v-391q59 -15 107.5 -33t96.5 -47.5t81.5 -65.5t54 -87.5t20.5 -113.5q0 -163 -94 -263t-266 -130v-168h-96v156h-105v-156h-96v164q-182 25 -283.5 104t-101.5 199zM184 367 q0 -19 11 -45q-2 9 -11 45zM285 1008q0 -66 35.5 -102.5t101.5 -55.5v326q-66 -23 -101.5 -66.5t-35.5 -101.5zM518 188h43q42 0 62 2v385q-96 18 -105 19v-406zM518 829q59 -8 92 -14q4 -2 13 -2v383q-9 0 -26.5 1t-25.5 1q-37 0 -53 -2v-367zM719 209q137 42 137 172 q0 70 -35 109t-102 61v-342zM907 1077l13 -45q-4 31 -13 45z" />
<glyph unicode="%" horiz-adv-x="1484" d="M35 1053q0 148 97 240.5t257 92.5q154 0 249 -93t95 -240q0 -149 -97.5 -242.5t-254.5 -93.5q-156 0 -251 93t-95 243zM143 0l531 717l469 643h192l-477 -645l-520 -715h-195zM242 1028q0 -100 32 -142t107 -42t109 43t34 141v47q0 98 -32.5 141.5t-106.5 43.5 q-75 0 -109 -43.5t-34 -141.5v-47zM752 309q0 147 97.5 240.5t256.5 93.5q155 0 249.5 -93t94.5 -241q0 -149 -97.5 -242.5t-254.5 -93.5q-156 0 -251 93.5t-95 242.5zM958 285q0 -98 33.5 -141.5t108.5 -43.5t109 44t34 141v47q0 100 -32 142t-107 42q-77 0 -111.5 -43 t-34.5 -141v-47z" />
<glyph unicode="&#x26;" horiz-adv-x="1607" d="M55 385q0 83 28.5 152t79.5 118.5t115.5 84.5t143.5 57q-88 138 -88 256q0 150 109.5 246t301.5 96q161 0 256 -85t95 -220q0 -253 -342 -328q6 -9 20.5 -26t20.5 -25l198 -273q5 -7 15 -21.5t14 -21.5q109 127 168 264h-154v154h504v-154h-149q-121 -217 -273 -389 q45 -51 82.5 -73.5t81.5 -22.5q58 0 76 25t18 84v67h164v-92q0 -149 -70 -217t-223 -68q-88 0 -161.5 33t-151.5 111q-207 -144 -399 -144q-236 0 -358 113.5t-122 298.5zM299 414q0 -121 76.5 -194t202.5 -73q125 0 253 86q-28 34 -88 117l-161 221q-15 20 -31 41.5t-34 46 t-28 37.5q-190 -96 -190 -282zM590 1083q0 -56 21 -106t65 -113q117 29 175 80.5t58 142.5q0 73 -40.5 118.5t-114.5 45.5q-77 0 -120.5 -46.5t-43.5 -121.5z" />
<glyph unicode="'" horiz-adv-x="401" d="M76 1223v137h248v-137q0 -29 -6.5 -72.5t-19.5 -100.5t-22 -93t-25.5 -97t-17.5 -65h-65q-2 9 -17.5 65.5t-25.5 95.5t-23 94t-19.5 99.5t-6.5 73.5z" />
<glyph unicode="(" horiz-adv-x="772" d="M55 498v20q0 172 40.5 317.5t120 259t207.5 183t294 82.5h31v-152l-17 -2q-178 -26 -281.5 -193.5t-103.5 -473.5v-60q0 -308 104.5 -480t280.5 -198l17 -2v-151h-31q-133 10 -242 58t-186.5 125t-130.5 181t-78 226t-25 260z" />
<glyph unicode=")" horiz-adv-x="772" d="M25 -201l16 2q177 26 281 197.5t104 480.5v60q0 306 -103 473.5t-282 193.5l-16 2v152h30q166 -13 294 -82.5t207 -183t119 -259t40 -317.5v-20q0 -174 -40 -320.5t-119.5 -261.5t-207 -185t-293.5 -83h-30v151z" />
<glyph unicode="*" horiz-adv-x="753" d="M41 911l225 107l-223 102l78 135l205 -143l-25 248h156l-23 -248l199 143l78 -135l-226 -102l228 -107l-76 -133l-203 144l23 -248h-156l25 250l-209 -146z" />
<glyph unicode="+" horiz-adv-x="980" d="M76 410v184h317v321h195v-321h317v-184h-317v-322h-195v322h-317z" />
<glyph unicode="," horiz-adv-x="454" d="M35 -66q36 -12 80 -12q128 0 137 113q-24 -12 -64 -12q-62 0 -99.5 35t-37.5 96q0 64 45.5 104.5t116.5 40.5q86 0 145.5 -63.5t59.5 -163.5q0 -128 -77.5 -206.5t-205.5 -78.5q-46 0 -100 14v133z" />
<glyph unicode="-" horiz-adv-x="591" d="M41 403v195h520v-195h-520z" />
<glyph unicode="." horiz-adv-x="454" d="M59 137q0 71 46.5 116.5t121.5 45.5q73 0 120.5 -45.5t47.5 -116.5q0 -72 -47 -118t-121 -46q-75 0 -121.5 46t-46.5 118z" />
<glyph unicode="/" horiz-adv-x="800" d="M20 0l570 1360h190l-569 -1360h-191z" />
<glyph unicode="0" horiz-adv-x="1294" d="M51 680q0 335 159.5 520.5t448.5 185.5q280 0 432 -184t152 -522q0 -337 -157 -522t-443 -185q-284 0 -438 183.5t-154 523.5zM348 604q0 -238 72 -348.5t227 -110.5q157 0 231 112t74 347v154q0 237 -71.5 348t-225.5 111q-158 0 -232.5 -111.5t-74.5 -347.5v-154z" />
<glyph unicode="1" horiz-adv-x="897" d="M82 881v204h55q135 0 190 58.5t93 222.5h215v-1159q0 -32 8 -42.5t27 -10.5h172v-154h-709v154h191q19 0 26.5 10.5t7.5 42.5v790q-98 -116 -245 -116h-31z" />
<glyph unicode="2" horiz-adv-x="1175" d="M41 0l12 78q15 94 51 173.5t84 136t106 104t119 83t120.5 68t112 65t92.5 67.5t63.5 81.5t23.5 101.5q0 121 -76.5 193t-205.5 72q-169 0 -267 -101q78 -9 122 -54t44 -112q0 -76 -49.5 -123t-130.5 -47q-87 0 -143 61.5t-56 160.5q0 165 145.5 271.5t360.5 106.5 q258 0 406.5 -116t148.5 -314q0 -103 -35 -179t-95 -122.5t-134.5 -81t-160.5 -65.5t-166 -65t-157 -90.5t-128 -131.5h583q44 0 61 13.5t23 50.5l27 145h160v-430h-1061z" />
<glyph unicode="3" horiz-adv-x="1153" d="M37 309q0 99 56 159t147 60q68 0 115.5 -42.5t47.5 -106.5q0 -63 -44 -109.5t-109 -52.5q83 -80 285 -80q136 0 206 61.5t70 180.5v12q0 113 -62.5 168t-203.5 55q-45 0 -115 -10v191q49 -11 121 -11q117 0 184.5 55.5t67.5 147.5v12q0 108 -67.5 165t-186.5 57 q-214 0 -281 -82q64 -6 107 -50t43 -104q0 -64 -45 -105.5t-119 -41.5q-87 0 -139 53t-52 149q0 109 68 189.5t176 118.5t240 38q280 0 412.5 -89.5t132.5 -272.5q0 -110 -78.5 -186.5t-218.5 -98.5q315 -78 315 -356q0 -192 -151 -301t-424 -109q-237 0 -367.5 83.5 t-130.5 252.5zM207 324q0 -38 16 -70zM238 1042l6 45q-6 -21 -6 -45z" />
<glyph unicode="4" horiz-adv-x="1202" d="M25 379v158l608 823h358l-801 -817h490v223q40 0 82.5 17.5t74.5 43t58.5 51t40.5 42.5l14 18v-395h209v-164h-209v-166q0 -36 8.5 -47.5t30.5 -11.5h109v-154h-566v154h103q22 0 30.5 11.5t8.5 47.5v166h-649z" />
<glyph unicode="5" horiz-adv-x="1134" d="M45 317q0 97 52.5 156t138.5 59q69 0 111 -38.5t42 -100.5q0 -64 -41 -103.5t-112 -47.5q77 -103 286 -103q141 0 214 83t73 237v22q0 142 -61.5 208.5t-192.5 66.5q-126 0 -190.5 -48t-81.5 -124h-179l72 776h905q-32 -129 -104 -177t-223 -48h-416l-51 -336 q121 127 348 127q220 0 339.5 -114t119.5 -327q0 -241 -150 -376.5t-422 -135.5q-209 0 -343 95t-134 249z" />
<glyph unicode="6" horiz-adv-x="1212" d="M53 680q0 337 163.5 521.5t473.5 184.5q217 0 336 -78t119 -231q0 -94 -49.5 -144t-143.5 -50q-67 0 -109 41t-42 106q0 43 30.5 82.5t79.5 56.5q-72 41 -200 41q-201 0 -288 -114t-87 -371q0 -51 6 -104q34 111 130.5 173t238.5 62q219 0 339.5 -113.5t120.5 -312.5 q0 -212 -140 -334.5t-392 -122.5q-285 0 -435.5 184t-150.5 523zM369 399q0 -119 68.5 -188.5t191.5 -69.5q127 0 195.5 68.5t68.5 191.5v27q0 122 -67 191t-191 69q-123 0 -194.5 -71t-71.5 -191v-27zM983 1077l8 -37q-4 26 -8 37z" />
<glyph unicode="7" horiz-adv-x="1107" d="M41 885v475h190q101 0 188 -21.5t147.5 -53t112 -63.5t103 -57t97.5 -30l-27 225h231l-4 -115q-4 -87 -28.5 -165t-67 -147t-95 -136.5t-118.5 -149.5t-131 -169.5t-139.5 -213t-137.5 -264.5h-139l10 59q20 147 66 273.5t94 209t133 172.5t138 134.5t154 124.5 q19 15 28 22q-55 -12 -113 -12q-74 0 -144.5 15.5t-141 49t-116 59.5t-116.5 71v-293h-174zM1016 1184q2 2 2 8z" />
<glyph unicode="8" horiz-adv-x="1177" d="M43 340q0 109 76.5 190t212.5 121q-123 43 -192.5 121t-69.5 215q0 189 136.5 294t385.5 105q258 0 381 -85.5t123 -264.5q0 -106 -68 -180t-197 -111q67 -21 118.5 -49.5t96.5 -70.5t69 -103t24 -137q0 -195 -146.5 -303.5t-410.5 -108.5q-539 0 -539 367zM299 356 q0 -103 74.5 -160t206.5 -57q131 0 205.5 56.5t74.5 156.5q0 47 -19 85t-49.5 63.5t-80.5 46.5t-98.5 34t-116.5 27q-96 -39 -146.5 -104.5t-50.5 -147.5zM342 1024q0 -54 24 -94.5t72.5 -67.5t100.5 -44.5t129 -33.5q180 70 180 238q0 101 -63 153t-185 52 q-126 0 -192 -51.5t-66 -151.5z" />
<glyph unicode="9" horiz-adv-x="1232" d="M61 918q0 216 142 342t395 126q286 0 433 -183t147 -523q0 -338 -161.5 -522.5t-467.5 -184.5q-226 0 -346.5 78t-120.5 225q0 92 49.5 143.5t140.5 51.5q69 0 111.5 -44t42.5 -110q0 -44 -28 -81t-74 -54q82 -39 225 -39q181 0 263.5 110.5t82.5 352.5q0 50 -6 111 q-32 -108 -124.5 -171t-234.5 -63q-224 0 -346.5 116.5t-122.5 318.5zM238 307q0 -30 8 -49zM340 918q0 -124 67 -195.5t191 -71.5q123 0 194.5 73.5t71.5 193.5v36q0 119 -69 192t-191 73q-127 0 -195.5 -71.5t-68.5 -193.5v-36z" />
<glyph unicode=":" horiz-adv-x="454" d="M59 137q0 71 46.5 116.5t121.5 45.5q73 0 120.5 -45.5t47.5 -116.5q0 -72 -47 -118t-121 -46q-75 0 -121.5 46t-46.5 118zM59 762q0 72 46.5 117t121.5 45q74 0 121 -45t47 -117t-47 -117t-121 -45q-75 0 -121.5 45t-46.5 117z" />
<glyph unicode=";" horiz-adv-x="454" d="M35 -66q36 -12 80 -12q128 0 137 113q-24 -12 -64 -12q-62 0 -99.5 35t-37.5 96q0 64 45.5 104.5t116.5 40.5q86 0 145.5 -63.5t59.5 -163.5q0 -128 -77.5 -206.5t-205.5 -78.5q-46 0 -100 14v133zM59 762q0 72 46.5 117t121.5 45q74 0 121 -45t47 -117t-47 -117 t-121 -45q-75 0 -121.5 45t-46.5 117z" />
<glyph unicode="&#x3c;" horiz-adv-x="978" d="M90 446v111l797 391v-203l-504 -243l504 -244v-203z" />
<glyph unicode="=" horiz-adv-x="980" d="M61 225v174h859v-174h-859zM61 604v174h859v-174h-859z" />
<glyph unicode="&#x3e;" horiz-adv-x="978" d="M98 55v203l502 244l-502 243v203l795 -391v-111z" />
<glyph unicode="?" horiz-adv-x="1028" d="M39 997q0 179 128.5 284t350.5 105q230 0 361 -104t131 -274q0 -74 -21 -131.5t-57 -96t-80 -70t-94.5 -61t-96 -61t-88 -79t-67.5 -106.5h-103l3 23q6 66 26.5 122.5t48.5 96t60 74t62.5 64.5t55.5 60.5t40.5 69t15.5 82.5q0 105 -63 162t-183 57q-170 0 -240 -114 q81 -1 129 -48t48 -114q0 -65 -50 -111t-120 -45q-87 2 -142 59t-55 156zM311 133q0 70 46.5 115t117.5 45q72 0 119 -45t47 -115q0 -69 -47 -114.5t-119 -45.5t-118 45.5t-46 114.5z" />
<glyph unicode="@" horiz-adv-x="1540" d="M61 594q0 230 95 411t272 283.5t408 102.5q108 0 205 -21t180.5 -66t144.5 -110t96 -159t35 -208q0 -216 -121 -355.5t-307 -139.5q-91 0 -150.5 36t-68.5 99q-40 -58 -97 -91.5t-122 -33.5q-102 0 -163.5 67t-61.5 173q0 110 43.5 206.5t125 157t181.5 60.5 q71 0 119 -37t67 -101l35 123h63q63 0 113 17l-100 -381q-3 -13 -8.5 -33.5t-8.5 -31t-5 -23.5t-1 -23q0 -38 24.5 -58t67.5 -20q77 0 138 56.5t92.5 143t31.5 181.5q0 116 -44 208t-119.5 149t-173 86.5t-209.5 29.5q-197 0 -349 -89.5t-233.5 -245t-81.5 -351.5 q0 -170 76 -293.5t206.5 -185t299.5 -61.5q283 0 465 182l77 -74q-104 -104 -244 -155.5t-296 -51.5q-118 0 -222.5 25t-191.5 76.5t-150 125.5t-98 176t-35 224zM582 584q0 -59 32 -95t84 -36q83 0 142 98.5t59 216.5q0 57 -31 92t-82 35q-85 0 -144.5 -94t-59.5 -217z" />
<glyph unicode="A" d="M20 0v154h101q31 0 44.5 11.5t27.5 47.5l448 1153h248l442 -1153q13 -34 28 -46.5t40 -12.5h82v-154h-580v154h94q29 0 37.5 12.5t-2.5 44.5l-94 240h-477l-88 -240q-11 -34 -2.5 -45.5t37.5 -11.5h104v-154h-490zM510 598h383l-188 516z" />
<glyph unicode="B" horiz-adv-x="1247" d="M33 0v154h102q22 0 30.5 13.5t8.5 45.5v936q0 32 -8.5 44.5t-30.5 12.5h-102v154h598q278 0 398 -79.5t120 -262.5q0 -246 -272 -307q166 -25 246.5 -108.5t80.5 -229.5q0 -195 -137 -284t-438 -89h-596zM455 154h186q145 0 204.5 52.5t59.5 180.5q0 130 -60 186t-192 56 h-198v-475zM455 762h155q126 0 186 52.5t60 168.5q0 124 -52 173.5t-181 49.5h-168v-444z" />
<glyph unicode="C" horiz-adv-x="1359" d="M49 678q0 321 174 514.5t459 193.5q141 0 239 -61t142 -178l57 213h164v-506h-235q-29 185 -111.5 270.5t-224.5 85.5q-183 0 -275 -126t-92 -369v-70q0 -243 95 -369t280 -126q173 0 272.5 89t112.5 267l186 -21q-2 -80 -25 -154t-69.5 -139.5t-112.5 -114t-161 -76.5 t-209 -28q-309 0 -487.5 187t-178.5 518z" />
<glyph unicode="D" horiz-adv-x="1402" d="M33 0v154h102q22 0 30.5 11.5t8.5 47.5v936q0 34 -8.5 45.5t-30.5 11.5h-102v154h604q359 0 537 -174.5t178 -509.5q0 -325 -184 -500.5t-545 -175.5h-590zM455 154h192q115 0 191 27.5t120.5 88t63 146t18.5 213.5v96q0 132 -17 218.5t-60.5 147.5t-117.5 88t-188 27 h-202v-1052z" />
<glyph unicode="E" horiz-adv-x="1236" d="M33 0v154h102q22 0 30.5 11.5t8.5 45.5v938q0 34 -8.5 45.5t-30.5 11.5h-102v154h1110v-340h-178l-25 123q-9 40 -34.5 51.5t-90.5 11.5h-360v-442h229q34 0 46.5 13t12.5 50v76h154v-436h-154v76q0 37 -13 53t-46 16h-229v-458h387q68 0 92.5 10t32.5 53l24 123h176 v-340h-1134z" />
<glyph unicode="F" horiz-adv-x="1189" d="M33 0v154h102q22 0 30.5 11.5t8.5 45.5v938q0 34 -8.5 45.5t-30.5 11.5h-102v154h1085v-340h-178l-22 123q-8 43 -33 53t-92 10h-338v-479h225q34 0 46.5 13.5t12.5 50.5v75h154v-436h-154v76q0 37 -13 53t-46 16h-225v-364q0 -34 8.5 -45.5t30.5 -11.5h112v-154h-573z " />
<glyph unicode="G" horiz-adv-x="1347" d="M49 678q0 322 170.5 515t454.5 193q143 0 248 -62t149 -177l57 213h164v-506h-235q-56 356 -348 356q-363 0 -363 -495v-70q0 -253 87.5 -374t271.5 -121q137 0 218 80.5t81 218.5v55h-295v153h583v-657h-123l-77 225q-47 -124 -159.5 -188t-283.5 -64q-287 0 -443.5 185 t-156.5 520z" />
<glyph unicode="H" horiz-adv-x="1490" d="M33 0v154h102q22 0 30.5 11.5t8.5 47.5v936q0 34 -8.5 45.5t-30.5 11.5h-102v154h561v-154h-100q-22 0 -30.5 -11.5t-8.5 -45.5v-381h581v381q0 34 -8.5 45.5t-30.5 11.5h-100v154h561v-154h-102q-22 0 -30.5 -11.5t-8.5 -45.5v-936q0 -36 8.5 -47.5t30.5 -11.5h102v-154 h-561v154h100q22 0 30.5 11.5t8.5 47.5v401h-581v-401q0 -36 8.5 -47.5t30.5 -11.5h100v-154h-561z" />
<glyph unicode="I" horiz-adv-x="641" d="M39 0v154h102q22 0 30.5 11.5t8.5 47.5v936q0 34 -8.5 45.5t-30.5 11.5h-102v154h563v-154h-102q-22 0 -30.5 -11.5t-8.5 -45.5v-936q0 -36 8.5 -47.5t30.5 -11.5h102v-154h-563z" />
<glyph unicode="J" horiz-adv-x="845" d="M35 27v174q32 -20 82.5 -34.5t101.5 -14.5q94 0 136 46.5t42 151.5v799q0 35 -6.5 46t-25.5 11h-111v154h561v-154h-98q-22 0 -30.5 -11.5t-8.5 -45.5v-793q0 -205 -96 -294t-306 -89q-135 0 -241 54z" />
<glyph unicode="K" horiz-adv-x="1417" d="M33 0v154h102q22 0 30.5 11.5t8.5 47.5v936q0 34 -8.5 45.5t-30.5 11.5h-102v154h565v-154h-100q-22 0 -30.5 -11.5t-8.5 -45.5v-512q66 71 183.5 196t204 216t91.5 96q21 22 16 42.5t-30 18.5h-119v154h555v-154h-76q-28 3 -46 -7t-48 -40l-320 -323l383 -633 q16 -28 31 -38.5t43 -10.5h74v-154h-606v154h106q20 0 24.5 13t-5.5 28l-265 444l-196 -213v-213q0 -36 8.5 -47.5t30.5 -11.5h100v-154h-565z" />
<glyph unicode="L" horiz-adv-x="1118" d="M33 0v154h102q22 0 30.5 11.5t8.5 47.5v936q0 34 -8.5 45.5t-30.5 11.5h-102v154h573v-154h-112q-22 0 -30.5 -11.5t-8.5 -45.5v-995h266q67 0 93.5 12t33.5 51l39 213h180v-430h-1034z" />
<glyph unicode="M" horiz-adv-x="1755" d="M33 0v154h112q22 0 30.5 11.5t8.5 47.5v936q0 34 -8.5 45.5t-30.5 11.5h-112v154h547l297 -905l321 905h524v-154h-102q-22 0 -30.5 -11.5t-8.5 -45.5v-936q0 -36 8.5 -47.5t30.5 -11.5h102v-154h-561v154h105q22 0 30.5 11.5t8.5 47.5v963l-418 -1176h-160l-375 1149 v-936q0 -36 8.5 -47.5t30.5 -11.5h111v-154h-469z" />
<glyph unicode="N" d="M39 0v154h113q22 0 30 11t8 46v938q0 35 -8 46t-30 11h-113v154h434l684 -916v705q0 34 -8.5 45.5t-30.5 11.5h-110v154h469v-154h-113q-22 0 -30.5 -11.5t-8.5 -45.5v-1151h-178l-789 1051v-838q0 -34 8.5 -45.5t30.5 -11.5h113v-154h-471z" />
<glyph unicode="O" horiz-adv-x="1462" d="M49 678q0 210 87.5 371.5t245.5 249t361 87.5q315 0 495.5 -192t180.5 -516q0 -318 -190.5 -511.5t-497.5 -193.5q-318 0 -500 191.5t-182 513.5zM344 631q0 -248 98 -364.5t293 -116.5q196 0 294.5 116.5t98.5 364.5v94q0 485 -389 485q-395 0 -395 -485v-94z" />
<glyph unicode="P" horiz-adv-x="1210" d="M33 0v154h102q22 0 30.5 11.5t8.5 47.5v936q0 34 -8.5 45.5t-30.5 11.5h-102v154h590q278 0 410 -98t132 -304q0 -215 -128.5 -311t-415.5 -96h-166v-338q0 -36 8.5 -47.5t30.5 -11.5h112v-154h-573zM455 700h172q129 0 183 59t54 197q0 136 -54 193t-183 57h-172v-506z " />
<glyph unicode="Q" horiz-adv-x="1462" d="M49 678q0 210 87.5 371.5t245.5 249t361 87.5q315 0 495.5 -192t180.5 -516q0 -272 -141.5 -455t-382.5 -233l8 -76q10 -69 41.5 -91t91.5 -22h144v-153h-273q-152 24 -226.5 89t-102.5 193l-15 60q-244 47 -379 228.5t-135 459.5zM344 631q0 -248 98 -364.5t293 -116.5 q196 0 294.5 116.5t98.5 364.5v94q0 485 -389 485q-395 0 -395 -485v-94z" />
<glyph unicode="R" horiz-adv-x="1304" d="M33 0v154h102q22 0 30.5 12t8.5 47v936q0 33 -8.5 45t-30.5 12h-102v154h676q243 0 358 -89.5t115 -281.5q0 -141 -74.5 -224t-233.5 -110q130 -40 192 -131t75 -237q6 -78 28.5 -105.5t77.5 -27.5h43v-154h-223q-222 0 -246 324q-8 142 -53 207t-164 65h-153v-383 q0 -35 8 -47t30 -12h103v-154h-559zM451 729h149q145 0 211 56.5t66 189.5q0 127 -57.5 179t-188.5 52h-180v-477z" />
<glyph unicode="S" horiz-adv-x="1163" d="M70 90v318h225v-230q110 -39 276 -39q109 0 176.5 49t67.5 142q0 31 -7.5 55t-18 42.5t-34.5 34.5t-45 27t-62 23.5t-73 20.5t-90 22q-103 24 -175 54t-128.5 75.5t-84 111t-27.5 152.5q0 207 143 322.5t399 115.5q217 0 432 -88v-337h-221v235q-105 25 -209 25 q-134 0 -205 -51t-71 -148q0 -92 64 -132.5t247 -82.5q57 -13 99.5 -25t91.5 -30.5t83.5 -38.5t69 -49.5t55 -64t33.5 -81.5t13 -102q0 -200 -142.5 -321.5t-392.5 -121.5q-277 0 -489 117z" />
<glyph unicode="T" horiz-adv-x="1325" d="M53 1024v336h1219v-336h-178l-11 121q-3 43 -31 56t-98 13h-161v-1001q0 -36 8 -47.5t30 -11.5h113v-154h-573v154h112q22 0 30.5 11.5t8.5 47.5v1001h-153q-67 0 -95.5 -13.5t-31.5 -55.5l-11 -121h-178z" />
<glyph unicode="U" horiz-adv-x="1429" d="M31 1206v154h553v-154h-103q-22 0 -30.5 -11.5t-8.5 -45.5v-672q0 -184 68.5 -254.5t253.5 -70.5q165 0 241 78t76 245v674q0 34 -8.5 45.5t-30.5 11.5h-114v154h475v-154h-105q-22 0 -30 -11t-8 -46v-690q0 -486 -549 -486q-300 0 -424.5 113t-124.5 383v680 q0 34 -8.5 45.5t-30.5 11.5h-92z" />
<glyph unicode="V" horiz-adv-x="1499" d="M37 1206v154h588v-154h-97q-30 0 -37.5 -11t3.5 -46l321 -805l305 805q9 35 0.5 46t-37.5 11h-127v154h529v-154h-113q-32 0 -47 -12t-29 -47l-458 -1149h-179l-462 1149q-12 35 -25.5 47t-40.5 12h-94z" />
<glyph unicode="W" horiz-adv-x="2144" d="M29 1206v154h571v-154h-98q-28 0 -35 -11t2 -46l233 -737l261 745q8 29 1.5 39t-30.5 10h-117v154h594v-154h-115q-30 0 -30 -26q0 -10 4 -23l268 -749l227 741q8 35 1 46t-33 11h-119v154h502v-154h-103q-32 0 -46.5 -11.5t-24.5 -47.5l-367 -1149h-178l-336 956 l-338 -956h-178l-361 1149q-12 35 -25 47t-38 12h-92z" />
<glyph unicode="X" horiz-adv-x="1417" d="M12 0v154h111q24 0 53 17t49 44l346 453l-368 479q-2 3 -8 10t-8 10t-7.5 9t-8.5 8.5t-8 7t-9.5 6.5t-10 4t-11.5 3t-13 1h-84v154h610v-154h-88q-23 0 -30.5 -17t10.5 -40l221 -311l231 307q17 26 10 43.5t-32 17.5h-127v154h555v-154h-111q-24 0 -53 -17t-49 -44 l-330 -432l387 -500q2 -3 8 -10t8 -10t7.5 -9t8.5 -8.5t8 -7t9.5 -6.5t10 -4t11.5 -3t13 -1h82v-154h-610v154h90q23 0 29.5 17t-9.5 40l-239 334l-248 -330q-18 -25 -10.5 -43t32.5 -18h127v-154h-555z" />
<glyph unicode="Y" horiz-adv-x="1382" d="M31 1206v154h602v-154h-96q-26 0 -31.5 -20.5t8.5 -42.5l244 -383l241 393q10 13 2.5 33t-26.5 20h-133v154h532v-154h-108q-27 0 -44 -11.5t-36 -41.5l-348 -541v-399q0 -36 8.5 -47.5t30.5 -11.5h112v-154h-573v154h112q22 0 30.5 11.5t8.5 47.5v367l-379 573 q-21 31 -36 42t-37 11h-84z" />
<glyph unicode="Z" horiz-adv-x="1243" d="M49 0v143l813 1065h-440q-66 0 -93 -13t-34 -52l-39 -213h-160v430h1094v-143l-815 -1063h475q66 0 93.5 13t33.5 50l39 213h160v-430h-1127z" />
<glyph unicode="[" horiz-adv-x="673" d="M96 -352v1712h543v-154h-223q-33 0 -44.5 -16.5t-11.5 -65.5v-1241q0 -49 11.5 -65.5t44.5 -16.5h223v-153h-543z" />
<glyph unicode="\" horiz-adv-x="800" d="M20 1360h191l569 -1360h-190z" />
<glyph unicode="]" horiz-adv-x="673" d="M35 -199h223q33 0 44 16.5t11 65.5v1241q0 49 -11 65.5t-44 16.5h-223v154h543v-1712h-543v153z" />
<glyph unicode="^" horiz-adv-x="1021" d="M244 1024l174 279h190l172 -279h-135l-133 158l-135 -158h-133z" />
<glyph unicode="_" horiz-adv-x="649" d="M0 -31h649v-153h-649v153z" />
<glyph unicode="`" horiz-adv-x="1021" d="M242 1266v94h254l184 -285h-117z" />
<glyph unicode="a" horiz-adv-x="1130" d="M51 236q0 62 20 111.5t61.5 87t95 66.5t133 52t161.5 39.5t193 32.5v57q0 99 -51.5 142.5t-161.5 43.5q-78 0 -131 -16q39 -45 39 -111t-45.5 -107.5t-114.5 -41.5q-79 0 -124.5 43t-45.5 121q0 58 24.5 103.5t67 76t102.5 50.5t128.5 29t148.5 9q233 0 336.5 -78 t103.5 -260v-479q0 -29 7 -41t26 -12h86v-154h-332q-40 66 -61 170q-39 -84 -141 -140.5t-224 -56.5q-138 0 -219.5 75t-81.5 188zM319 283q0 -64 39 -102t105 -38q114 0 182 78t70 205v78q-100 -14 -167.5 -30.5t-122 -41.5t-80.5 -62t-26 -87z" />
<glyph unicode="b" horiz-adv-x="1239" d="M6 1206v154h164q152 0 242 20v-571q47 103 135 159t213 56q200 0 318 -142.5t118 -381.5q0 -238 -122 -382.5t-326 -144.5q-147 0 -248 68t-144 190l-75 -231h-156q10 68 10 340v805q0 36 -7.5 48.5t-27.5 12.5h-94zM412 483q0 -162 67.5 -249t179.5 -87q116 0 183 86.5 t67 249.5v31q0 163 -67 249.5t-183 86.5q-113 0 -180 -86.5t-67 -249.5v-31z" />
<glyph unicode="c" horiz-adv-x="1062" d="M39 502q0 245 145.5 383.5t403.5 138.5q214 0 336.5 -92t122.5 -248q0 -100 -56 -160.5t-145 -60.5q-70 0 -116 43t-46 108q0 62 36 105t97 55q-48 94 -213 94q-138 0 -211.5 -87.5t-73.5 -254.5v-32q0 -173 69 -264t206 -91q109 0 177.5 47.5t105.5 147.5l153 -72 q-106 -289 -446 -289q-263 0 -404 138.5t-141 390.5z" />
<glyph unicode="d" horiz-adv-x="1245" d="M41 500q0 236 123 380t323 144q249 0 338 -201v322q0 37 -7 49t-27 12h-97v154h170q148 0 238 20v-1173q0 -33 8 -43t27 -10h86v-154h-367q-6 40 -14 195q-44 -106 -132.5 -164t-220.5 -58q-204 0 -326 144.5t-122 382.5zM328 483q0 -163 67 -249.5t183 -86.5 q113 0 180 86.5t67 249.5v31q0 162 -67.5 249t-179.5 87q-116 0 -183 -86.5t-67 -249.5v-31z" />
<glyph unicode="e" horiz-adv-x="1085" d="M39 500q0 233 144 378.5t374 145.5q235 0 362.5 -138.5t127.5 -387.5v-52h-725q5 -144 76.5 -226.5t207.5 -82.5q196 0 271 193l155 -70q-45 -130 -155 -208.5t-293 -78.5q-264 0 -404.5 144.5t-140.5 382.5zM317 586h451q-3 151 -52 215.5t-159 64.5q-111 0 -171 -67.5 t-69 -212.5z" />
<glyph unicode="f" horiz-adv-x="645" d="M25 844v153h135v72q0 180 73 255t242 75q55 0 102.5 -11.5t71.5 -25.5v-150q-30 19 -86 19q-83 0 -112 -41q-24 -34 -24 -121q0 -19 1 -39v-33h182v-153h-178v-637q0 -33 8 -43t27 -10h106v-154h-538v154h90q19 0 27 10t8 43v637h-135z" />
<glyph unicode="g" horiz-adv-x="1163" d="M10 -215q0 146 264 195q-215 38 -215 206q0 72 48 125t137 78q-156 89 -156 277q0 160 135 259t344 99q185 0 314 -80q16 104 66.5 162.5t135.5 58.5q63 0 103.5 -37t40.5 -94q0 -55 -34 -92t-85 -37q-84 0 -109 76q-36 -32 -53 -90q90 -93 90 -223q0 -164 -130 -256.5 t-351 -92.5q-132 0 -223 29q-64 -14 -64 -65q0 -41 29 -57.5t102 -16.5q47 0 222 2t215 2q164 0 239.5 -75.5t75.5 -207.5q0 -171 -154 -261.5t-446 -90.5q-286 0 -413.5 51t-127.5 156zM227 -195q0 -59 80 -85.5t254 -26.5q381 0 381 153q0 62 -40 84.5t-146 22.5h-391 q-138 -41 -138 -148zM367 651q0 -98 49 -150t141 -52q95 0 146 53t51 151v29q0 209 -191 209q-196 0 -196 -211v-29z" />
<glyph unicode="h" horiz-adv-x="1220" d="M14 1206v154h170q148 0 238 20v-553q93 197 334 197q323 0 323 -369v-448q0 -33 8 -43t27 -10h90v-154h-516v154h80q19 0 27 10t8 43v436q0 105 -39 153t-125 48q-104 0 -160.5 -83.5t-56.5 -246.5v-307q0 -33 8 -43t27 -10h80v-154h-517v154h91q19 0 26.5 10t7.5 43v938 q0 37 -7 49t-27 12h-97z" />
<glyph unicode="i" horiz-adv-x="591" d="M33 0v154h92q18 0 25.5 11t7.5 42v555q0 47 -9.5 64.5t-35.5 17.5h-80v153h164q140 0 239 21v-811q0 -31 7.5 -42t25.5 -11h86v-154h-522zM123 1257q0 71 48 119.5t124 48.5q74 0 123 -49t49 -119t-49 -118.5t-123 -48.5q-76 0 -124 48t-48 119z" />
<glyph unicode="j" horiz-adv-x="550" d="M-61 -178q45 -17 86 -17q69 0 95.5 30.5t26.5 107.5l3 819q0 47 -10 64.5t-36 17.5h-77v153h161q141 0 240 21v-1051q0 -179 -74.5 -254t-244.5 -75q-109 0 -170 36v148zM115 1257q0 71 48 119.5t124 48.5q74 0 123 -49t49 -119t-49 -118.5t-123 -48.5q-76 0 -124 48 t-48 119z" />
<glyph unicode="k" horiz-adv-x="1179" d="M14 1206v154h170q148 0 238 20v-891l319 310q13 9 9 28t-29 19h-105v151h523v-151h-72q-53 0 -96 -37l-203 -182l285 -434q23 -39 59 -39h59v-154h-509v154h71q21 0 23 15.5t-8 27.5l-173 264l-153 -148v-106q0 -33 8 -43t27 -10h80v-154h-517v154h91q19 0 26.5 10 t7.5 43v938q0 37 -7 49t-27 12h-97z" />
<glyph unicode="l" horiz-adv-x="593" d="M29 1206v154h168q145 0 239 20v-1173q0 -33 8 -43t25 -10h82v-154h-518v154h92q17 0 25 10t8 43v938q0 36 -7 48.5t-26 12.5h-96z" />
<glyph unicode="m" horiz-adv-x="1832" d="M31 0v154h90q19 0 27 10t8 43v575q0 37 -7.5 49.5t-27.5 12.5h-90v153h159q143 0 238 21v-197q95 203 311 203q245 0 297 -227q82 227 328 227q165 0 247.5 -95t82.5 -294v-428q0 -33 8 -43t27 -10h90v-154h-512v154h75q19 0 27 10t8 43v411q0 115 -39.5 168.5 t-124.5 53.5q-190 0 -190 -291v-342q0 -33 8 -43t27 -10h86v-154h-508v154h76q19 0 26.5 10t7.5 43v430q0 203 -163 203q-191 0 -191 -291v-342q0 -33 8 -43t27 -10h80v-154h-516z" />
<glyph unicode="n" horiz-adv-x="1230" d="M31 0v154h90q19 0 27 10t8 43v575q0 37 -7.5 49.5t-27.5 12.5h-90v153h159q143 0 238 21v-199q94 205 338 205q159 0 241.5 -93.5t82.5 -279.5v-444q0 -33 7.5 -43t26.5 -10h90v-154h-516v154h80q19 0 27 10t8 43v438q0 104 -39.5 151.5t-124.5 47.5q-105 0 -161 -81 t-56 -245v-311q0 -33 8 -43t27 -10h80v-154h-516z" />
<glyph unicode="o" horiz-adv-x="1140" d="M39 500q0 234 147.5 379t388.5 145q235 0 380 -144.5t145 -379.5t-147 -381t-386 -146q-237 0 -382.5 145.5t-145.5 381.5zM317 485q0 -180 61 -264t191 -84t192 84.5t62 263.5v27q0 180 -61.5 264t-190.5 84q-131 0 -192.5 -84t-61.5 -264v-27z" />
<glyph unicode="p" horiz-adv-x="1249" d="M14 844v153h166q144 0 238 21v-223q45 109 134.5 169t217.5 60q200 0 318 -142.5t118 -381.5q0 -238 -122 -382.5t-326 -144.5q-243 0 -336 211v-329q0 -33 8 -43.5t27 -10.5h90v-153h-527v153h91q19 0 26.5 10.5t7.5 43.5v927q0 37 -7 49.5t-27 12.5h-97zM422 483 q0 -161 67.5 -246t180.5 -85q117 0 183.5 84.5t66.5 246.5v31q0 162 -66.5 247t-183.5 85q-114 0 -181 -84.5t-67 -247.5v-31z" />
<glyph unicode="q" horiz-adv-x="1239" d="M41 500q0 236 123 380t323 144q123 0 210.5 -54.5t133.5 -158.5v186h105q101 0 166 21v-1163q0 -33 8 -43.5t27 -10.5h90v-153h-527v153h91q19 0 26.5 10.5t7.5 43.5v329q-50 -102 -136.5 -156.5t-199.5 -54.5q-204 0 -326 144.5t-122 382.5zM328 483q0 -162 66.5 -246.5 t183.5 -84.5q114 0 180.5 84t66.5 247v31q0 161 -67.5 246.5t-179.5 85.5q-117 0 -183.5 -85t-66.5 -247v-31z" />
<glyph unicode="r" horiz-adv-x="960" d="M31 844v153h166q140 0 239 21v-219q34 115 105.5 170t165.5 55q110 0 174.5 -65.5t64.5 -176.5q0 -97 -53 -156t-141 -59q-57 0 -98.5 40t-41.5 95q0 43 27.5 81t71.5 51q-23 20 -68 20q-100 0 -152.5 -87.5t-52.5 -246.5v-313q0 -33 8 -43t27 -10h96v-154h-532v154h90 q19 0 27 10t8 43v575q0 37 -7.5 49.5t-27.5 12.5h-96z" />
<glyph unicode="s" horiz-adv-x="923" d="M41 698q0 149 116 237.5t326 88.5q99 0 205 -25t168 -55v-264h-209v172q-19 9 -66 17t-89 8q-92 0 -143.5 -33.5t-51.5 -93.5q0 -34 15 -57t46.5 -37t64 -22t84.5 -18q5 -1 8 -1.5t7 -1t8 -1.5q63 -12 107 -24t95.5 -36t82.5 -54t52.5 -79t21.5 -112q0 -153 -120 -243.5 t-331 -90.5q-187 0 -393 82v269h209v-185q65 -20 180 -20q199 0 199 133q0 29 -12.5 51t-31 36t-52.5 26t-63 18.5t-77 15.5q-62 12 -106 23.5t-94.5 34.5t-82 53t-52.5 78t-21 110z" />
<glyph unicode="t" horiz-adv-x="667" d="M4 844v137q5 0 13.5 1t26.5 2t29 2t9 1q56 10 86.5 35t36.5 78l20 180h191v-283h198v-153h-204v-555q0 -80 30 -113t97 -33q41 0 94 17v-158q-88 -27 -178 -27q-169 0 -241.5 71.5t-72.5 238.5v559h-135z" />
<glyph unicode="u" horiz-adv-x="1214" d="M10 844v153h404v-653q0 -105 41 -149.5t123 -44.5q102 0 156 76.5t54 219.5v345q0 33 -7.5 43t-26.5 10h-101v153h412v-782q0 -36 7.5 -48.5t27.5 -12.5h96v-154h-168q-146 0 -240 -20v182q-95 -189 -327 -189q-326 0 -326 365v453q0 33 -8 43t-25 10h-92z" />
<glyph unicode="v" horiz-adv-x="1173" d="M14 844v153h533v-153h-82q-27 0 -37 -15.5t0 -44.5q33 -95 213 -501l213 497q10 25 -1 44.5t-36 19.5h-92v153h446v-153h-75q-52 0 -74 -53l-352 -803h-168l-355 803q-11 32 -23 42.5t-32 10.5h-78z" />
<glyph unicode="w" horiz-adv-x="1691" d="M10 844v153h500v-153h-64q-25 0 -34.5 -15.5t0.5 -44.5q21 -67 161 -473q157 421 172 473q10 28 0 44t-34 16h-56v153h488v-153h-62q-25 0 -34.5 -15.5t0.5 -44.5q11 -35 188 -477q21 65 61 183.5t67 197.5t30 92q4 15 4 27q0 37 -39 37h-70v153h393v-153h-63 q-21 0 -31 -9.5t-22 -43.5l-285 -803h-186l-242 645l-248 -645h-186l-289 803q-12 33 -22.5 43t-30.5 10h-66z" />
<glyph unicode="x" horiz-adv-x="1161" d="M16 0v154h78q7 0 13 1.5t10 3t10.5 7t9 8t12 13t13.5 14.5l266 297l-256 299q-21 25 -36 36t-32 11h-63v153h551v-153h-80q-15 0 -21.5 -9.5t9.5 -35.5l137 -183l156 183q12 15 7 30t-22 15h-73v153h434v-153h-90q-7 0 -13 -1.5t-10 -3t-10.5 -7t-9 -8t-12 -13 t-13.5 -14.5l-246 -275l271 -317q18 -21 24 -27.5t18.5 -15t24.5 -8.5h62v-154h-551v154h80q18 0 25 11t-9 34l-158 204l-172 -204q-12 -13 -7 -29t22 -16h73v-154h-422z" />
<glyph unicode="y" horiz-adv-x="1163" d="M-10 -168q0 82 46 130t124 48q95 0 130 -70q14 -27 14 -58q0 -48 -32 -103q73 6 125 60t99 173v6l-357 773q-15 33 -25.5 43t-31.5 10h-68v153h529v-153h-78q-27 0 -35.5 -17.5t2.5 -42.5l219 -483l197 479q11 34 0 49t-39 15h-82v153h428v-153h-80q-25 0 -36.5 -9.5 t-24.5 -43.5l-330 -791q-59 -139 -113 -217.5t-131 -121t-184 -42.5q-120 0 -193 56t-73 157zM156 -139q0 -30 19.5 -52t55.5 -28z" />
<glyph unicode="z" horiz-adv-x="1026" d="M43 0v135l608 725h-258q-66 0 -92 -11.5t-33 -51.5l-28 -160h-164v360h887v-135l-609 -725h287q66 0 92 11.5t33 52.5l29 159h163v-360h-915z" />
<glyph unicode="{" horiz-adv-x="741" d="M8 426v156h25q84 0 118.5 45.5t34.5 150.5v174q0 195 94 296t298 110l129 2v-154l-41 -2q-115 -8 -160 -63.5t-45 -196.5v-158q0 -118 -42.5 -186.5t-146.5 -95.5q105 -28 147 -96.5t42 -186.5v-172q0 -95 20.5 -147t63 -74t121.5 -25l41 -2v-153l-129 2 q-204 6 -298 100.5t-94 286.5v192q0 106 -34.5 151.5t-118.5 45.5h-25z" />
<glyph unicode="|" horiz-adv-x="419" d="M82 -352v1712h256v-1712h-256z" />
<glyph unicode="}" horiz-adv-x="741" d="M33 -199l41 2q118 5 161.5 55.5t43.5 190.5v172q0 118 42 186.5t146 96.5q-104 27 -146 95t-42 187v158q0 142 -44.5 197t-160.5 63l-41 2v154l131 -2q202 -9 295.5 -110t93.5 -296v-174q0 -105 35 -150.5t119 -45.5h26v-156h-26q-84 0 -119 -46t-35 -151v-192 q0 -193 -93 -287t-296 -100l-131 -2v153z" />
<glyph unicode="~" horiz-adv-x="901" d="M139 362l8 68q9 93 47.5 136.5t112.5 43.5q53 0 106.5 -26.5t96 -53t68.5 -26.5q22 0 33 12.5t16 40.5l8 43h127l-8 -68q-11 -96 -49 -140t-111 -44q-42 0 -85 17t-72 37.5t-60.5 37.5t-52.5 17q-46 0 -52 -54l-6 -41h-127z" />
<glyph unicode="&#xa1;" horiz-adv-x="475" d="M74 1227q0 69 47 114t119 45t117.5 -45t45.5 -114q0 -70 -46 -115t-117 -45q-72 0 -119 45t-47 115zM90 0v346q0 85 15.5 187.5t46.5 250t36 172.5h91q5 -25 36 -172.5t46.5 -250t15.5 -187.5v-346h-287z" />
<glyph unicode="&#xa2;" horiz-adv-x="1075" d="M39 535q0 227 134.5 365t367.5 155v188h110v-188q191 -10 299.5 -102.5t108.5 -239.5q0 -100 -56 -160.5t-145 -60.5q-70 0 -116 43t-46 108q0 64 40 107.5t106 52.5q-47 87 -191 96v-725q172 17 238 193l153 -72q-98 -266 -391 -287v-201h-110v199q-239 15 -370.5 153 t-131.5 376zM319 526q0 -150 57 -239t165 -109v715q-108 -22 -165 -107t-57 -227v-33z" />
<glyph unicode="&#xa3;" horiz-adv-x="1200" d="M18 164q0 87 66.5 147t169.5 60q70 0 141 -19q-14 69 -76 162h-264v133h174q-100 158 -100 297q0 209 144 325.5t403 116.5q224 0 351.5 -106.5t127.5 -296.5q0 -101 -49 -162t-131 -63q-72 -2 -121 39.5t-49 105.5q0 60 43.5 108t120.5 52q-30 69 -97 113.5t-176 44.5 q-132 0 -204 -75t-72 -208q0 -110 65 -291h349v-133h-304q29 -103 29 -182q0 -23 -2 -35q15 -6 78 -32t86.5 -34.5t68 -19t80.5 -10.5q73 0 102 27t29 100v63h168v-137q0 -146 -61.5 -213.5t-192.5 -67.5q-60 0 -115.5 13t-112 41.5t-88.5 48t-91 59.5q-44 -75 -117 -118.5 t-162 -43.5q-98 0 -154.5 52.5t-56.5 138.5zM119 160q0 -46 30 -71.5t87 -25.5q58 0 101 40.5t58 105.5q-85 47 -147 47q-58 0 -93.5 -27.5t-35.5 -68.5z" />
<glyph unicode="&#xa4;" horiz-adv-x="1355" d="M31 461v112h121q-5 41 -5 103v41h-116v112h127q35 260 187 408.5t382 148.5q218 0 352 -180l47 154h160v-404h-225q-80 240 -293 240q-137 0 -213.5 -90t-95.5 -277h471v-112h-475v-76q0 -48 2 -68h391v-112h-379q27 -154 107 -225.5t212 -71.5q117 0 200 72.5t112 205.5 l198 -71q-35 -185 -172 -291.5t-362 -106.5q-243 0 -397 125t-201 363h-135z" />
<glyph unicode="&#xa5;" horiz-adv-x="1325" d="M57 1206v154h570v-154h-90q-61 0 -31 -53l201 -330l198 330q26 53 -35 53h-90v154h486v-154h-80q-45 0 -80 -53l-272 -416h348v-112h-381v-164h381v-113h-381v-135q0 -36 8.5 -47.5t30.5 -11.5h116v-154h-598v154h119q22 0 30.5 11.5t8.5 47.5v135h-383v113h383v164h-383 v112h348l-266 416q-21 30 -36 41.5t-38 11.5h-84z" />
<glyph unicode="&#xa7;" horiz-adv-x="1234" d="M45 508q0 125 77.5 209t227.5 108q-125 77 -125 224q0 142 122 239.5t304 97.5q180 0 280.5 -75t100.5 -207q0 -77 -45.5 -120.5t-118.5 -43.5q-55 0 -92 38t-37 87q0 38 25.5 74t66.5 49q-39 63 -182 63q-85 0 -138.5 -47t-53.5 -114q0 -34 17.5 -61.5t38.5 -45 t70.5 -36.5t80 -28t99.5 -27q3 -1 5.5 -1.5t5.5 -1.5q55 -15 98 -29t94.5 -36t88.5 -49.5t70 -63t50 -82t17 -101.5q0 -124 -77.5 -207.5t-227.5 -107.5q123 -81 123 -223q0 -143 -118.5 -240t-297.5 -96q-186 2 -296 74t-110 204q0 77 44.5 120.5t117.5 43.5q55 0 92 -38 t37 -87q0 -34 -22 -66.5t-58 -49.5q42 -66 191 -66q86 0 138 45.5t52 114.5q0 27 -8 49.5t-33 41.5t-41 30.5t-62 27.5t-65 21.5t-80 22.5q-6 2 -9.5 3t-9 2.5t-9.5 2.5q-67 18 -117.5 35.5t-110.5 48t-98.5 66t-65 89.5t-26.5 119zM272 578q0 -27 9.5 -50.5t23 -41.5 t40 -35.5t48.5 -29t61 -26t66 -23t74 -22.5q92 -27 141 -47q106 -6 168 39t62 119q0 37 -18 67.5t-43 51.5t-73 42t-85.5 33t-102.5 31q-89 27 -141 45q-106 7 -168 -36.5t-62 -116.5z" />
<glyph unicode="&#xa8;" horiz-adv-x="1024" d="M195 1225q0 58 35 92.5t92 34.5q59 0 95 -34.5t36 -92.5t-36 -93.5t-95 -35.5q-57 0 -92 35.5t-35 93.5zM571 1225q0 58 35 92.5t94 34.5q58 0 93.5 -34.5t35.5 -92.5t-36 -93.5t-93 -35.5q-58 0 -93.5 35t-35.5 94z" />
<glyph unicode="&#xa9;" horiz-adv-x="1513" d="M45 678q0 318 196 513t517 195q210 0 371.5 -88.5t250 -249.5t88.5 -370q0 -317 -195.5 -511t-514.5 -194q-321 0 -517 194t-196 511zM156 678q0 -271 167 -438.5t435 -167.5q267 0 433.5 167.5t166.5 438.5t-167 440.5t-433 169.5q-269 0 -435.5 -168.5t-166.5 -441.5z M383 678q0 173 100 283t258 110q132 0 199 -113l43 99h96v-283h-141q-20 92 -60 133t-108 41q-98 0 -150.5 -67.5t-52.5 -194.5v-16q0 -132 57.5 -198t155.5 -66q153 0 189 155l123 -47q-59 -229 -334 -229q-174 0 -274.5 103.5t-100.5 289.5z" />
<glyph unicode="&#xaa;" horiz-adv-x="827" d="M51 838q0 27 5 51t17.5 44t25.5 36t36.5 31t43 26t53 22.5t57.5 19t66.5 17t70 15.5t76.5 16v27q0 64 -31 98.5t-109 34.5q-62 0 -98 -25q19 -22 19 -55q0 -41 -27.5 -66.5t-67.5 -25.5q-51 0 -81.5 26t-30.5 72q0 184 336 184q167 0 235 -65t68 -209v-289 q0 -20 5.5 -28.5t18.5 -8.5h56v-116h-248q-23 35 -43 116q-27 -60 -88.5 -97.5t-143.5 -37.5q-99 0 -160 51.5t-61 135.5zM250 866q0 -42 28 -67t78 -25q72 0 109 49.5t37 139.5v61q-147 -31 -199.5 -61t-52.5 -97z" />
<glyph unicode="&#xab;" horiz-adv-x="833" d="M45 449v106l344 240v-191l-151 -102l151 -105v-188zM410 449v106l368 270v-204l-166 -119l166 -119v-205z" />
<glyph unicode="&#xad;" horiz-adv-x="591" d="M41 403v195h520v-195h-520z" />
<glyph unicode="&#xae;" horiz-adv-x="1513" d="M45 678q0 318 196 513t517 195q210 0 371.5 -88.5t250 -249.5t88.5 -370q0 -317 -195.5 -511t-514.5 -194q-321 0 -517 194t-196 511zM156 678q0 -271 167 -438.5t435 -167.5q267 0 433.5 167.5t166.5 438.5t-167 440.5t-433 169.5q-269 0 -435.5 -168.5t-166.5 -441.5z M416 305v94h61q10 0 13.5 6t3.5 21v514q0 15 -3.5 21t-13.5 6h-61v94h377q280 0 280 -207q0 -143 -170 -184q82 -18 117.5 -67t38.5 -136q3 -41 12.5 -54.5t36.5 -13.5h14v-94h-116q-68 0 -98.5 47.5t-37.5 134.5q-5 73 -37.5 108.5t-115.5 35.5h-47v-205q0 -27 16 -27h62 v-94h-332zM670 715h73q87 0 121.5 30.5t34.5 98.5q0 64 -30 93.5t-105 29.5h-94v-252z" />
<glyph unicode="&#xaf;" horiz-adv-x="1024" d="M197 1135v153h624v-153h-624z" />
<glyph unicode="&#xb0;" horiz-adv-x="772" d="M47 1053q0 149 92.5 241t251.5 92q153 0 243.5 -92.5t90.5 -240.5q0 -150 -93 -243t-249 -93q-155 0 -245.5 92.5t-90.5 243.5zM242 1049q0 -207 141 -207q145 0 145 207v6q0 205 -141 205q-145 0 -145 -205v-6z" />
<glyph unicode="&#xb4;" horiz-adv-x="1024" d="M342 1077l184 283h254v-94l-321 -189h-117z" />
<glyph unicode="&#xb6;" horiz-adv-x="1282" d="M45 954q0 208 146.5 307t439.5 99h614v-154h-92q-22 0 -30.5 -11.5t-8.5 -45.5v-1149h-147v1206h-129v-1206h-148v571h-72q-286 0 -429.5 93.5t-143.5 289.5zM346 961q0 -135 60 -187.5t217 -52.5h67v485h-65q-158 0 -218.5 -53.5t-60.5 -191.5z" />
<glyph unicode="&#xb7;" horiz-adv-x="454" d="M59 500q0 71 46.5 116.5t121.5 45.5q73 0 120.5 -45.5t47.5 -116.5q0 -72 -47 -118t-121 -46q-75 0 -121.5 46t-46.5 118z" />
<glyph unicode="&#xb8;" horiz-adv-x="1024" d="M297 -342l18 90q123 -47 207 -47q111 0 111 57q0 56 -96 56q-40 0 -76 -19l-8 8v203h137l2 -98q8 2 26 2q95 0 146 -39t51 -111q0 -76 -71 -119.5t-199 -43.5q-132 0 -248 61z" />
<glyph unicode="&#xba;" horiz-adv-x="854" d="M41 1018q0 165 108.5 266.5t278.5 101.5t277.5 -101t107.5 -267q0 -165 -108.5 -266t-280.5 -101q-170 0 -276.5 101t-106.5 266zM254 1010q0 -234 172 -234t172 234v16q0 236 -172 236t-172 -236v-16z" />
<glyph unicode="&#xbb;" horiz-adv-x="833" d="M55 178v205l164 119l-164 119v204l369 -270v-106zM444 209v188l152 105l-152 102v191l344 -240v-106z" />
<glyph unicode="&#xbf;" horiz-adv-x="1028" d="M18 352q0 74 21 131.5t57 96t80 69.5t94.5 61t96 61t88 78.5t67.5 106.5h103l-2 -22q-7 -77 -33.5 -141.5t-60.5 -104.5t-72.5 -80t-70 -71.5t-52.5 -76t-21 -95.5q0 -105 63 -162.5t183 -57.5q165 0 240 113q-81 3 -128.5 50t-47.5 114q0 65 50 111t120 45 q87 -2 141.5 -59.5t54.5 -156.5q0 -179 -128.5 -284t-350.5 -105q-229 0 -360.5 104.5t-131.5 274.5zM387 1227q0 69 47 114t119 45t118 -45t46 -114q0 -70 -46.5 -115t-117.5 -45q-72 0 -119 45t-47 115z" />
<glyph unicode="&#xc0;" d="M20 0v154h101q31 0 44.5 11.5t27.5 47.5l448 1153h248l442 -1153q13 -34 28 -46.5t40 -12.5h82v-154h-580v154h94q29 0 37.5 12.5t-2.5 44.5l-94 240h-477l-88 -240q-11 -34 -2.5 -45.5t37.5 -11.5h104v-154h-490zM391 1628v94h254l184 -284h-116zM510 598h383l-188 516z " />
<glyph unicode="&#xc1;" d="M20 0v154h101q31 0 44.5 11.5t27.5 47.5l448 1153h248l442 -1153q13 -34 28 -46.5t40 -12.5h82v-154h-580v154h94q29 0 37.5 12.5t-2.5 44.5l-94 240h-477l-88 -240q-11 -34 -2.5 -45.5t37.5 -11.5h104v-154h-490zM510 598h383l-188 516zM690 1440l184 282h254v-94 l-321 -188h-117z" />
<glyph unicode="&#xc2;" d="M20 0v154h101q31 0 44.5 11.5t27.5 47.5l448 1153h248l442 -1153q13 -34 28 -46.5t40 -12.5h82v-154h-580v154h94q29 0 37.5 12.5t-2.5 44.5l-94 240h-477l-88 -240q-11 -34 -2.5 -45.5t37.5 -11.5h104v-154h-490zM489 1427l175 279h190l172 -279h-135l-133 158 l-135 -158h-134zM510 598h383l-188 516z" />
<glyph unicode="&#xc3;" d="M20 0v154h101q31 0 44.5 11.5t27.5 47.5l448 1153h248l442 -1153q13 -34 28 -46.5t40 -12.5h82v-154h-580v154h94q29 0 37.5 12.5t-2.5 44.5l-94 240h-477l-88 -240q-11 -34 -2.5 -45.5t37.5 -11.5h104v-154h-490zM446 1448l9 68q9 94 47 137t112 43q53 0 106.5 -27 t96 -53.5t68.5 -26.5q22 0 33 12.5t16 40.5l8 44h127l-8 -68q-11 -96 -49 -140t-111 -44q-42 0 -85 17t-72 37t-60.5 37t-52.5 17q-45 0 -51 -53l-7 -41h-127zM510 598h383l-188 516z" />
<glyph unicode="&#xc4;" d="M20 0v154h101q31 0 44.5 11.5t27.5 47.5l448 1153h248l442 -1153q13 -34 28 -46.5t40 -12.5h82v-154h-580v154h94q29 0 37.5 12.5t-2.5 44.5l-94 240h-477l-88 -240q-11 -34 -2.5 -45.5t37.5 -11.5h104v-154h-490zM440 1577q0 58 35 92.5t92 34.5q59 0 95 -34.5t36 -92.5 t-36 -93.5t-95 -35.5q-57 0 -92 35.5t-35 93.5zM510 598h383l-188 516zM817 1577q0 58 35 92.5t94 34.5q58 0 93.5 -34.5t35.5 -92.5t-36 -93.5t-93 -35.5q-58 0 -93.5 35t-35.5 94z" />
<glyph unicode="&#xc5;" d="M20 0v154h101q31 0 44.5 11.5t27.5 47.5l428 1102q-91 56 -91 162q0 86 62.5 140t165.5 54t165 -54t62 -140q0 -101 -80 -156l426 -1108q13 -34 28 -46.5t40 -12.5h82v-154h-580v154h94q29 0 37.5 12.5t-2.5 44.5l-94 240h-477l-88 -240q-11 -34 -2.5 -45.5t37.5 -11.5 h104v-154h-490zM510 598h383l-188 516zM662 1477q0 -40 27.5 -68.5t68.5 -28.5t68.5 28.5t27.5 68.5t-27.5 68t-68.5 28t-68.5 -28t-27.5 -68z" />
<glyph unicode="&#xc6;" horiz-adv-x="1937" d="M31 0v154h80q33 0 52.5 12t37.5 47l508 930q13 31 4 47t-33 16h-129v154h1292v-340h-135l-27 123q-21 40 -42.5 51.5t-79.5 11.5h-351v-442h158q34 0 46.5 13t12.5 50v76h154v-436h-154v76q0 37 -13 53t-46 16h-158v-458h377q61 0 81 10.5t42 52.5l25 123h137v-340h-1084 v154h103q22 0 30.5 11.5t8.5 45.5v254h-381l-137 -254q-16 -34 -10.5 -45.5t34.5 -11.5h82v-154h-485zM618 608h310v576z" />
<glyph unicode="&#xc7;" horiz-adv-x="1359" d="M49 678q0 321 174 514.5t459 193.5q141 0 239 -61t142 -178l57 213h164v-506h-235q-29 185 -111.5 270.5t-224.5 85.5q-183 0 -275 -126t-92 -369v-70q0 -243 95 -369t280 -126q173 0 272.5 89t112.5 267l186 -21q-3 -96 -36 -182t-94.5 -157t-161.5 -116.5t-228 -54.5 l2 -67q8 2 27 2q95 0 145.5 -39t50.5 -111q0 -76 -71 -119.5t-199 -43.5q-132 0 -248 61l19 90q123 -47 207 -47q110 0 110 57q0 56 -96 56q-40 0 -76 -19l-8 8v174q-274 23 -430 207.5t-156 493.5z" />
<glyph unicode="&#xc8;" horiz-adv-x="1236" d="M33 0v154h102q22 0 30.5 11.5t8.5 45.5v938q0 34 -8.5 45.5t-30.5 11.5h-102v154h1110v-340h-178l-25 123q-9 40 -34.5 51.5t-90.5 11.5h-360v-442h229q34 0 46.5 13t12.5 50v76h154v-436h-154v76q0 37 -13 53t-46 16h-229v-458h387q68 0 92.5 10t32.5 53l24 123h176 v-340h-1134zM328 1628v94h254l184 -284h-117z" />
<glyph unicode="&#xc9;" horiz-adv-x="1236" d="M33 0v154h102q22 0 30.5 11.5t8.5 45.5v938q0 34 -8.5 45.5t-30.5 11.5h-102v154h1110v-340h-178l-25 123q-9 40 -34.5 51.5t-90.5 11.5h-360v-442h229q34 0 46.5 13t12.5 50v76h154v-436h-154v76q0 37 -13 53t-46 16h-229v-458h387q68 0 92.5 10t32.5 53l24 123h176 v-340h-1134zM489 1440l185 282h254v-94l-322 -188h-117z" />
<glyph unicode="&#xca;" horiz-adv-x="1236" d="M33 0v154h102q22 0 30.5 11.5t8.5 45.5v938q0 34 -8.5 45.5t-30.5 11.5h-102v154h1110v-340h-178l-25 123q-9 40 -34.5 51.5t-90.5 11.5h-360v-442h229q34 0 46.5 13t12.5 50v76h154v-436h-154v76q0 37 -13 53t-46 16h-229v-458h387q68 0 92.5 10t32.5 53l24 123h176 v-340h-1134zM367 1438l174 278h190l172 -278h-135l-133 157l-135 -157h-133z" />
<glyph unicode="&#xcb;" horiz-adv-x="1236" d="M33 0v154h102q22 0 30.5 11.5t8.5 45.5v938q0 34 -8.5 45.5t-30.5 11.5h-102v154h1110v-340h-178l-25 123q-9 40 -34.5 51.5t-90.5 11.5h-360v-442h229q34 0 46.5 13t12.5 50v76h154v-436h-154v76q0 37 -13 53t-46 16h-229v-458h387q68 0 92.5 10t32.5 53l24 123h176 v-340h-1134zM307 1587q0 58 35 92.5t92 34.5q59 0 95 -34.5t36 -92.5t-36 -93.5t-95 -35.5q-57 0 -92 35.5t-35 93.5zM684 1587q0 58 35 92.5t94 34.5q58 0 93.5 -34.5t35.5 -92.5t-36 -93.5t-93 -35.5q-59 0 -94 35t-35 94z" />
<glyph unicode="&#xcc;" horiz-adv-x="641" d="M16 1628v94h254l185 -284h-117zM39 0v154h102q22 0 30.5 11.5t8.5 47.5v936q0 34 -8.5 45.5t-30.5 11.5h-102v154h563v-154h-102q-22 0 -30.5 -11.5t-8.5 -45.5v-936q0 -36 8.5 -47.5t30.5 -11.5h102v-154h-563z" />
<glyph unicode="&#xcd;" horiz-adv-x="641" d="M39 0v154h102q22 0 30.5 11.5t8.5 47.5v936q0 34 -8.5 45.5t-30.5 11.5h-102v154h563v-154h-102q-22 0 -30.5 -11.5t-8.5 -45.5v-936q0 -36 8.5 -47.5t30.5 -11.5h102v-154h-563zM207 1440l184 282h254v-94l-321 -188h-117z" />
<glyph unicode="&#xce;" horiz-adv-x="641" d="M39 0v154h102q22 0 30.5 11.5t8.5 47.5v936q0 34 -8.5 45.5t-30.5 11.5h-102v154h563v-154h-102q-22 0 -30.5 -11.5t-8.5 -45.5v-936q0 -36 8.5 -47.5t30.5 -11.5h102v-154h-563zM63 1438l175 278h190l172 -278h-135l-133 157l-135 -157h-134z" />
<glyph unicode="&#xcf;" horiz-adv-x="641" d="M16 1587q0 58 35 92.5t92 34.5q59 0 95 -34.5t36 -92.5t-36 -93.5t-95 -35.5q-57 0 -92 35.5t-35 93.5zM39 0v154h102q22 0 30.5 11.5t8.5 47.5v936q0 34 -8.5 45.5t-30.5 11.5h-102v154h563v-154h-102q-22 0 -30.5 -11.5t-8.5 -45.5v-936q0 -36 8.5 -47.5t30.5 -11.5 h102v-154h-563zM393 1587q0 58 35 92.5t94 34.5q58 0 93.5 -34.5t35.5 -92.5t-36 -93.5t-93 -35.5q-58 0 -93.5 35t-35.5 94z" />
<glyph unicode="&#xd0;" horiz-adv-x="1398" d="M33 0v154h102q22 0 30.5 11.5t8.5 47.5v395h-141v164h141v377q0 34 -8.5 45.5t-30.5 11.5h-102v154h604q359 0 537 -174.5t178 -509.5q0 -325 -184 -500.5t-545 -175.5h-590zM455 154h192q115 0 191 27.5t120.5 88t63 146t18.5 213.5v96q0 132 -17 218.5t-60.5 147.5 t-117.5 88t-188 27h-202v-434h293v-164h-293v-454z" />
<glyph unicode="&#xd1;" d="M39 0v154h113q22 0 30 11t8 46v938q0 35 -8 46t-30 11h-113v154h434l684 -916v705q0 34 -8.5 45.5t-30.5 11.5h-110v154h469v-154h-113q-22 0 -30.5 -11.5t-8.5 -45.5v-1151h-178l-789 1051v-838q0 -34 8.5 -45.5t30.5 -11.5h113v-154h-471zM459 1438l8 67 q9 94 47.5 137.5t112.5 43.5q53 0 106.5 -27t95.5 -53.5t68 -26.5q22 0 33 12.5t16 40.5l8 43h127l-8 -67q-11 -96 -49 -140.5t-111 -44.5q-53 0 -106.5 27.5t-95.5 54.5t-68 27q-45 0 -51 -53l-6 -41h-127z" />
<glyph unicode="&#xd2;" horiz-adv-x="1462" d="M49 678q0 210 87.5 371.5t245.5 249t361 87.5q315 0 495.5 -192t180.5 -516q0 -318 -190.5 -511.5t-497.5 -193.5q-318 0 -500 191.5t-182 513.5zM344 631q0 -248 98 -364.5t293 -116.5q196 0 294.5 116.5t98.5 364.5v94q0 485 -389 485q-395 0 -395 -485v-94zM422 1628 v94h254l184 -284h-117z" />
<glyph unicode="&#xd3;" horiz-adv-x="1462" d="M49 678q0 210 87.5 371.5t245.5 249t361 87.5q315 0 495.5 -192t180.5 -516q0 -318 -190.5 -511.5t-497.5 -193.5q-318 0 -500 191.5t-182 513.5zM344 631q0 -248 98 -364.5t293 -116.5q196 0 294.5 116.5t98.5 364.5v94q0 485 -389 485q-395 0 -395 -485v-94zM623 1440 l184 282h254v-94l-322 -188h-116z" />
<glyph unicode="&#xd4;" horiz-adv-x="1462" d="M49 678q0 210 87.5 371.5t245.5 249t361 87.5q315 0 495.5 -192t180.5 -516q0 -318 -190.5 -511.5t-497.5 -193.5q-318 0 -500 191.5t-182 513.5zM344 631q0 -248 98 -364.5t293 -116.5q196 0 294.5 116.5t98.5 364.5v94q0 485 -389 485q-395 0 -395 -485v-94zM473 1438 l174 278h191l172 -278h-136l-133 157l-135 -157h-133z" />
<glyph unicode="&#xd5;" horiz-adv-x="1462" d="M49 678q0 210 87.5 371.5t245.5 249t361 87.5q315 0 495.5 -192t180.5 -516q0 -318 -190.5 -511.5t-497.5 -193.5q-318 0 -500 191.5t-182 513.5zM344 631q0 -248 98 -364.5t293 -116.5q196 0 294.5 116.5t98.5 364.5v94q0 485 -389 485q-395 0 -395 -485v-94zM422 1448 l8 68q9 93 47.5 136.5t112.5 43.5q53 0 106.5 -27t95.5 -53.5t68 -26.5q22 0 33 12.5t16 40.5l9 44h126l-8 -68q-11 -96 -48.5 -140t-110.5 -44q-53 0 -106.5 27t-96 54t-68.5 27q-45 0 -51 -53l-6 -41h-127z" />
<glyph unicode="&#xd6;" horiz-adv-x="1462" d="M49 678q0 210 87.5 371.5t245.5 249t361 87.5q315 0 495.5 -192t180.5 -516q0 -318 -190.5 -511.5t-497.5 -193.5q-318 0 -500 191.5t-182 513.5zM344 631q0 -248 98 -364.5t293 -116.5q196 0 294.5 116.5t98.5 364.5v94q0 485 -389 485q-395 0 -395 -485v-94zM426 1587 q0 58 35 92.5t92 34.5q59 0 95 -34.5t36 -92.5t-36 -93.5t-95 -35.5q-57 0 -92 35.5t-35 93.5zM803 1587q0 58 35 92.5t94 34.5q58 0 93.5 -34.5t35.5 -92.5t-36 -93.5t-93 -35.5q-58 0 -93.5 35t-35.5 94z" />
<glyph unicode="&#xd7;" horiz-adv-x="980" d="M68 219l297 283l-297 284l139 140l282 -299l285 297l139 -140l-297 -282l297 -285l-139 -139l-285 299l-282 -297z" />
<glyph unicode="&#xd8;" horiz-adv-x="1462" d="M35 0l174 193q-160 190 -160 485q0 320 189.5 514t504.5 194q249 0 422 -131l95 105h172l-175 -193q162 -192 162 -489q0 -320 -187.5 -512.5t-500.5 -192.5q-254 0 -430 131l-94 -104h-172zM344 651q0 -160 39 -264l637 707q-98 116 -281 116q-193 0 -294 -127.5 t-101 -377.5v-54zM449 268q97 -118 286 -118q193 0 293 125.5t100 375.5v54q0 162 -43 272z" />
<glyph unicode="&#xd9;" horiz-adv-x="1429" d="M31 1206v154h553v-154h-103q-22 0 -30.5 -11.5t-8.5 -45.5v-672q0 -184 68.5 -254.5t253.5 -70.5q165 0 241 78t76 245v674q0 34 -8.5 45.5t-30.5 11.5h-114v154h475v-154h-105q-22 0 -30 -11t-8 -46v-690q0 -486 -549 -486q-300 0 -424.5 113t-124.5 383v680 q0 34 -8.5 45.5t-30.5 11.5h-92zM412 1628v94h254l184 -284h-117z" />
<glyph unicode="&#xda;" horiz-adv-x="1429" d="M31 1206v154h553v-154h-103q-22 0 -30.5 -11.5t-8.5 -45.5v-672q0 -184 68.5 -254.5t253.5 -70.5q165 0 241 78t76 245v674q0 34 -8.5 45.5t-30.5 11.5h-114v154h475v-154h-105q-22 0 -30 -11t-8 -46v-690q0 -486 -549 -486q-300 0 -424.5 113t-124.5 383v680 q0 34 -8.5 45.5t-30.5 11.5h-92zM625 1440l184 282h254v-94l-322 -188h-116z" />
<glyph unicode="&#xdb;" horiz-adv-x="1429" d="M31 1206v154h553v-154h-103q-22 0 -30.5 -11.5t-8.5 -45.5v-672q0 -184 68.5 -254.5t253.5 -70.5q165 0 241 78t76 245v674q0 34 -8.5 45.5t-30.5 11.5h-114v154h475v-154h-105q-22 0 -30 -11t-8 -46v-690q0 -486 -549 -486q-300 0 -424.5 113t-124.5 383v680 q0 34 -8.5 45.5t-30.5 11.5h-92zM496 1438l174 278h190l172 -278h-135l-133 157l-135 -157h-133z" />
<glyph unicode="&#xdc;" horiz-adv-x="1429" d="M31 1206v154h553v-154h-103q-22 0 -30.5 -11.5t-8.5 -45.5v-672q0 -184 68.5 -254.5t253.5 -70.5q165 0 241 78t76 245v674q0 34 -8.5 45.5t-30.5 11.5h-114v154h475v-154h-105q-22 0 -30 -11t-8 -46v-690q0 -486 -549 -486q-300 0 -424.5 113t-124.5 383v680 q0 34 -8.5 45.5t-30.5 11.5h-92zM446 1577q0 58 35 92.5t92 34.5q59 0 95.5 -34.5t36.5 -92.5t-36.5 -93.5t-95.5 -35.5q-57 0 -92 35.5t-35 93.5zM823 1577q0 58 35 92.5t94 34.5q58 0 93.5 -34.5t35.5 -92.5t-36 -93.5t-93 -35.5q-58 0 -93.5 35t-35.5 94z" />
<glyph unicode="&#xdd;" horiz-adv-x="1382" d="M31 1206v154h602v-154h-96q-26 0 -31.5 -20.5t8.5 -42.5l244 -383l241 393q10 13 2.5 33t-26.5 20h-133v154h532v-154h-108q-27 0 -44 -11.5t-36 -41.5l-348 -541v-399q0 -36 8.5 -47.5t30.5 -11.5h112v-154h-573v154h112q22 0 30.5 11.5t8.5 47.5v367l-379 573 q-21 31 -36 42t-37 11h-84zM575 1440l185 282h254v-94l-322 -188h-117z" />
<glyph unicode="&#xde;" horiz-adv-x="1200" d="M33 0v154h102q22 0 30.5 11.5t8.5 47.5v936q0 34 -8.5 45.5t-30.5 11.5h-102v154h563v-154h-102q-22 0 -30.5 -11.5t-8.5 -45.5v-84h170q277 0 403.5 -88.5t126.5 -284.5t-125 -285.5t-407 -89.5h-168v-104q0 -36 8.5 -47.5t30.5 -11.5h112v-154h-573zM455 453h98 q172 0 245.5 56t73.5 183q0 126 -72 180t-249 54h-96v-473z" />
<glyph unicode="&#xdf;" horiz-adv-x="1163" d="M25 844v153h135q3 206 113 304t337 98q201 0 307.5 -83t106.5 -241q0 -91 -46.5 -156t-135.5 -96q137 -38 210.5 -139.5t73.5 -255.5q0 -217 -107 -332.5t-300 -115.5q-128 0 -193 24v164q48 -21 111 -21q103 0 152 66.5t49 218.5q0 158 -62 230.5t-192 72.5h-35v142h31 q202 0 202 182q0 87 -45 134.5t-127 47.5q-178 0 -178 -215v-1026h-397v154h90q19 0 27 12t8 41v637h-135z" />
<glyph unicode="&#xe0;" horiz-adv-x="1130" d="M51 236q0 62 20 111.5t61.5 87t95 66.5t133 52t161.5 39.5t193 32.5v57q0 99 -51.5 142.5t-161.5 43.5q-78 0 -131 -16q39 -45 39 -111t-45.5 -107.5t-114.5 -41.5q-79 0 -124.5 43t-45.5 121q0 58 24.5 103.5t67 76t102.5 50.5t128.5 29t148.5 9q233 0 336.5 -78 t103.5 -260v-479q0 -29 7 -41t26 -12h86v-154h-332q-40 66 -61 170q-39 -84 -141 -140.5t-224 -56.5q-138 0 -219.5 75t-81.5 188zM221 1266v94h254l184 -285h-116zM319 283q0 -64 39 -102t105 -38q114 0 182 78t70 205v78q-100 -14 -167.5 -30.5t-122 -41.5t-80.5 -62 t-26 -87z" />
<glyph unicode="&#xe1;" horiz-adv-x="1130" d="M51 236q0 62 20 111.5t61.5 87t95 66.5t133 52t161.5 39.5t193 32.5v57q0 99 -51.5 142.5t-161.5 43.5q-78 0 -131 -16q39 -45 39 -111t-45.5 -107.5t-114.5 -41.5q-79 0 -124.5 43t-45.5 121q0 58 24.5 103.5t67 76t102.5 50.5t128.5 29t148.5 9q233 0 336.5 -78 t103.5 -260v-479q0 -29 7 -41t26 -12h86v-154h-332q-40 66 -61 170q-39 -84 -141 -140.5t-224 -56.5q-138 0 -219.5 75t-81.5 188zM319 283q0 -64 39 -102t105 -38q114 0 182 78t70 205v78q-100 -14 -167.5 -30.5t-122 -41.5t-80.5 -62t-26 -87zM416 1077l184 283h254v-94 l-322 -189h-116z" />
<glyph unicode="&#xe2;" horiz-adv-x="1130" d="M51 236q0 62 20 111.5t61.5 87t95 66.5t133 52t161.5 39.5t193 32.5v57q0 99 -51.5 142.5t-161.5 43.5q-78 0 -131 -16q39 -45 39 -111t-45.5 -107.5t-114.5 -41.5q-79 0 -124.5 43t-45.5 121q0 58 24.5 103.5t67 76t102.5 50.5t128.5 29t148.5 9q233 0 336.5 -78 t103.5 -260v-479q0 -29 7 -41t26 -12h86v-154h-332q-40 66 -61 170q-39 -84 -141 -140.5t-224 -56.5q-138 0 -219.5 75t-81.5 188zM270 1075l174 279h191l172 -279h-135l-133 158l-136 -158h-133zM319 283q0 -64 39 -102t105 -38q114 0 182 78t70 205v78 q-100 -14 -167.5 -30.5t-122 -41.5t-80.5 -62t-26 -87z" />
<glyph unicode="&#xe3;" horiz-adv-x="1130" d="M51 236q0 62 20 111.5t61.5 87t95 66.5t133 52t161.5 39.5t193 32.5v57q0 99 -51.5 142.5t-161.5 43.5q-78 0 -131 -16q39 -45 39 -111t-45.5 -107.5t-114.5 -41.5q-79 0 -124.5 43t-45.5 121q0 58 24.5 103.5t67 76t102.5 50.5t128.5 29t148.5 9q233 0 336.5 -78 t103.5 -260v-479q0 -29 7 -41t26 -12h86v-154h-332q-40 66 -61 170q-39 -84 -141 -140.5t-224 -56.5q-138 0 -219.5 75t-81.5 188zM213 1096l8 67q9 93 47.5 136.5t112.5 43.5q42 0 85 -16.5t72 -36.5t60.5 -36.5t52.5 -16.5q22 0 33 12.5t16 40.5l9 43h127l-9 -67 q-11 -96 -48.5 -140.5t-110.5 -44.5q-53 0 -106.5 27.5t-96 54.5t-68.5 27q-45 0 -51 -53l-6 -41h-127zM319 283q0 -64 39 -102t105 -38q114 0 182 78t70 205v78q-100 -14 -167.5 -30.5t-122 -41.5t-80.5 -62t-26 -87z" />
<glyph unicode="&#xe4;" horiz-adv-x="1130" d="M51 236q0 62 20 111.5t61.5 87t95 66.5t133 52t161.5 39.5t193 32.5v57q0 99 -51.5 142.5t-161.5 43.5q-78 0 -131 -16q39 -45 39 -111t-45.5 -107.5t-114.5 -41.5q-79 0 -124.5 43t-45.5 121q0 58 24.5 103.5t67 76t102.5 50.5t128.5 29t148.5 9q233 0 336.5 -78 t103.5 -260v-479q0 -29 7 -41t26 -12h86v-154h-332q-40 66 -61 170q-39 -84 -141 -140.5t-224 -56.5q-138 0 -219.5 75t-81.5 188zM223 1225q0 58 35 92.5t92 34.5q59 0 95 -34.5t36 -92.5t-36 -93.5t-95 -35.5q-57 0 -92 35.5t-35 93.5zM319 283q0 -64 39 -102t105 -38 q114 0 182 78t70 205v78q-100 -14 -167.5 -30.5t-122 -41.5t-80.5 -62t-26 -87zM600 1225q0 58 35 92.5t94 34.5q58 0 93.5 -34.5t35.5 -92.5t-36 -93.5t-93 -35.5q-59 0 -94 35t-35 94z" />
<glyph unicode="&#xe5;" horiz-adv-x="1130" d="M51 236q0 62 20 111.5t61.5 87t95 66.5t133 52t161.5 39.5t193 32.5v57q0 99 -51.5 142.5t-161.5 43.5q-78 0 -131 -16q39 -45 39 -111t-45.5 -107.5t-114.5 -41.5q-79 0 -124.5 43t-45.5 121q0 58 24.5 103.5t67 76t102.5 50.5t128.5 29t148.5 9q233 0 336.5 -78 t103.5 -260v-479q0 -29 7 -41t26 -12h86v-154h-332q-40 66 -61 170q-39 -84 -141 -140.5t-224 -56.5q-138 0 -219.5 75t-81.5 188zM317 1290q0 86 62.5 140.5t165.5 54.5t165 -54.5t62 -140.5q0 -87 -62 -140.5t-165 -53.5q-104 0 -166 53.5t-62 140.5zM319 283 q0 -64 39 -102t105 -38q114 0 182 78t70 205v78q-100 -14 -167.5 -30.5t-122 -41.5t-80.5 -62t-26 -87zM449 1290q0 -40 27.5 -68t68.5 -28t68.5 28t27.5 68t-27.5 68t-68.5 28t-68.5 -28t-27.5 -68z" />
<glyph unicode="&#xe6;" horiz-adv-x="1722" d="M51 236q0 179 157 265t486 109v70q0 100 -42.5 144t-153.5 44q-68 0 -142 -24q37 -40 37 -99t-43 -97t-108 -38q-76 0 -119 39.5t-43 110.5q0 67 37 118.5t102.5 83t148 47t179.5 15.5q231 0 303 -131q128 131 348 131q235 0 360 -138t125 -388v-52h-725 q5 -144 77 -226.5t208 -82.5q195 0 270 193l156 -70q-99 -287 -469 -287q-303 0 -426 209q-60 -102 -165 -155.5t-230 -53.5q-148 0 -238 75t-90 188zM319 283q0 -63 39 -101.5t105 -38.5q205 0 248 226q-8 43 -11 102q-196 -3 -288.5 -48.5t-92.5 -139.5zM956 586h449 q-3 153 -51 219.5t-152 66.5q-229 0 -246 -286z" />
<glyph unicode="&#xe7;" horiz-adv-x="1062" d="M39 502q0 245 145.5 383.5t403.5 138.5q214 0 336.5 -92t122.5 -248q0 -100 -56 -160.5t-145 -60.5q-70 0 -116 43t-46 108q0 62 36 105t97 55q-48 94 -213 94q-138 0 -211.5 -87.5t-73.5 -254.5v-32q0 -173 69 -264t206 -91q109 0 177.5 47.5t105.5 147.5l153 -72 q-106 -281 -430 -289l2 -65q8 2 27 2q95 0 145.5 -39t50.5 -111q0 -76 -71 -119.5t-199 -43.5q-132 0 -248 61l19 90q123 -47 206 -47q111 0 111 57q0 56 -96 56q-40 0 -76 -19l-8 8v179q-207 31 -315.5 164.5t-108.5 355.5z" />
<glyph unicode="&#xe8;" horiz-adv-x="1085" d="M39 500q0 233 144 378.5t374 145.5q235 0 362.5 -138.5t127.5 -387.5v-52h-725q5 -144 76.5 -226.5t207.5 -82.5q196 0 271 193l155 -70q-45 -130 -155 -208.5t-293 -78.5q-264 0 -404.5 144.5t-140.5 382.5zM252 1266v94h254l184 -285h-117zM317 586h451 q-3 151 -52 215.5t-159 64.5q-111 0 -171 -67.5t-69 -212.5z" />
<glyph unicode="&#xe9;" horiz-adv-x="1085" d="M39 500q0 233 144 378.5t374 145.5q235 0 362.5 -138.5t127.5 -387.5v-52h-725q5 -144 76.5 -226.5t207.5 -82.5q196 0 271 193l155 -70q-45 -130 -155 -208.5t-293 -78.5q-264 0 -404.5 144.5t-140.5 382.5zM317 586h451q-3 151 -52 215.5t-159 64.5q-111 0 -171 -67.5 t-69 -212.5zM424 1077l184 283h254v-94l-321 -189h-117z" />
<glyph unicode="&#xea;" horiz-adv-x="1085" d="M39 500q0 233 144 378.5t374 145.5q235 0 362.5 -138.5t127.5 -387.5v-52h-725q5 -144 76.5 -226.5t207.5 -82.5q196 0 271 193l155 -70q-45 -130 -155 -208.5t-293 -78.5q-264 0 -404.5 144.5t-140.5 382.5zM285 1075l174 279h190l172 -279h-135l-133 158l-135 -158 h-133zM317 586h451q-3 151 -52 215.5t-159 64.5q-111 0 -171 -67.5t-69 -212.5z" />
<glyph unicode="&#xeb;" horiz-adv-x="1085" d="M39 500q0 233 144 378.5t374 145.5q235 0 362.5 -138.5t127.5 -387.5v-52h-725q5 -144 76.5 -226.5t207.5 -82.5q196 0 271 193l155 -70q-45 -130 -155 -208.5t-293 -78.5q-264 0 -404.5 144.5t-140.5 382.5zM231 1225q0 58 35 92.5t92 34.5q59 0 95 -34.5t36 -92.5 t-36 -93.5t-95 -35.5q-57 0 -92 35.5t-35 93.5zM317 586h451q-3 151 -52 215.5t-159 64.5q-111 0 -171 -67.5t-69 -212.5zM608 1225q0 58 35 92.5t94 34.5q58 0 93.5 -34.5t35.5 -92.5t-36 -93.5t-93 -35.5q-59 0 -94 35t-35 94z" />
<glyph unicode="&#xec;" horiz-adv-x="593" d="M-4 1266v94h254l184 -285h-117zM33 0v154h92q18 0 25.5 11t7.5 42v555q0 47 -9.5 64.5t-35.5 17.5h-80v153h164q140 0 239 21v-811q0 -31 7.5 -42t25.5 -11h86v-154h-522z" />
<glyph unicode="&#xed;" horiz-adv-x="593" d="M33 0v154h92q18 0 25.5 11t7.5 42v555q0 47 -9.5 64.5t-35.5 17.5h-80v153h164q140 0 239 21v-811q0 -31 7.5 -42t25.5 -11h86v-154h-522zM96 1077l185 283h254v-94l-322 -189h-117z" />
<glyph unicode="&#xee;" horiz-adv-x="593" d="M23 1075l174 279h190l172 -279h-135l-133 158l-135 -158h-133zM33 0v154h92q18 0 25.5 11t7.5 42v555q0 47 -9.5 64.5t-35.5 17.5h-80v153h164q140 0 239 21v-811q0 -31 7.5 -42t25.5 -11h86v-154h-522z" />
<glyph unicode="&#xef;" horiz-adv-x="593" d="M-31 1225q0 58 35 92.5t92 34.5q59 0 95 -34.5t36 -92.5t-36 -93.5t-95 -35.5q-57 0 -92 35.5t-35 93.5zM33 0v154h92q18 0 25.5 11t7.5 42v555q0 47 -9.5 64.5t-35.5 17.5h-80v153h164q140 0 239 21v-811q0 -31 7.5 -42t25.5 -11h86v-154h-522zM346 1225q0 58 35 92.5 t94 34.5q58 0 93.5 -34.5t35.5 -92.5t-36 -93.5t-93 -35.5q-59 0 -94 35t-35 94z" />
<glyph unicode="&#xf0;" horiz-adv-x="1157" d="M39 500q0 234 130 379t343 145q206 0 305 -135q-46 216 -250 330l-280 -113l-37 113l166 65q-104 34 -201 53l141 174q186 -30 338 -114l226 92l36 -113l-143 -57q145 -117 225 -287.5t80 -386.5q0 -147 -33.5 -268t-100 -212t-173 -141.5t-244.5 -50.5 q-251 0 -389.5 147t-138.5 380zM317 487q0 -180 61 -265t191 -85t192 85.5t62 264.5v27q0 174 -65.5 260t-179.5 86q-120 0 -190.5 -86.5t-70.5 -259.5v-27z" />
<glyph unicode="&#xf1;" horiz-adv-x="1230" d="M31 0v154h90q19 0 27 10t8 43v575q0 37 -7.5 49.5t-27.5 12.5h-90v153h159q143 0 238 21v-199q94 205 338 205q159 0 241.5 -93.5t82.5 -279.5v-444q0 -33 7.5 -43t26.5 -10h90v-154h-516v154h80q19 0 27 10t8 43v438q0 104 -39.5 151.5t-124.5 47.5q-105 0 -161 -81 t-56 -245v-311q0 -33 8 -43t27 -10h80v-154h-516zM293 1096l8 67q9 93 47.5 136.5t112.5 43.5q42 0 85 -16.5t72 -36.5t60.5 -36.5t52.5 -16.5q22 0 33 12.5t16 40.5l8 43h127l-8 -67q-11 -96 -48.5 -140.5t-110.5 -44.5q-53 0 -106.5 27.5t-96 54.5t-68.5 27q-45 0 -51 -53 l-6 -41h-127z" />
<glyph unicode="&#xf2;" horiz-adv-x="1140" d="M39 500q0 234 147.5 379t388.5 145q235 0 380 -144.5t145 -379.5t-147 -381t-386 -146q-237 0 -382.5 145.5t-145.5 381.5zM219 1266v94h254l184 -285h-116zM317 485q0 -180 61 -264t191 -84t192 84.5t62 263.5v27q0 180 -61.5 264t-190.5 84q-131 0 -192.5 -84 t-61.5 -264v-27z" />
<glyph unicode="&#xf3;" horiz-adv-x="1140" d="M39 500q0 234 147.5 379t388.5 145q235 0 380 -144.5t145 -379.5t-147 -381t-386 -146q-237 0 -382.5 145.5t-145.5 381.5zM317 485q0 -180 61 -264t191 -84t192 84.5t62 263.5v27q0 180 -61.5 264t-190.5 84q-131 0 -192.5 -84t-61.5 -264v-27zM463 1077l184 283h254 v-94l-321 -189h-117z" />
<glyph unicode="&#xf4;" horiz-adv-x="1140" d="M39 500q0 234 147.5 379t388.5 145q235 0 380 -144.5t145 -379.5t-147 -381t-386 -146q-237 0 -382.5 145.5t-145.5 381.5zM303 1075l174 279h191l172 -279h-135l-134 158l-135 -158h-133zM317 485q0 -180 61 -264t191 -84t192 84.5t62 263.5v27q0 180 -61.5 264 t-190.5 84q-131 0 -192.5 -84t-61.5 -264v-27z" />
<glyph unicode="&#xf5;" horiz-adv-x="1140" d="M39 500q0 234 147.5 379t388.5 145q235 0 380 -144.5t145 -379.5t-147 -381t-386 -146q-237 0 -382.5 145.5t-145.5 381.5zM260 1096l8 67q9 93 47.5 136.5t112.5 43.5q42 0 85 -16.5t72 -36.5t60.5 -36.5t52.5 -16.5q41 0 50 53l8 43h127l-9 -67q-11 -96 -48.5 -140.5 t-110.5 -44.5q-53 0 -106.5 27.5t-96 54.5t-68.5 27q-45 0 -51 -53l-6 -41h-127zM317 485q0 -180 61 -264t191 -84t192 84.5t62 263.5v27q0 180 -61.5 264t-190.5 84q-131 0 -192.5 -84t-61.5 -264v-27z" />
<glyph unicode="&#xf6;" horiz-adv-x="1140" d="M39 500q0 234 147.5 379t388.5 145q235 0 380 -144.5t145 -379.5t-147 -381t-386 -146q-237 0 -382.5 145.5t-145.5 381.5zM254 1225q0 58 35 92.5t92 34.5q59 0 95 -34.5t36 -92.5t-36 -93.5t-95 -35.5q-57 0 -92 35.5t-35 93.5zM317 485q0 -180 61 -264t191 -84 t192 84.5t62 263.5v27q0 180 -61.5 264t-190.5 84q-131 0 -192.5 -84t-61.5 -264v-27zM631 1225q0 58 35 92.5t94 34.5q58 0 93.5 -34.5t35.5 -92.5t-36 -93.5t-93 -35.5q-58 0 -93.5 35t-35.5 94z" />
<glyph unicode="&#xf7;" horiz-adv-x="980" d="M76 420v164h829v-164h-829zM350 180q0 61 38 98t101 37t101.5 -37t38.5 -98q0 -60 -38.5 -96.5t-101.5 -36.5t-101 36.5t-38 96.5zM350 821q0 61 38 98t101 37t101.5 -37t38.5 -98t-38.5 -98t-101.5 -37t-101 37t-38 98z" />
<glyph unicode="&#xf8;" horiz-adv-x="1140" d="M39 500q0 234 147.5 379t388.5 145q171 0 293 -78l60 68h172l-131 -150q131 -140 131 -364q0 -235 -147 -381t-386 -146q-178 0 -305 82l-49 -55h-172l123 139q-125 141 -125 361zM317 485q0 -100 19 -178q330 393 412 490q-60 69 -177 69q-132 0 -193 -87t-61 -267v-27z M385 209q60 -78 184 -78q131 0 192.5 87t61.5 267v27q0 112 -24 188z" />
<glyph unicode="&#xf9;" horiz-adv-x="1214" d="M10 844v153h404v-653q0 -105 41 -149.5t123 -44.5q102 0 156 76.5t54 219.5v345q0 33 -7.5 43t-26.5 10h-101v153h412v-782q0 -36 7.5 -48.5t27.5 -12.5h96v-154h-168q-146 0 -240 -20v182q-95 -189 -327 -189q-326 0 -326 365v453q0 33 -8 43t-25 10h-92zM266 1266v94 h254l185 -285h-117z" />
<glyph unicode="&#xfa;" horiz-adv-x="1214" d="M10 844v153h404v-653q0 -105 41 -149.5t123 -44.5q102 0 156 76.5t54 219.5v345q0 33 -7.5 43t-26.5 10h-101v153h412v-782q0 -36 7.5 -48.5t27.5 -12.5h96v-154h-168q-146 0 -240 -20v182q-95 -189 -327 -189q-326 0 -326 365v453q0 33 -8 43t-25 10h-92zM469 1077 l184 283h254v-94l-321 -189h-117z" />
<glyph unicode="&#xfb;" horiz-adv-x="1214" d="M10 844v153h404v-653q0 -105 41 -149.5t123 -44.5q102 0 156 76.5t54 219.5v345q0 33 -7.5 43t-26.5 10h-101v153h412v-782q0 -36 7.5 -48.5t27.5 -12.5h96v-154h-168q-146 0 -240 -20v182q-95 -189 -327 -189q-326 0 -326 365v453q0 33 -8 43t-25 10h-92zM324 1075 l174 279h190l172 -279h-135l-133 158l-135 -158h-133z" />
<glyph unicode="&#xfc;" horiz-adv-x="1214" d="M10 844v153h404v-653q0 -105 41 -149.5t123 -44.5q102 0 156 76.5t54 219.5v345q0 33 -7.5 43t-26.5 10h-101v153h412v-782q0 -36 7.5 -48.5t27.5 -12.5h96v-154h-168q-146 0 -240 -20v182q-95 -189 -327 -189q-326 0 -326 365v453q0 33 -8 43t-25 10h-92zM270 1225 q0 58 35 92.5t92 34.5q59 0 95 -34.5t36 -92.5t-36 -93.5t-95 -35.5q-57 0 -92 35.5t-35 93.5zM647 1225q0 58 35 92.5t94 34.5q58 0 93.5 -34.5t35.5 -92.5t-36 -93.5t-93 -35.5q-58 0 -93.5 35t-35.5 94z" />
<glyph unicode="&#xfd;" horiz-adv-x="1163" d="M-10 -168q0 82 46 130t124 48q95 0 130 -69.5t-18 -161.5q73 6 125 60t99 173v6l-357 773q-15 33 -25.5 43t-31.5 10h-68v153h529v-153h-78q-27 0 -35.5 -17.5t2.5 -42.5l219 -483l197 479q11 34 0 49t-39 15h-82v153h428v-153h-80q-25 0 -36.5 -9.5t-24.5 -43.5 l-330 -791q-59 -139 -113 -217.5t-131 -121t-184 -42.5q-120 0 -193 56t-73 157zM156 -139q0 -30 19.5 -52t55.5 -28zM455 1077l184 283h254v-94l-322 -189h-116z" />
<glyph unicode="&#xfe;" horiz-adv-x="1249" d="M14 1217v143h170q148 0 238 20v-583q44 109 132 168t216 59q200 0 318 -142.5t118 -381.5q0 -238 -122 -382.5t-326 -144.5q-121 0 -205.5 54t-130.5 151v-334q0 -33 8 -43t27 -10h90v-143h-527v143h91q19 0 26.5 10t7.5 43v1311q0 37 -7 49.5t-27 12.5h-97zM422 483 q0 -162 68 -252t180 -90q116 0 182 89t66 253v31q0 163 -66 249.5t-182 86.5q-114 0 -181 -86.5t-67 -249.5v-31z" />
<glyph unicode="&#xff;" horiz-adv-x="1163" d="M-10 -168q0 82 46 130t124 48q95 0 130 -69.5t-18 -161.5q73 6 125 60t99 173v6l-357 773q-15 33 -25.5 43t-31.5 10h-68v153h529v-153h-78q-27 0 -35.5 -17.5t2.5 -42.5l219 -483l197 479q11 34 0 49t-39 15h-82v153h428v-153h-80q-25 0 -36.5 -9.5t-24.5 -43.5 l-330 -791q-59 -139 -113 -217.5t-131 -121t-184 -42.5q-120 0 -193 56t-73 157zM156 -139q0 -30 19.5 -52t55.5 -28zM283 1225q0 58 35 92.5t92 34.5q59 0 95 -34.5t36 -92.5t-36 -93.5t-95 -35.5q-57 0 -92 35.5t-35 93.5zM659 1225q0 58 35 92.5t94 34.5q58 0 94 -34.5 t36 -92.5t-36.5 -93.5t-93.5 -35.5q-58 0 -93.5 35t-35.5 94z" />
<glyph unicode="&#x152;" horiz-adv-x="1957" d="M45 686q0 318 189.5 496t545.5 178h1084v-340h-135l-25 123q-22 40 -44.5 51.5t-80.5 11.5h-360v-442h165q34 0 47 13.5t13 49.5l2 76h153v-436h-153l-2 76q0 37 -13.5 53t-46.5 16h-165v-458h387q61 0 81 10.5t42 52.5l24 123h137v-340h-1130q-350 0 -532.5 178 t-182.5 508zM356 635q0 -253 92 -367t312 -114h162v1052h-152q-224 0 -319 -115t-95 -360v-96z" />
<glyph unicode="&#x153;" horiz-adv-x="1875" d="M39 500q0 237 144 380.5t386 143.5q273 0 400 -195q122 195 395 195q228 0 350.5 -138t122.5 -388v-52h-725q5 -144 77 -226.5t208 -82.5q195 0 270 193l156 -70q-45 -131 -157.5 -209t-301.5 -78q-275 0 -397 195q-130 -195 -406 -195q-239 0 -380.5 143.5t-141.5 383.5 zM317 485q0 -181 60.5 -267.5t191.5 -86.5t192.5 87t61.5 267v27q0 181 -61 267.5t-191 86.5q-132 0 -193 -87t-61 -267v-27zM1110 586h449q-3 153 -50.5 219.5t-150.5 66.5q-231 0 -248 -286z" />
<glyph unicode="&#x178;" horiz-adv-x="1382" d="M31 1206v154h602v-154h-96q-26 0 -31.5 -20.5t8.5 -42.5l244 -383l241 393q10 13 2.5 33t-26.5 20h-133v154h532v-154h-108q-27 0 -44 -11.5t-36 -41.5l-348 -541v-399q0 -36 8.5 -47.5t30.5 -11.5h112v-154h-573v154h112q22 0 30.5 11.5t8.5 47.5v367l-379 573 q-21 31 -36 42t-37 11h-84zM403 1577q0 58 35 92.5t92 34.5q59 0 95.5 -34.5t36.5 -92.5t-36.5 -93.5t-95.5 -35.5q-57 0 -92 35.5t-35 93.5zM780 1577q0 58 35 92.5t94 34.5q58 0 93.5 -34.5t35.5 -92.5t-36 -93.5t-93 -35.5q-59 0 -94 35t-35 94z" />
<glyph unicode="&#x2c6;" horiz-adv-x="1024" d="M244 1075l174 279h190l172 -279h-135l-133 158l-135 -158h-133z" />
<glyph unicode="&#x2dc;" horiz-adv-x="1024" d="M201 1096l8 67q9 93 47.5 136.5t112.5 43.5q42 0 85 -16.5t72 -36.5t60.5 -36.5t52.5 -16.5q22 0 33 12.5t16 40.5l8 43h127l-8 -67q-11 -96 -49 -140.5t-111 -44.5q-53 0 -106.5 27.5t-95.5 54.5t-68 27q-45 0 -51 -53l-6 -41h-127z" />
<glyph unicode="&#x2000;" horiz-adv-x="861" />
<glyph unicode="&#x2001;" horiz-adv-x="1722" />
<glyph unicode="&#x2002;" horiz-adv-x="861" />
<glyph unicode="&#x2003;" horiz-adv-x="1722" />
<glyph unicode="&#x2004;" horiz-adv-x="574" />
<glyph unicode="&#x2005;" horiz-adv-x="430" />
<glyph unicode="&#x2006;" horiz-adv-x="287" />
<glyph unicode="&#x2007;" horiz-adv-x="287" />
<glyph unicode="&#x2008;" horiz-adv-x="215" />
<glyph unicode="&#x2009;" horiz-adv-x="344" />
<glyph unicode="&#x200a;" horiz-adv-x="95" />
<glyph unicode="&#x2010;" horiz-adv-x="591" d="M41 403v195h520v-195h-520z" />
<glyph unicode="&#x2011;" horiz-adv-x="591" d="M41 403v195h520v-195h-520z" />
<glyph unicode="&#x2012;" horiz-adv-x="591" d="M41 403v195h520v-195h-520z" />
<glyph unicode="&#x2013;" horiz-adv-x="786" d="M41 420v164h704v-164h-704z" />
<glyph unicode="&#x2014;" horiz-adv-x="970" d="M41 420v164h889v-164h-889z" />
<glyph unicode="&#x2018;" horiz-adv-x="454" d="M35 1092q0 128 78 207t206 79q47 0 101 -14v-133q-40 12 -80 12q-62 0 -97.5 -29t-39.5 -84q33 13 63 13q62 0 99.5 -36t37.5 -97q0 -63 -45.5 -103.5t-115.5 -40.5q-86 0 -146.5 63t-60.5 163z" />
<glyph unicode="&#x2019;" horiz-adv-x="454" d="M35 887v133q36 -12 80 -12q128 0 137 112q-24 -12 -64 -12q-62 0 -99.5 35t-37.5 96q0 64 45.5 104.5t116.5 40.5q86 0 145.5 -63.5t59.5 -163.5q0 -128 -77.5 -206.5t-205.5 -78.5q-43 0 -100 15z" />
<glyph unicode="&#x201a;" horiz-adv-x="454" d="M35 -68q36 -12 80 -12q128 0 137 115q-24 -12 -64 -12q-62 0 -99.5 35t-37.5 96q0 64 45.5 104.5t116.5 40.5q86 0 145.5 -63.5t59.5 -163.5q0 -129 -77 -208t-206 -79q-46 0 -100 14v133z" />
<glyph unicode="&#x201c;" horiz-adv-x="870" d="M35 1090q0 128 77.5 206t206.5 78q61 0 101 -14v-133q-40 12 -80 12q-131 0 -137 -113q33 13 63 13q62 0 99.5 -35t37.5 -96q0 -64 -45 -105t-116 -41q-86 0 -146.5 64t-60.5 164zM453 1090q0 128 77 206t205 78q61 0 101 -14v-133q-40 12 -80 12q-132 0 -138 -113 q33 13 64 13q62 0 99.5 -35t37.5 -96q0 -64 -45.5 -105t-116.5 -41q-85 0 -144.5 63.5t-59.5 164.5z" />
<glyph unicode="&#x201d;" horiz-adv-x="870" d="M35 887v133q36 -12 80 -12q128 0 137 112q-24 -12 -64 -12q-62 0 -99.5 35t-37.5 96q0 64 45.5 104.5t116.5 40.5q86 0 145.5 -63.5t59.5 -163.5q0 -128 -77.5 -206.5t-205.5 -78.5q-43 0 -100 15zM451 887v133q40 -12 79 -12q129 0 138 112q-24 -12 -64 -12 q-62 0 -99.5 35t-37.5 96q0 64 45.5 104.5t116.5 40.5q86 0 145.5 -63.5t59.5 -163.5q0 -128 -77.5 -206.5t-205.5 -78.5q-43 0 -100 15z" />
<glyph unicode="&#x201e;" horiz-adv-x="870" d="M35 -68q36 -12 80 -12q128 0 137 115q-24 -12 -64 -12q-62 0 -99.5 35t-37.5 96q0 64 45.5 104.5t116.5 40.5q86 0 145.5 -63.5t59.5 -163.5q0 -129 -77 -208t-206 -79q-46 0 -100 14v133zM451 -68q40 -12 79 -12q129 0 138 115q-24 -12 -64 -12q-62 0 -99.5 35t-37.5 96 q0 64 45.5 104.5t116.5 40.5q86 0 145.5 -63.5t59.5 -163.5q0 -129 -77 -208t-206 -79q-46 0 -100 14v133z" />
<glyph unicode="&#x2022;" horiz-adv-x="671" d="M55 504q0 122 79 197t206 75q125 0 200.5 -74.5t75.5 -197.5q0 -122 -77 -197.5t-205 -75.5q-126 0 -202.5 75t-76.5 198z" />
<glyph unicode="&#x2026;" horiz-adv-x="1361" d="M70 125q0 67 44 109t113 42t112.5 -42t43.5 -109q0 -66 -43.5 -109t-112.5 -43t-113 43t-44 109zM524 125q0 67 43.5 109t112.5 42t113.5 -42t44.5 -109q0 -66 -44.5 -109t-113.5 -43t-112.5 43t-43.5 109zM979 125q0 67 43.5 109t112.5 42t112 -42t43 -109 q0 -66 -43 -109t-112 -43t-112.5 43t-43.5 109z" />
<glyph unicode="&#x202f;" horiz-adv-x="344" />
<glyph unicode="&#x2039;" horiz-adv-x="468" d="M45 449v106l369 270v-204l-166 -119l166 -119v-205z" />
<glyph unicode="&#x203a;" horiz-adv-x="468" d="M55 178v205l164 119l-164 119v204l369 -270v-106z" />
<glyph unicode="&#x205f;" horiz-adv-x="430" />
<glyph unicode="&#x20ac;" horiz-adv-x="1355" d="M31 461v112h121q-5 41 -5 103v41h-116v112h127q35 260 187 408.5t382 148.5q218 0 352 -180l47 154h160v-404h-225q-80 240 -293 240q-137 0 -213.5 -90t-95.5 -277h471v-112h-475v-76q0 -48 2 -68h391v-112h-379q27 -154 107 -225.5t212 -71.5q117 0 200 72.5t112 205.5 l198 -71q-35 -185 -172 -291.5t-362 -106.5q-243 0 -397 125t-201 363h-135z" />
<glyph unicode="&#x2122;" horiz-adv-x="1630" d="M29 1149v211h618v-211h-100l-8 90q-4 21 -18 27t-48 6h-53v-512q0 -16 2.5 -21.5t11.5 -5.5h64v-94h-328v94h63q11 0 14 5t3 22v512h-49q-33 0 -46.5 -6t-17.5 -27l-8 -90h-100zM686 639v94h62q10 0 14 6t4 21v481q0 27 -16 27h-64v92h330l135 -432l143 432h318v-92h-56 q-10 0 -13 -5.5t-3 -21.5v-481q0 -16 3 -21.5t13 -5.5h56v-94h-318v94h60q16 0 16 27v475l-201 -596h-104l-188 596v-475q0 -27 16 -27h59v-94h-266z" />
<glyph unicode="&#x25fc;" horiz-adv-x="993" d="M0 0v993h993v-993h-993z" />
</font>
</defs>
</svg>
