<?xml version="1.0" standalone="no"?>
<!DOCTYPE svg PUBLIC "-//W3C//DTD SVG 1.1//EN" "http://www.w3.org/Graphics/SVG/1.1/DTD/svg11.dtd" >
<svg xmlns="http://www.w3.org/2000/svg">
<metadata></metadata>
<defs>
<font id="freightsans_boldregular" horiz-adv-x="1501" >
<font-face units-per-em="2048" ascent="1638" descent="-410" />
<missing-glyph horiz-adv-x="356" />
<glyph horiz-adv-x="0" />
<glyph unicode="&#xd;" horiz-adv-x="356" />
<glyph unicode=" "  horiz-adv-x="356" />
<glyph unicode="&#x09;" horiz-adv-x="356" />
<glyph unicode="&#xa0;" horiz-adv-x="356" />
<glyph unicode="!" horiz-adv-x="622" d="M117 143q0 84 54 128t140 44t139.5 -44t53.5 -128q0 -86 -53.5 -130t-139.5 -44t-140 44t-54 130zM127 1335h371l-66 -895h-237z" />
<glyph unicode="&#x22;" horiz-adv-x="890" d="M8 815l236 506l272 -74l-305 -432h-203zM436 815l236 506l274 -74l-307 -432h-203z" />
<glyph unicode="#" horiz-adv-x="1273" d="M31 242v227h196l68 254h-223v227h284l97 365h235l-98 -365h289l98 365h233l-98 -365h135v-227h-194l-68 -254h221v-227h-282l-107 -394h-233l106 394h-291l-104 -394h-236l107 394h-135zM457 457h288l78 278h-293z" />
<glyph unicode="$" horiz-adv-x="1150" d="M57 86l60 270q70 -37 147.5 -65.5t161.5 -42.5l45 278q-68 18 -138.5 47t-126.5 73t-92 109.5t-36 157.5q0 178 126 287t363 109h49l29 188h139l-30 -203q86 -14 158.5 -38.5t134.5 -59.5l-64 -268q-131 70 -272 98q2 0 -4.5 -40t-14.5 -87l-20 -127q74 -20 145.5 -49 t129 -73t92 -108.5t34.5 -156.5t-34.5 -168t-101.5 -131t-164 -86t-224 -31h-27l-35 -219h-139l37 232q-96 14 -180 41.5t-148 62.5zM389 932q0 -47 37 -78t109 -53l40 252q-98 -2 -142 -33t-44 -88zM563 227q98 4 149.5 37t51.5 94q0 53 -37 83t-123 55z" />
<glyph unicode="%" horiz-adv-x="1703" d="M37 973q0 160 96 258t264 98q84 0 150.5 -25.5t113 -72.5t71 -112.5t24.5 -145.5t-24.5 -145.5t-71 -113.5t-114 -74t-151.5 -26q-170 0 -264 99.5t-94 259.5zM205 -31l1061 1340h237l-1061 -1340h-237zM248 971q0 -90 40 -140.5t109 -50.5q66 0 107 51.5t41 139.5 q0 92 -41 143t-109 51t-107.5 -51t-39.5 -143zM948 307q0 80 24.5 145.5t72 112.5t114 73t150.5 26t150.5 -26t112.5 -73t70.5 -112.5t24.5 -145.5q0 -162 -95 -260t-265 -98t-264.5 99t-94.5 259zM1159 305q0 -92 40 -142t110 -50q68 0 107.5 51t39.5 141t-40 141.5 t-107 51.5q-70 0 -110 -51.5t-40 -141.5z" />
<glyph unicode="&#x26;" horiz-adv-x="1347" d="M41 319q0 68 24.5 124.5t64.5 99.5t93 72.5t109 43.5q-82 45 -136.5 120t-54.5 173q0 66 28 129.5t81 114.5t131 82t180 31q90 0 165 -22.5t128 -63.5t84 -98.5t31 -127.5q0 -53 -20.5 -99t-54.5 -82t-79 -61.5t-92 -39.5q35 -16 84 -55t92 -80l119 219h334l-293 -383 l307 -383l-322 -58l-159 230q-96 -119 -208 -177.5t-224 -58.5q-90 0 -166 25.5t-130.5 72t-85 111t-30.5 141.5zM332 381q0 -80 53 -126t131 -46q74 0 134.5 40.5t111.5 112.5q-72 78 -146.5 133.5t-142.5 82.5q-63 -37 -102 -87.5t-39 -109.5zM416 967q0 -66 46 -107 t120 -74q49 33 82.5 73t33.5 102q0 66 -41 102.5t-104 36.5q-61 0 -99 -40t-38 -93z" />
<glyph unicode="'" horiz-adv-x="462" d="M8 815l236 506l272 -74l-305 -432h-203z" />
<glyph unicode="(" horiz-adv-x="870" d="M115 481q0 188 54 350t140 293t194.5 227.5t217.5 153.5l166 -215q-92 -55 -177 -136t-150.5 -184.5t-105.5 -226t-40 -262.5q0 -139 40 -262t105.5 -226.5t150.5 -184t177 -136.5l-166 -215q-109 57 -217.5 153.5t-194.5 226.5t-140 292t-54 352z" />
<glyph unicode=")" horiz-adv-x="870" d="M-14 -328q90 55 176 136t151.5 184.5t105.5 226.5t40 262t-40 262t-105.5 226.5t-151.5 184.5t-176 136l164 215q109 -57 217 -153.5t195 -227.5t141.5 -292.5t54.5 -350.5q0 -190 -54.5 -352t-141.5 -292t-195.5 -226t-216.5 -154z" />
<glyph unicode="*" horiz-adv-x="806" d="M18 786l310 115v19l-305 116l153 213l201 -260l16 6l23 328l248 -82l-189 -274l12 -13l312 88v-262l-312 88l-10 -14l182 -276l-249 -80l-15 329l-18 4l-203 -258z" />
<glyph unicode="+" horiz-adv-x="1077" d="M70 371l6 237h338v348h252v-348h338l6 -237h-344v-348h-252v348h-344z" />
<glyph unicode="," horiz-adv-x="569" d="M29 -209q86 59 145 112.5t59 104.5q0 41 -39 76t-145 78q10 84 70.5 135t148.5 51q53 0 98.5 -21.5t78 -57.5t51 -83t18.5 -100q0 -70 -28.5 -130t-77 -112.5t-110.5 -95.5t-130 -80z" />
<glyph unicode="-" horiz-adv-x="761" d="M57 371v252h652v-252h-652z" />
<glyph unicode="." horiz-adv-x="569" d="M92 156q0 86 53.5 136t141.5 50q86 0 139 -50t53 -136q0 -84 -53 -135.5t-139 -51.5q-88 0 -141.5 51.5t-53.5 135.5z" />
<glyph unicode="/" horiz-adv-x="585" d="M-102 -408l497 1846h258l-497 -1846h-258z" />
<glyph unicode="0" horiz-adv-x="1175" d="M70 487q0 119 36.5 215.5t104.5 165t164 105.5t213 37q119 0 214 -37t162.5 -104.5t103.5 -162.5t36 -212q0 -119 -37 -215.5t-104.5 -165t-164 -106.5t-214.5 -38q-119 0 -214.5 37t-162 104.5t-102 164t-35.5 212.5zM375 489q0 -135 58.5 -208.5t154.5 -73.5 q94 0 152.5 73.5t58.5 208.5t-58.5 209t-154.5 74t-153.5 -74.5t-57.5 -208.5z" />
<glyph unicode="1" horiz-adv-x="792" d="M70 893l557 121v-1014h-314v688l-237 -55z" />
<glyph unicode="2" horiz-adv-x="1024" d="M59 872q86 59 204 99.5t239 40.5q98 0 176 -23.5t132 -66.5t82 -102.5t28 -131.5q0 -127 -104.5 -228.5t-303.5 -203.5h453l4 -256h-885v219q121 78 214 136.5t156.5 105.5t96.5 88t33 84q0 53 -39 84t-117 31q-68 0 -144.5 -29t-154.5 -80z" />
<glyph unicode="3" horiz-adv-x="985" d="M23 -287l36 252q72 -41 161 -69.5t175 -30.5q106 -4 169 39t63 127q0 154 -234 162q-43 2 -87 -2.5t-81 -8.5v228q68 12 130.5 27.5t110.5 39t76.5 57t28.5 84.5q0 66 -47 101t-141 35q-72 0 -146.5 -32t-142.5 -79l-69 229q86 59 192.5 99.5t243.5 40.5q96 0 179 -23.5 t142.5 -69t93 -106.5t33.5 -139q0 -57 -20.5 -106.5t-55 -89.5t-83 -71t-101.5 -49q147 -29 223 -118.5t76 -204.5q0 -98 -42 -176t-113.5 -132.5t-167 -82t-203.5 -27.5q-117 0 -217.5 25.5t-181.5 70.5z" />
<glyph unicode="4" horiz-adv-x="1173" d="M51 201l555 792h344v-737h197l6 -250h-203v-362h-295v362h-565zM358 250h312v465z" />
<glyph unicode="5" horiz-adv-x="1005" d="M45 -307l29 266q35 -16 78 -32.5t89 -29t92 -19.5t87 -7q111 0 172 49t61 139q0 80 -61.5 132.5t-202.5 52.5q-72 0 -138.5 -11.5t-117.5 -27.5l-43 49l88 729h750l6 -258h-500l-35 -256q18 2 41 3t60 1q111 0 196.5 -29.5t143 -81t87 -122t29.5 -154.5 q0 -102 -36.5 -187t-104 -148.5t-165 -98.5t-220.5 -35q-92 0 -198.5 19.5t-186.5 56.5z" />
<glyph unicode="6" horiz-adv-x="1167" d="M76 559q0 147 54 282.5t157.5 245t253 184.5t340.5 101l75 -256q-104 -18 -197 -51t-167 -81t-126 -109.5t-75 -137.5l8 -6q51 51 130 88t190 37q84 0 154.5 -26.5t122 -79t80 -127t28.5 -170.5q0 -102 -34 -190.5t-98.5 -154t-160.5 -102.5t-219 -37t-219.5 44t-163 123 t-100 186.5t-33.5 236.5zM403 457q0 -49 13.5 -94.5t38 -80t61.5 -55t84 -20.5q86 0 135 58.5t49 158.5q0 92 -49 145.5t-135 53.5q-57 0 -107.5 -21.5t-78.5 -48.5q-11 -45 -11 -96z" />
<glyph unicode="7" horiz-adv-x="1024" d="M37 713l6 270h942v-213l-549 -1126h-305l537 1069h-631z" />
<glyph unicode="8" horiz-adv-x="1095" d="M63 326q0 104 71 181t190 105q-49 23 -93.5 50.5t-76 64.5t-51 84t-19.5 107q0 84 29.5 154.5t88 121.5t148.5 80t209 29q104 0 187 -25t142.5 -71t91.5 -111.5t32 -149.5q0 -98 -62.5 -171.5t-171.5 -108.5q51 -20 97.5 -48t80 -66t54 -85t20.5 -109q0 -82 -29.5 -153.5 t-90 -123.5t-152.5 -82t-215 -30q-106 0 -194.5 23.5t-152 70t-98.5 113t-35 150.5zM358 354q0 -72 53.5 -119t145.5 -47q88 0 136 40t48 114q0 70 -66 115t-177 80q-72 -35 -106 -85.5t-34 -97.5zM381 928q0 -66 56.5 -110t162.5 -79q61 35 92 82t31 92q0 80 -46 124 t-124 44q-82 0 -127 -44t-45 -109z" />
<glyph unicode="9" horiz-adv-x="1167" d="M63 520q0 102 34 191.5t99.5 156t161 105.5t217.5 39q123 0 219.5 -44t163 -123t100.5 -187.5t34 -235.5q0 -147 -54.5 -282.5t-158 -244t-253 -183t-337.5 -101.5l-78 254q104 18 196.5 51t166 81t124 109.5t70.5 135.5l-8 6q-47 -49 -126 -86t-179 -37q-84 0 -156 26.5 t-124 77t-82 124t-30 167.5zM383 557q0 -92 49 -145.5t135 -53.5q59 0 108.5 21.5t78.5 46.5q10 47 10 98q0 49 -13.5 94.5t-38 79t-61.5 54t-84 20.5q-86 0 -135 -57.5t-49 -157.5z" />
<glyph unicode=":" horiz-adv-x="569" d="M92 156q0 86 53.5 136t141.5 50q86 0 139 -50t53 -136q0 -84 -53 -135.5t-139 -51.5q-88 0 -141.5 51.5t-53.5 135.5zM92 733q0 84 53.5 135.5t141.5 51.5q86 0 139 -51.5t53 -135.5t-53 -135t-139 -51q-88 0 -141.5 51t-53.5 135z" />
<glyph unicode=";" horiz-adv-x="569" d="M29 -209q86 59 145 112.5t59 104.5q0 41 -39 76t-145 78q10 84 70.5 135t148.5 51q53 0 98.5 -21.5t78 -57.5t51 -83t18.5 -100q0 -70 -28.5 -130t-77 -112.5t-110.5 -95.5t-130 -80zM92 733q0 84 53.5 135.5t141.5 51.5q86 0 139 -51.5t53 -135.5t-53 -135t-139 -51 q-88 0 -141.5 51t-53.5 135z" />
<glyph unicode="&#x3c;" horiz-adv-x="1024" d="M92 381v203l821 372v-249l-501 -215v-21l501 -213v-250z" />
<glyph unicode="=" horiz-adv-x="1036" d="M86 139l10 236h848l10 -236h-868zM86 821h868l-10 -235h-848z" />
<glyph unicode="&#x3e;" horiz-adv-x="1028" d="M98 8v250l502 213v21l-502 215v249l822 -372v-203z" />
<glyph unicode="?" horiz-adv-x="856" d="M90 1008l12 264q41 16 96.5 27.5t127.5 11.5q102 0 187 -30t146.5 -82t95 -123.5t33.5 -153.5q0 -61 -18 -107.5t-51 -81.5t-76 -58.5t-92 -39.5q-61 -18 -99 -33.5t-49 -42.5q0 -8 14.5 -24.5t34 -34t38 -33.5t26.5 -25q-53 -6 -94 -14q-35 -6 -66.5 -11t-40.5 -5 q-80 33 -125 98t-45 131q0 80 54.5 128t150.5 75q78 23 116 39t38 57q0 51 -54.5 79t-148.5 28q-49 0 -109.5 -11.5t-101.5 -27.5zM174 143q0 84 53.5 128t139.5 44q88 0 141 -44t53 -128q0 -86 -53 -130t-141 -44q-86 0 -139.5 44t-53.5 130z" />
<glyph unicode="@" horiz-adv-x="1755" d="M94 496q0 172 63.5 323.5t175 266t262 181t325.5 66.5q156 0 296 -49t247.5 -140t171 -221t63.5 -292q0 -137 -37 -241.5t-98.5 -174.5t-141.5 -104.5t-166 -34.5q-104 0 -174.5 43t-99.5 127q-53 -63 -117.5 -94t-128.5 -31q-59 0 -111.5 23.5t-90 67.5t-60 107.5 t-22.5 141.5q0 102 32.5 188t91 148.5t137.5 97.5t173 35q41 0 84 -12.5t84 -28.5l274 43l-104 -524q-20 -100 6 -148.5t110 -48.5q49 0 96.5 27.5t84 81t60.5 132t24 179.5q0 141 -57.5 255.5t-153 195.5t-219 125t-254.5 44q-154 0 -288 -60.5t-232.5 -163.5t-156 -240.5 t-57.5 -288.5q0 -143 49.5 -270.5t138.5 -222.5t212 -149.5t270 -54.5q68 0 132.5 11.5t127.5 31.5l25 -77q-72 -25 -141.5 -37.5t-147.5 -12.5q-166 0 -304 60.5t-239.5 165t-158 247t-56.5 306.5zM705 481q0 -80 38.5 -125t96.5 -45q41 0 69.5 14.5t53.5 34.5l67 330 q-23 23 -55.5 40.5t-73.5 17.5q-45 0 -81 -23t-61.5 -59.5t-39.5 -85t-14 -99.5z" />
<glyph unicode="A" horiz-adv-x="1316" d="M4 0l455 1280h407l447 -1280h-324l-94 272h-475l-92 -272h-324zM489 526h334l-164 502z" />
<glyph unicode="B" horiz-adv-x="1269" d="M133 0v1280h555q143 0 236.5 -25.5t148.5 -70.5t76.5 -105.5t21.5 -132.5q0 -111 -63 -178t-174 -98q123 -23 199.5 -100.5t76.5 -196.5q0 -76 -23.5 -144.5t-81.5 -119t-158.5 -80t-254.5 -29.5h-559zM449 244h219q111 0 163 35.5t52 111.5q0 82 -60.5 115t-165.5 33 h-208v-295zM449 741h192q102 0 153.5 40t51.5 112q0 143 -189 143h-208v-295z" />
<glyph unicode="C" horiz-adv-x="1255" d="M80 635q0 156 48 280.5t138 213t218 135.5t286 47q117 0 226.5 -27t197.5 -70l-98 -272q-72 43 -155 67.5t-169 24.5q-166 0 -265 -104.5t-99 -286.5q0 -184 96 -290.5t270 -106.5q94 0 180 28.5t158 75.5l68 -289q-76 -41 -192 -66.5t-228 -25.5q-154 0 -279 44 t-214 128t-138 208t-49 286z" />
<glyph unicode="D" horiz-adv-x="1394" d="M133 0v1280h481q170 0 301.5 -45t221.5 -128t137 -199t47 -259q0 -147 -48 -267t-140.5 -205t-228.5 -131t-312 -46h-459zM459 260h151q178 0 280.5 92t102.5 285q0 199 -99 291t-300 92h-135v-760z" />
<glyph unicode="E" horiz-adv-x="1157" d="M133 0v1280h936v-262h-616v-246h495v-260h-495v-250h616v-262h-936z" />
<glyph unicode="F" horiz-adv-x="1107" d="M133 0v1280h916v-268h-594v-264h473v-267h-473v-481h-322z" />
<glyph unicode="G" horiz-adv-x="1378" d="M80 635q0 158 49 282.5t139 213t217 134.5t285 46q61 0 127 -7.5t129.5 -20.5t121.5 -33.5t103 -49.5l-102 -272q-184 106 -369 106q-174 0 -275.5 -105.5t-101.5 -285.5q0 -193 94.5 -300t278.5 -107q55 0 109.5 11t95.5 27v189h-315v258h610v-633q-104 -57 -235.5 -88 t-272.5 -31q-154 0 -281 45t-217 130t-140 209t-50 282z" />
<glyph unicode="H" horiz-adv-x="1431" d="M133 0v1280h326v-498h514v498h325v-1280h-325v508h-514v-508h-326z" />
<glyph unicode="I" horiz-adv-x="598" d="M135 0v1280h326v-1280h-326z" />
<glyph unicode="J" horiz-adv-x="964" d="M18 57l66 262q66 -37 127 -58t121 -21q100 0 142 55t42 180v805h326v-829q0 -229 -110.5 -355.5t-348.5 -126.5q-104 0 -201.5 25.5t-163.5 62.5z" />
<glyph unicode="K" horiz-adv-x="1280" d="M133 0v1280h326v-565h2l426 565h373l-506 -625l518 -655h-389l-422 563h-2v-563h-326z" />
<glyph unicode="L" horiz-adv-x="1064" d="M133 0v1280h326v-1008h536v-272h-862z" />
<glyph unicode="M" horiz-adv-x="1742" d="M102 0l45 1280h461l266 -961l267 961h454l43 -1280h-309l-6 987l-281 -967h-348l-280 965l-8 -985h-304z" />
<glyph unicode="N" horiz-adv-x="1456" d="M133 0v1280h352l533 -831v831h305v-1292h-346l-539 841v-829h-305z" />
<glyph unicode="O" d="M80 637q0 152 51 276.5t141 212.5t213 136.5t267 48.5q143 0 265 -43t212 -128t141 -209t51 -286q0 -152 -51 -276.5t-142 -213.5t-214 -137.5t-266 -48.5q-141 0 -264.5 44t-212.5 128t-140 209t-51 287zM408 645q0 -92 23.5 -168t67.5 -131t108.5 -85t146.5 -30 q80 0 143.5 30t107.5 83t66.5 128t22.5 165q0 92 -23.5 168t-68 130t-109 84t-145.5 30q-164 0 -252 -112t-88 -292z" />
<glyph unicode="P" horiz-adv-x="1216" d="M133 0v1280h473q135 0 236.5 -33t171 -91t104.5 -140t35 -180q0 -225 -146.5 -344t-422.5 -119l-125 -2v-371h-326zM451 623l131 2q127 2 187 53t60 149q0 195 -247 195h-131v-399z" />
<glyph unicode="Q" d="M80 637q0 152 51 276.5t141 212.5t213 136.5t267 48.5q143 0 265 -43t212 -128t141 -209t51 -286q0 -190 -82 -333.5t-221 -227.5l352 -152l-129 -264l-567 303q-8 -2 -26 -2q-141 0 -264.5 44t-212.5 128t-140 209t-51 287zM408 645q0 -92 23.5 -169t67.5 -132 t108.5 -86t146.5 -31q164 0 252 113t88 297q0 92 -23.5 168t-68 130t-109 84t-145.5 30q-164 0 -252 -112t-88 -292z" />
<glyph unicode="R" horiz-adv-x="1263" d="M133 0v1280h514q256 0 387 -109.5t131 -296.5q0 -129 -66.5 -224t-195.5 -144l328 -506h-367l-256 430l-149 -12v-418h-326zM453 659l163 5q104 8 159.5 53t55.5 137q0 168 -241 168h-137v-363z" />
<glyph unicode="S" horiz-adv-x="1155" d="M59 86l62 270q96 -51 207.5 -84.5t230.5 -33.5q86 0 140.5 30.5t54.5 89.5q0 33 -17.5 55.5t-50.5 40t-82 33t-112 33.5q-70 18 -143 47t-133 73t-98 110.5t-38 162.5q0 178 127 287t364 109q152 0 269.5 -31t210.5 -82l-64 -268q-96 51 -206.5 81.5t-207.5 30.5 q-167 0 -167 -107q0 -32 20 -55.5t57 -41t86 -33t107 -31.5q74 -20 145.5 -49t129 -73t92 -108.5t34.5 -156.5t-34.5 -168t-101.5 -131t-164 -86t-224 -31q-143 0 -273 33t-221 84z" />
<glyph unicode="T" horiz-adv-x="1232" d="M45 1008v272h1141v-272h-408v-1008h-325v1008h-408z" />
<glyph unicode="U" horiz-adv-x="1376" d="M125 494v786h324v-743q0 -145 59 -219t188 -74q117 0 175.5 65.5t58.5 214.5v756h323v-758q0 -139 -39.5 -242.5t-113.5 -173t-178.5 -103.5t-233.5 -34q-125 0 -228.5 32t-178 96.5t-115.5 162.5t-41 234z" />
<glyph unicode="V" horiz-adv-x="1298" d="M10 1280h336l303 -965l301 965h340l-440 -1280h-408z" />
<glyph unicode="W" horiz-adv-x="1955" d="M47 1280h348l172 -905l230 905h372l234 -905l172 905h334l-342 -1280h-340l-248 911l-252 -911h-338z" />
<glyph unicode="X" horiz-adv-x="1320" d="M23 0l440 641l-428 639h366l258 -416l265 416h362l-432 -627l444 -653h-370l-273 436l-276 -436h-356z" />
<glyph unicode="Y" horiz-adv-x="1251" d="M20 1280h347l264 -506l256 506h344l-445 -795v-485h-319v487z" />
<glyph unicode="Z" horiz-adv-x="1187" d="M63 0v215l639 793h-626v272h1036v-217l-637 -789h635v-274h-1047z" />
<glyph unicode="[" horiz-adv-x="849" d="M139 -420v1837h697v-233h-416v-1372h416v-232h-697z" />
<glyph unicode="\" horiz-adv-x="598" d="M-53 1438h258l497 -1846h-258z" />
<glyph unicode="]" horiz-adv-x="851" d="M14 -188h416v1372h-416v233h699v-1837h-699v232z" />
<glyph unicode="^" horiz-adv-x="815" d="M23 1079l243 383h287l244 -383h-215l-170 219h-4l-166 -219h-219z" />
<glyph unicode="_" horiz-adv-x="1112" d="M-16 0h1144v-240h-1144v240z" />
<glyph unicode="`" horiz-adv-x="813" d="M59 1458h340l203 -379h-196z" />
<glyph unicode="a" horiz-adv-x="1046" d="M61 233q0 68 28 127.5t93.5 104.5t174 73.5t268.5 32.5v19q0 76 -40 110.5t-128 34.5q-74 0 -157 -27.5t-167 -68.5l-65 231q76 41 189.5 77t248.5 36q123 0 207 -27.5t135 -81.5q50 -54 72 -130q20 -70 20 -160v-17l-2 -282q0 -49 14.5 -61.5t63.5 -16.5l-31 -225 q-54 -7 -100 -7q-85 1 -137 25q-82 38 -115 115h-6q-51 -59 -113.5 -102.5t-161.5 -43.5q-61 0 -114.5 20.5t-92.5 56.5t-61.5 84t-22.5 103zM358 281q0 -47 33 -75t86 -28q47 0 85 17.5t63 46.5v182q-147 -16 -207 -48t-60 -95z" />
<glyph unicode="b" horiz-adv-x="1161" d="M113 -31v1385l315 39v-539q45 47 110.5 88t157.5 41q88 0 163 -35t128 -99.5t84 -155.5t31 -206q0 -119 -38 -214t-103.5 -162.5t-152.5 -103.5t-183 -36q-47 0 -107.5 11.5t-107.5 27.5zM428 246q59 -39 145 -39q102 0 157.5 72.5t55.5 191.5q0 123 -50 191.5t-148 68.5 q-53 0 -90 -18.5t-70 -46.5v-420z" />
<glyph unicode="c" horiz-adv-x="991" d="M63 469q0 119 37 214t105.5 161.5t166 102.5t216.5 36q100 0 190 -21.5t156 -58.5l-62 -237q-57 33 -122.5 53t-128.5 20q-115 0 -175.5 -71.5t-60.5 -188.5q0 -129 66.5 -196.5t177.5 -67.5q72 0 134 18.5t118 53.5l47 -240q-59 -37 -151.5 -57.5t-196.5 -20.5 q-119 0 -214.5 33t-163 96.5t-103.5 156.5t-36 214z" />
<glyph unicode="d" horiz-adv-x="1167" d="M63 465q0 119 39 214t104.5 162.5t151.5 103.5t183 36q102 0 196 -33v406l316 39v-1393h-316v98q-45 -47 -110.5 -87t-155.5 -40q-88 0 -163 35t-129 99.5t-85 155.5t-31 204zM379 481q0 -123 55 -190.5t144 -67.5q53 0 91 17.5t68 48.5v418q-27 18 -63.5 29.5 t-81.5 11.5q-100 0 -156.5 -74t-56.5 -193z" />
<glyph unicode="e" horiz-adv-x="1060" d="M61 469q0 117 38 212t106.5 161.5t164 103.5t208.5 37q203 0 310 -110.5t107 -288.5q0 -39 -5 -88.5t-15 -79.5l-604 -10v-5q8 -96 71.5 -148t180.5 -52q78 0 158.5 25.5t152.5 66.5l31 -244q-72 -37 -169.5 -57.5t-201.5 -20.5q-121 0 -219.5 33t-168 96.5t-107.5 156.5 t-38 212zM373 563l329 2v19q0 86 -35.5 134t-109.5 48q-82 0 -129 -60.5t-55 -142.5z" />
<glyph unicode="f" horiz-adv-x="759" d="M2 702l8 201l154 45l2 82q6 209 99 302t274 93q88 0 153.5 -15.5t104.5 -31.5l-9 -41q-10 -41 -21 -90t-21 -89l-9 -40q-37 14 -74.5 25.5t-84.5 11.5q-61 0 -86 -35t-25 -104v-76h266l-6 -248h-246v-692h-315v690z" />
<glyph unicode="g" horiz-adv-x="1081" d="M-4 -264q0 72 56 129.5t171 71.5q-63 18 -114.5 62t-51.5 110q0 68 55.5 127t141.5 83q-86 41 -139.5 117t-53.5 178q0 78 31 145.5t89.5 117t142.5 78t190 28.5q86 0 162 -21.5t129 -46.5l268 23l14 -256l-184 29q12 -14 19.5 -47t7.5 -58q0 -72 -31 -135t-86 -109.5 t-132 -73t-169 -26.5q-33 0 -62.5 4t-64.5 10q-20 -10 -37.5 -27.5t-17.5 -41.5q0 -33 40 -46.5t134 -13.5h112q98 0 179.5 -13t139.5 -45t90 -83t32 -127q0 -90 -49.5 -161.5t-132 -123t-190 -79t-224.5 -27.5q-96 0 -181 15.5t-147.5 46t-99.5 76.5t-37 110zM272 -203 q0 -55 64.5 -90t175.5 -35q57 0 106.5 8.5t86 26t57 41t20.5 53.5q0 57 -60 76t-185 19q-45 0 -103.5 2t-85.5 4q-33 -16 -54.5 -42t-21.5 -63zM362 612q0 -76 37 -122t113 -46q72 0 105.5 48.5t33.5 128.5q0 76 -35.5 121.5t-109.5 45.5q-68 0 -106 -48t-38 -128z" />
<glyph unicode="h" horiz-adv-x="1157" d="M113 0v1354l315 39v-572q63 72 145 117t177 45q141 0 221 -87t80 -241v-655h-316v563q0 86 -35.5 119t-95.5 33q-55 0 -100 -21.5t-76 -50.5v-643h-315z" />
<glyph unicode="i" horiz-adv-x="540" d="M84 1255q0 84 50 127t136 43q88 0 137.5 -43t49.5 -127q0 -82 -49.5 -125t-137.5 -43q-86 0 -136 43.5t-50 124.5zM113 0v936l315 39v-975h-315z" />
<glyph unicode="j" horiz-adv-x="538" d="M-55 -283q43 20 74.5 45t52 62t31 90t10.5 129v893l315 39v-952q0 -211 -67.5 -336t-235.5 -183zM84 1255q0 84 50 127t136 43q88 0 137.5 -43t49.5 -127q0 -82 -49.5 -125t-137.5 -43q-86 0 -136 43.5t-50 124.5z" />
<glyph unicode="k" horiz-adv-x="1089" d="M113 0v1354l315 39v-850h2l291 409h362l-350 -452l352 -500h-358l-297 446h-2v-446h-315z" />
<glyph unicode="l" horiz-adv-x="540" d="M113 0v1354l315 39v-1393h-315z" />
<glyph unicode="m" horiz-adv-x="1734" d="M113 0v936l315 39v-133q63 66 136 103.5t167 37.5q90 0 162 -43t106 -127q66 78 149 124t181 46q139 0 218 -88t79 -242v-653h-315v561q0 86 -35 120t-94 34q-47 0 -86 -18.5t-68 -43.5v-55v-598h-315v561q0 86 -36 120t-95 34q-47 0 -86 -16.5t-68 -41.5v-657h-315z" />
<glyph unicode="n" horiz-adv-x="1157" d="M113 0v936l315 39v-156q63 72 145 118t175 46q143 0 223 -87t80 -241v-655h-316v563q0 86 -35.5 119t-99.5 33q-53 0 -97 -21.5t-75 -50.5v-643h-315z" />
<glyph unicode="o" horiz-adv-x="1144" d="M61 473q0 121 40 216t111 160.5t165 99.5t203 34t200.5 -34t159.5 -98.5t105.5 -157.5t37.5 -214q0 -119 -41 -214t-110.5 -160.5t-163.5 -100.5t-201 -35q-106 0 -199.5 33t-161 97.5t-106.5 158.5t-39 215zM375 475q0 -123 50 -193.5t148 -70.5t147.5 71.5t49.5 194.5 q0 121 -50 193.5t-149 72.5q-98 0 -147 -72.5t-49 -195.5z" />
<glyph unicode="p" horiz-adv-x="1167" d="M113 -424v1360l315 39v-121q45 47 109.5 88t156.5 41q88 0 163 -35t129 -99.5t85 -155.5t31 -206q0 -119 -38 -214t-103.5 -162.5t-152.5 -103.5t-183 -36q-47 0 -99.5 8.5t-97.5 22.5v-426h-315zM428 246q59 -39 145 -39q102 0 157.5 72.5t55.5 191.5q0 123 -50 191.5 t-148 68.5q-53 0 -90 -18.5t-70 -46.5v-420z" />
<glyph unicode="q" horiz-adv-x="1167" d="M63 465q0 119 39 214t104.5 162.5t151.5 103.5t183 36q57 0 122.5 -13.5t106.5 -31.5l283 39v-1399h-316v522q-45 -47 -110.5 -87t-155.5 -40q-88 0 -163 35t-129 99.5t-85 155.5t-31 204zM379 481q0 -123 55 -191.5t144 -68.5q53 0 91 18.5t68 49.5v418 q-27 18 -63.5 29.5t-81.5 11.5q-100 0 -156.5 -74t-56.5 -193z" />
<glyph unicode="r" horiz-adv-x="821" d="M113 0v936l315 39v-139q84 147 229 147q82 0 158 -39l-63 -278q-55 28 -115 28h-4q-59 0 -110.5 -31.5t-94.5 -107.5v-555h-315z" />
<glyph unicode="s" horiz-adv-x="942" d="M49 53l62 228q84 -43 174 -67t174 -24q129 0 129 78q0 41 -40 60.5t-122 38.5q-82 16 -149.5 40.5t-114.5 61.5t-73 88t-26 121q0 68 29 123t82 96t132 63.5t177 22.5q47 0 100.5 -6t105.5 -17.5t99.5 -26.5t81.5 -32l-63 -225q-82 41 -171 63.5t-157 22.5 q-117 0 -117 -72q0 -39 43.5 -58.5t120.5 -35.5q84 -18 150.5 -43t113 -60.5t71 -86.5t24.5 -123q0 -63 -28 -121t-83 -101t-136 -67.5t-185 -24.5q-49 0 -104.5 5.5t-109 16.5t-103.5 26.5t-87 35.5z" />
<glyph unicode="t" horiz-adv-x="772" d="M16 702l7 201l143 47l4 217h305l-2 -227h238l-6 -248h-254l-11 -342q0 -7 -1 -13q0 -57 32 -83q35 -30 94 -29q29 0 60.5 7.5t64.5 17.5l37 -246q-55 -16 -107.5 -25.5t-123.5 -9.5q-176 0 -268 80q-84 74 -84 237q0 14 1 29l15 363z" />
<glyph unicode="u" horiz-adv-x="1142" d="M106 297v655h316v-563q0 -86 35 -119.5t96 -33.5q51 0 92 18t70 45v653h315v-938l-315 -39v142q-55 -59 -135 -103.5t-174 -44.5q-141 0 -220.5 87t-79.5 241z" />
<glyph unicode="v" horiz-adv-x="1052" d="M-8 952h338l196 -653l195 653h340l-361 -954h-356z" />
<glyph unicode="w" horiz-adv-x="1579" d="M23 952h319l129 -633l162 633h330l163 -622l111 622h328l-271 -956h-319l-182 627l-183 -627h-319z" />
<glyph unicode="x" horiz-adv-x="1017" d="M-10 0l327 485l-319 467h334l176 -274l170 274h336l-316 -463l328 -489h-334l-182 305l-180 -305h-340z" />
<glyph unicode="y" horiz-adv-x="1040" d="M-43 -381l94 240q47 -20 79 -31.5t69 -11.5q51 0 78.5 23.5t56.5 92.5l26 74l-372 946h338l202 -626l185 626h336l-344 -907l-48 -125q-37 -104 -78.5 -174t-92 -112t-111 -59t-135.5 -17q-150 0 -283 61z" />
<glyph unicode="z" horiz-adv-x="940" d="M37 0v188l446 504h-428v260h842v-188l-444 -506h444v-258h-860z" />
<glyph unicode="{" horiz-adv-x="819" d="M8 508l6 131q129 10 189.5 41t60.5 106q0 41 -10 82t-23.5 88.5t-23.5 100.5t-10 117q0 84 42 136t119.5 82.5t187 43t242.5 16.5v-192q-164 -12 -227 -43t-63 -95q0 -33 8 -68.5t19.5 -78.5t19.5 -94.5t8 -112.5q0 -104 -82 -173t-217 -77v-20q135 -10 217 -80t82 -174 q0 -61 -8 -109.5t-19.5 -89.5t-19.5 -77t-8 -70q0 -68 63.5 -101t226.5 -43v-188q-133 2 -242.5 14t-187 42t-119.5 82t-42 136q0 63 10 115.5t23.5 98.5t23.5 87t10 80q0 74 -60.5 109t-189.5 45z" />
<glyph unicode="|" horiz-adv-x="546" d="M137 -410v1846h273v-1846h-273z" />
<glyph unicode="}" horiz-adv-x="819" d="M31 -246q82 6 137 16.5t89 27t49.5 41t15.5 59.5t-8.5 70.5t-19.5 76.5t-19.5 89t-8.5 110q0 104 82 173.5t217 80.5v20q-135 8 -217 77t-82 173q0 61 8.5 112.5t19.5 94.5t19.5 79t8.5 68q0 31 -15.5 54.5t-49.5 40t-89 26.5t-137 17v192q133 -4 242.5 -16.5t186.5 -43 t119 -83t42 -135.5q0 -63 -10.5 -116.5t-23 -101t-22.5 -88.5t-10 -82q0 -76 60.5 -106.5t189.5 -40.5l6 -131l-6 -133q-129 -10 -189.5 -45t-60.5 -109q0 -39 10 -80t22.5 -87t23 -98t10.5 -116q0 -84 -42 -136t-119 -82t-186.5 -42t-242.5 -14v188z" />
<glyph unicode="~" horiz-adv-x="815" d="M14 393q10 92 28.5 151.5t47.5 95.5t66 50.5t82 14.5q49 0 94 -18.5t85 -40t73.5 -40t58.5 -18.5q27 0 41 21.5t22 82.5h189q-8 -92 -27.5 -152.5t-48.5 -96t-66.5 -50t-83.5 -14.5q-47 0 -93 18.5t-86 40t-72.5 40t-57.5 18.5q-27 0 -42 -20.5t-23 -82.5h-187z" />
<glyph unicode="&#xa1;" horiz-adv-x="622" d="M125 1135q0 82 54 128t132 46t131.5 -46t53.5 -128q0 -80 -53.5 -126t-131.5 -46t-132 46t-54 126zM133 -57l68 895h221l67 -895h-356z" />
<glyph unicode="&#xa2;" horiz-adv-x="985" d="M63 469q0 119 37 214t104.5 161.5t165 102.5t216.5 36h39l34 199h142l-37 -217q47 -10 91 -25.5t79 -36.5l-62 -237q-72 43 -149 63l-88 -518q72 2 132 22.5t114 53.5l47 -240q-59 -35 -147.5 -55.5t-186.5 -22.5l-41 -248h-141l43 259q-180 33 -286 155.5t-106 333.5z M371 479q0 -88 33.5 -149.5t93.5 -91.5l86 503q-104 -10 -158.5 -81.5t-54.5 -180.5z" />
<glyph unicode="&#xa3;" horiz-adv-x="1165" d="M39 209q117 29 173 68.5t56 125.5q0 37 -4 77t-10 81h-188l-9 141h174q-12 86 -12 164q0 104 34 187.5t96.5 139.5t149.5 87t193 31q96 0 194.5 -27t174.5 -76q-16 -63 -31 -116q-12 -45 -21.5 -82t-9.5 -41q-61 43 -134.5 67.5t-145.5 24.5q-100 0 -149.5 -58.5 t-49.5 -150.5q0 -31 4 -67.5t8 -82.5h347l-11 -141h-321q6 -57 6 -119q0 -76 -14 -133q47 -37 106.5 -59.5t116.5 -22.5q59 0 106 40t62 155l225 -41q-8 -106 -40 -184t-81 -129.5t-111.5 -75t-131.5 -23.5q-53 0 -102.5 14.5t-92.5 38t-81 52t-69 59.5q-53 -59 -137 -102 t-203 -68q-18 72 -32 125q-12 47 -23.5 85t-11.5 36z" />
<glyph unicode="&#xa4;" horiz-adv-x="1126" d="M51 414l10 143h148q-2 18 -3 37.5t-1 40.5q0 25 1 47.5t3 44.5h-148l-10 143h172q23 121 71 207t115.5 140.5t151.5 80t178 25.5q104 0 200.5 -22.5t158.5 -57.5l-62 -235q-53 31 -119.5 50t-138.5 19q-92 0 -149.5 -49t-83.5 -158h409l-8 -143h-422q-2 -16 -3 -36.5 t-1 -39.5q0 -47 6 -94h359l8 -143h-338q31 -106 92.5 -152.5t140.5 -46.5q72 0 137.5 18.5t118.5 51.5l48 -238q-59 -37 -152.5 -57.5t-204.5 -20.5q-98 0 -183 23.5t-151.5 76t-112.5 137.5t-67 208h-170z" />
<glyph unicode="&#xa5;" horiz-adv-x="1253" d="M23 1280h344l262 -481l258 481h344l-404 -641h320l-10 -141h-357v-136h357l10 -141h-361v-221h-317v221h-360l8 141h358v136h-358l-8 141h319z" />
<glyph unicode="&#xa6;" horiz-adv-x="880" d="M29 55l24 285q66 -47 129.5 -72.5t116.5 -25.5q72 0 109.5 44t37.5 150v844h326v-850q0 -231 -108.5 -345t-317.5 -114q-102 0 -183 24.5t-134 59.5z" />
<glyph unicode="&#xa7;" horiz-adv-x="1079" d="M43 578q0 88 53.5 150.5t147.5 90.5q-45 35 -73 80t-28 111q0 135 111 221t309 86q43 0 94.5 -5t104.5 -15.5t102 -26t86 -35.5l-63 -225q-82 41 -171 63.5t-157 22.5q-117 0 -117 -72q0 -23 19.5 -39t53.5 -29.5t77 -24.5t92 -24q63 -18 126.5 -40.5t116 -56.5t85 -82 t32.5 -114q0 -84 -47 -145t-139 -96q49 -35 80 -81t31 -112q0 -63 -28 -120.5t-83 -101.5t-135 -68.5t-184 -24.5q-49 0 -103.5 6t-109 16.5t-104.5 26.5t-89 37l62 225q84 -43 175 -66.5t173 -23.5q129 0 129 78q0 23 -19.5 40t-53.5 30.5t-77 24.5t-92 24 q-66 16 -134.5 35.5t-124.5 52t-92 82t-36 125.5zM291 641q0 -39 41 -66.5t105.5 -50t142 -44t151.5 -52.5q25 18 45.5 50t20.5 67q0 43 -41 70.5t-105.5 50t-141.5 44t-149 52.5q-29 -23 -49 -55.5t-20 -65.5z" />
<glyph unicode="&#xa8;" horiz-adv-x="815" d="M6 1245q0 78 46 118t118 40t118 -40t46 -118t-46 -118t-118 -40t-118 40t-46 118zM485 1245q0 78 45 118t117 40q74 0 118 -40t44 -118t-44 -118t-118 -40q-72 0 -117 40t-45 118z" />
<glyph unicode="&#xa9;" horiz-adv-x="1636" d="M59 637q0 158 59.5 296t162 241.5t240.5 164t296 60.5t296 -60.5t241.5 -164t163 -241.5t59.5 -296q0 -156 -59.5 -294t-163 -241.5t-241.5 -163t-296 -59.5t-296 59.5t-240.5 163t-162 241.5t-59.5 294zM129 637q0 -143 54.5 -269t147.5 -220.5t218 -149.5t268 -55 t269 55t219.5 149.5t147.5 220.5t54 269t-54 269t-147.5 221.5t-219 150.5t-269.5 55q-143 0 -268 -55t-218 -150.5t-147.5 -221.5t-54.5 -269zM436 637q0 188 114 299t318 111q74 0 139.5 -15.5t120.5 -38.5l-75 -207q-37 23 -86 36.5t-97 13.5q-86 0 -134 -52.5 t-48 -140.5q0 -92 45 -146.5t137 -54.5q53 0 100.5 14.5t94.5 41.5l53 -213q-43 -23 -116.5 -37.5t-143.5 -14.5q-195 0 -308.5 100.5t-113.5 303.5z" />
<glyph unicode="&#xaa;" horiz-adv-x="813" d="M39 713q0 113 100.5 188.5t335.5 85.5v27q0 47 -29.5 74.5t-89.5 27.5q-59 0 -125.5 -25.5t-119.5 -62.5l-70 176q31 25 72 44.5t87 33.5t96 22.5t97 8.5q160 0 247 -74t87 -221v-250q0 -72 26.5 -125t55.5 -90l-258 -53q-20 23 -37.5 51.5t-30.5 69.5h-8 q-35 -47 -91 -83t-128 -36q-98 0 -157.5 59.5t-59.5 151.5zM268 756q0 -41 24.5 -62.5t65.5 -21.5q31 0 65 13t52 32v157q-113 -10 -160 -40.5t-47 -77.5z" />
<glyph unicode="&#xab;" horiz-adv-x="1239" d="M35 356v246l510 309l55 -194l-281 -238v-4l281 -235l-55 -195zM618 350v256l527 328l51 -201l-287 -254v-4l287 -252l-51 -198z" />
<glyph unicode="&#xac;" horiz-adv-x="1167" d="M63 465q0 119 39 214t104.5 162.5t151.5 103.5t183 36q57 0 122.5 -13.5t106.5 -31.5l283 39v-690q0 -49 15 -61.5t62 -16.5l-30 -225q-156 -20 -238 18.5t-117 114.5q-55 -63 -119.5 -103.5t-154.5 -40.5q-88 0 -163 35t-129 99.5t-85 155.5t-31 204zM379 481 q0 -123 55 -191.5t144 -68.5q53 0 91 18.5t68 49.5v418q-27 18 -63.5 29.5t-81.5 11.5q-100 0 -156.5 -74t-56.5 -193z" />
<glyph unicode="&#xad;" horiz-adv-x="761" d="M57 371v252h652v-252h-652z" />
<glyph unicode="&#xae;" horiz-adv-x="1636" d="M59 637q0 158 59.5 296t162 241.5t240.5 164t296 60.5t296 -60.5t241.5 -164t163 -241.5t59.5 -296q0 -156 -59.5 -294t-163 -241.5t-241.5 -163t-296 -59.5t-296 59.5t-240.5 163t-162 241.5t-59.5 294zM129 637q0 -143 54.5 -269t147.5 -220.5t218 -149.5t268 -55 t269 55t219.5 149.5t147.5 220.5t54 269t-54 269t-147.5 221.5t-219 150.5t-269.5 55q-143 0 -268 -55t-218 -150.5t-147.5 -221.5t-54.5 -269zM487 264v766h371q162 0 245 -67.5t83 -184.5q0 -70 -36 -128t-110 -89l177 -297h-263l-133 248l-90 -6v-242h-244zM729 655l84 2 q125 4 125 107q0 47 -30.5 72.5t-98.5 25.5h-80v-207z" />
<glyph unicode="&#xaf;" horiz-adv-x="815" d="M37 1124l22 179h701l22 -179h-745z" />
<glyph unicode="&#xb0;" horiz-adv-x="782" d="M53 971q0 70 23.5 131t67.5 107t106.5 74t140.5 28t140.5 -28t106.5 -74t67.5 -107t23.5 -131q0 -68 -23.5 -129.5t-67.5 -107.5t-106.5 -72.5t-140.5 -26.5t-140.5 26.5t-106.5 72.5t-67.5 107.5t-23.5 129.5zM162 971q0 -45 15.5 -87t45 -75t72.5 -51.5t96 -18.5 t96 18.5t72 51.5t44 75t15 87q0 98 -59 166.5t-168 68.5t-169 -68.5t-60 -166.5z" />
<glyph unicode="&#xb1;" horiz-adv-x="1636" d="M59 637q0 158 59.5 296t162 241.5t240.5 164t296 60.5t296 -60.5t241.5 -164t163 -241.5t59.5 -296q0 -156 -59.5 -294t-163 -241.5t-241.5 -163t-296 -59.5t-296 59.5t-240.5 163t-162 241.5t-59.5 294zM129 637q0 -143 54.5 -269t147.5 -220.5t218 -149.5t268 -55 t269 55t219.5 149.5t147.5 220.5t54 269t-54 269t-147.5 221.5t-219 150.5t-269.5 55q-143 0 -268 -55t-218 -150.5t-147.5 -221.5t-54.5 -269zM535 256v768h337q170 0 259.5 -71.5t89.5 -200.5q0 -143 -95.5 -217t-263.5 -74h-78v-205h-249zM774 625l64 2q72 4 106.5 31.5 t34.5 86.5q0 109 -137 109h-68v-229z" />
<glyph unicode="&#xb4;" horiz-adv-x="813" d="M215 1079l203 379h340l-346 -379h-197z" />
<glyph unicode="&#xb5;" horiz-adv-x="1167" d="M63 471q0 115 38 209t103.5 160.5t151.5 103.5t183 37q59 0 124.5 -13.5t106.5 -31.5l285 41v-887q0 -281 -130 -406.5t-386 -125.5q-119 0 -225.5 27.5t-180.5 68.5l80 244q74 -37 153.5 -60.5t155.5 -23.5q96 0 156.5 46t60.5 173v67q-47 -51 -108.5 -82.5 t-151.5 -31.5q-86 0 -161.5 32.5t-132 95t-89.5 152.5t-33 205zM379 487q0 -121 56.5 -189.5t144.5 -68.5q53 0 91 18.5t68 49.5v410q-29 18 -64.5 29.5t-80.5 11.5q-102 0 -158.5 -72t-56.5 -189z" />
<glyph unicode="&#xb6;" horiz-adv-x="1208" d="M78 846q0 205 147.5 319.5t427.5 114.5h404v-1425h-275v555q-6 -2 -27.5 -3t-48 -2.5t-49 -1.5h-28.5q-276 0 -413.5 116t-137.5 327z" />
<glyph unicode="&#xb7;" horiz-adv-x="559" d="M92 524q0 86 53.5 136.5t141.5 50.5q86 0 139 -50.5t53 -136.5q0 -84 -53 -135t-139 -51q-88 0 -141.5 51t-53.5 135z" />
<glyph unicode="&#xb8;" horiz-adv-x="815" d="M219 -135l232 215h155q-47 -41 -86 -78q-35 -31 -69 -61.5t-50 -44.5q53 -2 100.5 -16.5t82 -40t56.5 -62.5t22 -84q0 -102 -96.5 -174t-311.5 -99l-16 146q133 6 186 33.5t53 72.5q0 57 -59.5 78t-177.5 10z" />
<glyph unicode="&#xba;" horiz-adv-x="925" d="M55 905q0 96 32 171t87 127t130 80t163 28t161.5 -28t128 -80t84 -127t29.5 -171q0 -94 -31.5 -170t-87 -128t-131 -79.5t-161.5 -27.5t-161 27.5t-128 79.5t-84 128t-31 170zM307 907q0 -100 41 -161.5t117 -61.5q74 0 113.5 59.5t39.5 159.5t-40.5 162.5t-116.5 62.5 q-74 0 -114 -60t-40 -161z" />
<glyph unicode="&#xbb;" horiz-adv-x="1249" d="M55 223l287 252v4l-287 254l51 201l525 -328v-256l-525 -325zM651 240l279 235v4l-279 238l54 194l512 -309v-246l-512 -311z" />
<glyph unicode="&#xbc;" horiz-adv-x="1468" d="M2 702l8 201l154 45l2 62q6 209 99 302t274 93q88 0 153.5 -15.5t104.5 -31.5l-9 -41q-10 -41 -21 -90t-21 -89l-9 -40q-37 14 -74.5 25.5t-84.5 11.5q-61 0 -86 -35t-25 -105v-55l405 4l2 86q6 209 99.5 302t273.5 93q88 0 154.5 -15t105.5 -32l-4 -20q-4 -19 -11 -48.5 t-15.5 -63.5t-15.5 -62.5t-11 -47.5l-4 -18q-35 14 -73 25.5t-85 11.5q-61 0 -85.5 -35t-24.5 -104v-76h264l-6 -248h-246v-692h-316v692h-393v-692h-315v690z" />
<glyph unicode="&#xbd;" horiz-adv-x="1959" d="M2 702l8 201l154 45l2 62q6 209 99 302t274 93q88 0 153.5 -15.5t104.5 -31.5l-9 -41q-10 -41 -21 -90t-21 -89l-9 -40q-37 14 -74.5 25.5t-84.5 11.5q-61 0 -86 -35t-25 -105v-55l405 4l2 86q6 209 99.5 302t273.5 93q88 0 154.5 -15t105.5 -32l-4 -20q-4 -19 -11 -48.5 t-15.5 -63.5t-15.5 -62.5t-11 -47.5l-4 -18q-35 14 -73 25.5t-85 11.5q-61 0 -85.5 -35t-24.5 -104v-76h360l315 35v-975h-315v692h-354v-692h-310v690l-393 2v-692h-315v690z" />
<glyph unicode="&#xbe;" horiz-adv-x="2007" d="M2 702l8 201l154 45l2 62q6 209 99 302t274 93q88 0 153.5 -15.5t104.5 -31.5l-9 -41q-10 -41 -21 -90t-21 -89l-9 -40q-37 14 -74.5 25.5t-84.5 11.5q-61 0 -86 -35t-25 -105v-55l405 4l2 86q6 209 99.5 302t273.5 93q88 0 154.5 -15t105.5 -32l-4 -20q-4 -19 -11 -48.5 t-15.5 -63.5t-15.5 -62.5t-11 -47.5l-4 -18q-35 14 -73 25.5t-85 11.5q-61 0 -85.5 -35t-24.5 -104v-76h264l-6 -248h-246v-692h-316v690l-393 2v-692h-315v690zM1579 0v1354l315 39v-1393h-315z" />
<glyph unicode="&#xbf;" horiz-adv-x="856" d="M68 358q0 121 69.5 187.5t167.5 97.5q61 20 99 35.5t49 40.5q0 10 -14.5 26.5t-34 34t-38 33.5t-26.5 25l94 16q35 6 66.5 10t38.5 4q82 -35 127 -99t45 -132q0 -78 -54.5 -126t-150.5 -75q-78 -23 -116 -40t-38 -58q0 -49 54.5 -77t148.5 -28q49 0 109.5 11.5 t101.5 25.5l-12 -264q-41 -16 -97.5 -26.5t-128.5 -10.5q-102 0 -187 30t-145.5 82t-94 123.5t-33.5 153.5zM293 1137q0 84 53 129t139 45t140.5 -45t54.5 -129q0 -86 -54.5 -129t-140.5 -43t-139 43t-53 129z" />
<glyph unicode="&#xc0;" horiz-adv-x="1316" d="M4 0l455 1280h407l447 -1280h-324l-94 272h-475l-92 -272h-324zM225 1747h340l203 -379h-197zM489 526h334l-164 502z" />
<glyph unicode="&#xc1;" horiz-adv-x="1316" d="M4 0l455 1280h407l447 -1280h-324l-94 272h-475l-92 -272h-324zM489 526h334l-164 502zM551 1368l203 379h340l-346 -379h-197z" />
<glyph unicode="&#xc2;" horiz-adv-x="1316" d="M4 0l455 1280h407l447 -1280h-324l-94 272h-475l-92 -272h-324zM272 1368l244 383h287l244 -383h-216l-169 219h-5l-165 -219h-220zM489 526h334l-164 502z" />
<glyph unicode="&#xc3;" horiz-adv-x="1316" d="M4 0l455 1280h407l447 -1280h-324l-94 272h-475l-92 -272h-324zM266 1389q10 92 28.5 151t47.5 95t65.5 50.5t81.5 14.5q49 0 94.5 -18.5t85.5 -40t73.5 -40t58.5 -18.5q27 0 41 21.5t22 83.5h189q-8 -92 -27.5 -152.5t-48.5 -96.5t-67 -50.5t-83 -14.5q-47 0 -93 18.5 t-86 40t-72.5 40t-57.5 18.5q-27 0 -42 -20.5t-23 -81.5h-187zM489 526h334l-164 502z" />
<glyph unicode="&#xc4;" horiz-adv-x="1316" d="M4 0l455 1280h407l447 -1280h-324l-94 272h-475l-92 -272h-324zM250 1534q0 78 46 118t118 40t118 -40t46 -118t-46.5 -118t-117.5 -40q-72 0 -118 40t-46 118zM489 526h334l-164 502zM729 1534q0 78 45 118t117 40q74 0 118 -40t44 -118t-44 -118t-118 -40 q-72 0 -117 40t-45 118z" />
<glyph unicode="&#xc5;" horiz-adv-x="1316" d="M4 0l445 1249q-76 63 -76 166q0 100 76.5 171t209.5 71q135 0 212 -68.5t77 -173.5q0 -100 -76 -164l441 -1251h-324l-94 272h-475l-92 -272h-324zM489 526h334l-164 502zM494 1417q0 -61 45 -102t120 -41q78 0 124 41t46 102t-46 100t-124 39q-76 0 -120.5 -38.5 t-44.5 -100.5z" />
<glyph unicode="&#xc6;" horiz-adv-x="1837" d="M-14 0l622 1280h1151v-262h-616v-246h510v-260h-510v-250h616v-262h-934v272h-364l-127 -272h-348zM575 532h250v539z" />
<glyph unicode="&#xc7;" horiz-adv-x="1255" d="M80 635q0 156 48 280.5t138 213t218 135.5t286 47q117 0 226.5 -27t197.5 -70l-98 -272q-72 43 -155 67.5t-169 24.5q-166 0 -265 -104.5t-99 -286.5q0 -184 96 -290.5t270 -106.5q94 0 180 28.5t158 75.5l68 -289q-37 -20 -83 -36.5t-98.5 -27.5t-107.5 -18.5t-109 -9.5 q-27 -23 -49 -43t-35 -30q53 -2 100.5 -16.5t82 -40t56 -62.5t21.5 -84q0 -102 -96 -174t-311 -99l-16 146q133 6 186 33.5t53 72.5q0 57 -59.5 78t-177.5 10l-21 105l121 112q-127 16 -230.5 66.5t-176 133.5t-111.5 199t-39 259z" />
<glyph unicode="&#xc8;" horiz-adv-x="1157" d="M133 0v1280h936v-262h-616v-246h495v-260h-495v-250h616v-262h-936zM178 1747h340l203 -379h-197z" />
<glyph unicode="&#xc9;" horiz-adv-x="1157" d="M133 0v1280h936v-262h-616v-246h495v-260h-495v-250h616v-262h-936zM489 1368l203 379h340l-346 -379h-197z" />
<glyph unicode="&#xca;" horiz-adv-x="1157" d="M133 0v1280h936v-262h-616v-246h495v-260h-495v-250h616v-262h-936zM217 1368l244 383h287l243 -383h-215l-170 219h-4l-166 -219h-219z" />
<glyph unicode="&#xcb;" horiz-adv-x="1157" d="M133 0v1280h936v-262h-616v-246h495v-260h-495v-250h616v-262h-936zM203 1534q0 78 46 118t118 40t117.5 -40t45.5 -118t-46 -118t-117 -40q-72 0 -118 40t-46 118zM682 1534q0 78 45 118t117 40q74 0 118 -40t44 -118t-44 -118t-118 -40q-72 0 -117 40t-45 118z" />
<glyph unicode="&#xcc;" horiz-adv-x="598" d="M-135 1747h340l203 -379h-197zM135 0v1280h326v-1280h-326z" />
<glyph unicode="&#xcd;" horiz-adv-x="598" d="M135 0v1280h326v-1280h-326zM180 1368l203 379h340l-346 -379h-197z" />
<glyph unicode="&#xce;" horiz-adv-x="598" d="M-88 1368l244 383h286l244 -383h-215l-170 219h-4l-166 -219h-219zM135 0v1280h326v-1280h-326z" />
<glyph unicode="&#xcf;" horiz-adv-x="598" d="M-104 1534q0 78 46 118t117 40q72 0 118 -40t46 -118t-46 -118t-118 -40t-117.5 40t-45.5 118zM135 0v1280h326v-1280h-326zM375 1534q0 78 45 118t117 40q74 0 117.5 -40t43.5 -118t-44 -118t-117 -40q-72 0 -117 40t-45 118z" />
<glyph unicode="&#xd0;" horiz-adv-x="1466" d="M31 522v250h170v508h481q170 0 301 -45t221 -128t137.5 -198.5t47.5 -259.5q0 -147 -48.5 -267t-140.5 -205t-227 -131t-311 -46h-461v522h-170zM526 260h125q88 0 163 22.5t130 69.5t86 118t31 167q0 199 -112.5 291t-313.5 92h-109v-248h260v-250h-260v-262z" />
<glyph unicode="&#xd1;" horiz-adv-x="1456" d="M133 0v1280h352l533 -831v831h305v-1292h-346l-539 841v-829h-305zM336 1389q10 92 28.5 151t47 95t65.5 50.5t82 14.5q49 0 94 -18.5t85 -40t74 -40t58 -18.5q27 0 41.5 21.5t22.5 83.5h188q-8 -92 -27.5 -152.5t-48 -96.5t-66.5 -50.5t-83 -14.5q-47 0 -93 18.5t-86 40 t-73 40t-57 18.5q-27 0 -42.5 -20.5t-23.5 -81.5h-186z" />
<glyph unicode="&#xd2;" d="M80 637q0 152 51 276.5t141 212.5t213 136.5t267 48.5q143 0 265 -43t212 -128t141 -209t51 -286q0 -152 -51 -276.5t-142 -213.5t-214 -137.5t-266 -48.5q-141 0 -264.5 44t-212.5 128t-140 209t-51 287zM317 1759h340l203 -379h-196zM408 645q0 -92 23.5 -168 t67.5 -131t108.5 -85t146.5 -30q80 0 143.5 30t107.5 83t66.5 128t22.5 165q0 92 -23.5 168t-68 130t-109 84t-145.5 30q-164 0 -252 -112t-88 -292z" />
<glyph unicode="&#xd3;" d="M80 637q0 152 51 276.5t141 212.5t213 136.5t267 48.5q143 0 265 -43t212 -128t141 -209t51 -286q0 -152 -51 -276.5t-142 -213.5t-214 -137.5t-266 -48.5q-141 0 -264.5 44t-212.5 128t-140 209t-51 287zM408 645q0 -92 23.5 -168t67.5 -131t108.5 -85t146.5 -30 q80 0 143.5 30t107.5 83t66.5 128t22.5 165q0 92 -23.5 168t-68 130t-109 84t-145.5 30q-164 0 -252 -112t-88 -292zM641 1380l203 379h340l-346 -379h-197z" />
<glyph unicode="&#xd4;" d="M80 637q0 152 51 276.5t141 212.5t213 136.5t267 48.5q143 0 265 -43t212 -128t141 -209t51 -286q0 -152 -51 -276.5t-142 -213.5t-214 -137.5t-266 -48.5q-141 0 -264.5 44t-212.5 128t-140 209t-51 287zM365 1368l243 383h287l244 -383h-215l-170 219h-4l-166 -219 h-219zM408 645q0 -92 23.5 -168t67.5 -131t108.5 -85t146.5 -30q80 0 143.5 30t107.5 83t66.5 128t22.5 165q0 92 -23.5 168t-68 130t-109 84t-145.5 30q-164 0 -252 -112t-88 -292z" />
<glyph unicode="&#xd5;" d="M80 637q0 152 51 276.5t141 212.5t213 136.5t267 48.5q143 0 265 -43t212 -128t141 -209t51 -286q0 -152 -51 -276.5t-142 -213.5t-214 -137.5t-266 -48.5q-141 0 -264.5 44t-212.5 128t-140 209t-51 287zM358 1389q10 92 29 151t47.5 95t65.5 50.5t82 14.5 q49 0 94 -18.5t85 -40t73.5 -40t58.5 -18.5q27 0 41 21.5t22 83.5h189q-8 -92 -27.5 -152.5t-48.5 -96.5t-66.5 -50.5t-82.5 -14.5q-47 0 -93.5 18.5t-86.5 40t-72.5 40t-57.5 18.5q-27 0 -42 -20.5t-23 -81.5h-187zM408 645q0 -92 23.5 -168t67.5 -131t108.5 -85t146.5 -30 q80 0 143.5 30t107.5 83t66.5 128t22.5 165q0 92 -23.5 168t-68 130t-109 84t-145.5 30q-164 0 -252 -112t-88 -292z" />
<glyph unicode="&#xd6;" d="M80 637q0 152 51 276.5t141 212.5t213 136.5t267 48.5q143 0 265 -43t212 -128t141 -209t51 -286q0 -152 -51 -276.5t-142 -213.5t-214 -137.5t-266 -48.5q-141 0 -264.5 44t-212.5 128t-140 209t-51 287zM348 1534q0 78 46 118t118 40t118 -40t46 -118t-46 -118 t-118 -40t-118 40t-46 118zM408 645q0 -92 23.5 -168t67.5 -131t108.5 -85t146.5 -30q80 0 143.5 30t107.5 83t66.5 128t22.5 165q0 92 -23.5 168t-68 130t-109 84t-145.5 30q-164 0 -252 -112t-88 -292zM827 1534q0 78 45.5 118t116.5 40q74 0 118 -40t44 -118t-44 -118 t-118 -40q-72 0 -117 40t-45 118z" />
<glyph unicode="&#xd7;" horiz-adv-x="1075" d="M70 791l166 165l303 -307l305 307l166 -165l-310 -302l308 -303l-166 -166l-303 306l-301 -306l-166 166l305 301z" />
<glyph unicode="&#xd8;" d="M82 637q0 152 51 276.5t141.5 212.5t213 136.5t266.5 48.5q156 0 280 -49q2 0 16.5 24.5t30.5 52.5l45 78h148l-125 -213q127 -82 200.5 -221t73.5 -338q0 -152 -51 -276.5t-142 -213.5t-214 -137.5t-266 -48.5q-156 0 -291 54l-94 -160h-148l129 219q-123 84 -193.5 222 t-70.5 333zM408 645q0 -193 100 -303l389 676q-68 31 -147 31q-164 0 -253 -112t-89 -292zM598 268q68 -37 158 -37q80 0 143.5 30t107.5 83t66.5 128t22.5 165q0 201 -105 311z" />
<glyph unicode="&#xd9;" horiz-adv-x="1376" d="M125 494v786h324v-743q0 -145 59 -219t188 -74q117 0 175.5 65.5t58.5 214.5v756h323v-758q0 -139 -39.5 -242.5t-113.5 -173t-178.5 -103.5t-233.5 -34q-125 0 -228.5 32t-178 96.5t-115.5 162.5t-41 234zM274 1747h340l203 -379h-196z" />
<glyph unicode="&#xda;" horiz-adv-x="1376" d="M125 494v786h324v-743q0 -145 59 -219t188 -74q117 0 175.5 65.5t58.5 214.5v756h323v-758q0 -139 -39.5 -242.5t-113.5 -173t-178.5 -103.5t-233.5 -34q-125 0 -228.5 32t-178 96.5t-115.5 162.5t-41 234zM561 1368l203 379h340l-346 -379h-197z" />
<glyph unicode="&#xdb;" horiz-adv-x="1376" d="M125 494v786h324v-743q0 -145 59 -219t188 -74q117 0 175.5 65.5t58.5 214.5v756h323v-758q0 -139 -39.5 -242.5t-113.5 -173t-178.5 -103.5t-233.5 -34q-125 0 -228.5 32t-178 96.5t-115.5 162.5t-41 234zM303 1368l244 383h287l243 -383h-215l-170 219h-4l-166 -219 h-219z" />
<glyph unicode="&#xdc;" horiz-adv-x="1376" d="M125 494v786h324v-743q0 -145 59 -219t188 -74q117 0 175.5 65.5t58.5 214.5v756h323v-758q0 -139 -39.5 -242.5t-113.5 -173t-178.5 -103.5t-233.5 -34q-125 0 -228.5 32t-178 96.5t-115.5 162.5t-41 234zM287 1534q0 78 46 118t118 40t117.5 -40t45.5 -118t-46 -118 t-117 -40q-72 0 -118 40t-46 118zM766 1534q0 78 45 118t117 40q74 0 118 -40t44 -118t-44.5 -118t-117.5 -40q-72 0 -117 40t-45 118z" />
<glyph unicode="&#xdd;" horiz-adv-x="1251" d="M20 1280h347l264 -506l256 506h344l-445 -795v-485h-319v487zM512 1368l203 379h340l-346 -379h-197z" />
<glyph unicode="&#xde;" horiz-adv-x="1212" d="M133 0v1280h326v-178h147q135 0 236.5 -33t171 -91t104.5 -140.5t35 -180.5q0 -227 -146.5 -344.5t-422.5 -119.5h-125v-193h-326zM451 442l129 2q249 6 249 205q0 195 -247 195h-131v-402z" />
<glyph unicode="&#xdf;" horiz-adv-x="1511" d="M2 702l8 201l154 45l2 82q6 209 99 302t274 93q88 0 153.5 -15.5t104.5 -31.5l-9 -41q-10 -41 -21 -90t-21 -89l-9 -40q-37 14 -76.5 25.5t-82.5 11.5q-57 0 -81 -36t-24 -105v-1014h-307v690zM618 53l62 228q84 -43 174 -67t174 -24q127 0 127 78q0 41 -39 60.5 t-121 38.5q-82 16 -149.5 40.5t-114.5 61.5t-72.5 88t-25.5 121q0 68 28.5 123t82 96t132 63.5t177.5 22.5q47 0 100 -6t105.5 -17.5t98.5 -26.5t81 -32l-62 -225q-82 41 -172 63.5t-155 22.5q-117 0 -117 -72q0 -39 42 -58.5t122 -35.5q84 -18 150.5 -43t112.5 -60.5 t70.5 -86.5t24.5 -123q0 -63 -27.5 -121t-83 -101t-136.5 -67.5t-185 -24.5q-49 0 -104.5 5.5t-108.5 16.5t-103.5 26.5t-87.5 35.5z" />
<glyph unicode="&#xe0;" horiz-adv-x="1046" d="M61 233q0 68 28 127.5t93.5 104.5t174 73.5t268.5 32.5v19q0 76 -40 110.5t-128 34.5q-74 0 -157 -27.5t-167 -68.5l-65 231q76 41 189.5 77t248.5 36q123 0 207 -27.5t135 -81t72.5 -130t19.5 -177.5l-2 -282q0 -49 14.5 -61.5t63.5 -16.5l-31 -225 q-156 -20 -237.5 17.5t-114.5 115.5h-6q-51 -59 -113.5 -102.5t-161.5 -43.5q-61 0 -114.5 20.5t-92.5 56.5t-61.5 84t-22.5 103zM68 1458h340l202 -379h-196zM358 281q0 -47 33 -75t86 -28q47 0 85 17.5t63 46.5v182q-147 -16 -207 -48t-60 -95z" />
<glyph unicode="&#xe1;" horiz-adv-x="1046" d="M61 233q0 68 28 127.5t93.5 104.5t174 73.5t268.5 32.5v19q0 76 -40 110.5t-128 34.5q-74 0 -157 -27.5t-167 -68.5l-65 231q76 41 189.5 77t248.5 36q123 0 207 -27.5t135 -81t72.5 -130t19.5 -177.5l-2 -282q0 -49 14.5 -61.5t63.5 -16.5l-31 -225 q-156 -20 -237.5 17.5t-114.5 115.5h-6q-51 -59 -113.5 -102.5t-161.5 -43.5q-61 0 -114.5 20.5t-92.5 56.5t-61.5 84t-22.5 103zM358 281q0 -47 33 -75t86 -28q47 0 85 17.5t63 46.5v182q-147 -16 -207 -48t-60 -95zM362 1079l203 379h340l-346 -379h-197z" />
<glyph unicode="&#xe2;" horiz-adv-x="1046" d="M61 233q0 68 28 127.5t93.5 104.5t174 73.5t268.5 32.5v19q0 76 -40 110.5t-128 34.5q-74 0 -157 -27.5t-167 -68.5l-65 231q76 41 189.5 77t248.5 36q123 0 207 -27.5t135 -81t72.5 -130t19.5 -177.5l-2 -282q0 -49 14.5 -61.5t63.5 -16.5l-31 -225 q-156 -20 -237.5 17.5t-114.5 115.5h-6q-51 -59 -113.5 -102.5t-161.5 -43.5q-61 0 -114.5 20.5t-92.5 56.5t-61.5 84t-22.5 103zM109 1079l243 383h287l244 -383h-215l-170 219h-4l-166 -219h-219zM358 281q0 -47 33 -75t86 -28q47 0 85 17.5t63 46.5v182 q-147 -16 -207 -48t-60 -95z" />
<glyph unicode="&#xe3;" horiz-adv-x="1046" d="M61 233q0 68 28 127.5t93.5 104.5t174 73.5t268.5 32.5v19q0 76 -40 110.5t-128 34.5q-74 0 -157 -27.5t-167 -68.5l-65 231q76 41 189.5 77t248.5 36q123 0 207 -27.5t135 -81t72.5 -130t19.5 -177.5l-2 -282q0 -49 14.5 -61.5t63.5 -16.5l-31 -225 q-156 -20 -237.5 17.5t-114.5 115.5h-6q-51 -59 -113.5 -102.5t-161.5 -43.5q-61 0 -114.5 20.5t-92.5 56.5t-61.5 84t-22.5 103zM115 1100q10 92 28.5 151.5t47 95t65.5 50t82 14.5q49 0 94 -18.5t85 -40t74 -40t58 -18.5q27 0 41.5 21.5t22.5 83.5h188 q-8 -92 -27.5 -152.5t-48 -96.5t-66.5 -50.5t-83 -14.5q-47 0 -93 18.5t-86 40t-73 40t-57 18.5q-27 0 -42.5 -20.5t-23.5 -81.5h-186zM358 281q0 -47 33 -75t86 -28q47 0 85 17.5t63 46.5v182q-147 -16 -207 -48t-60 -95z" />
<glyph unicode="&#xe4;" horiz-adv-x="1046" d="M61 233q0 68 28 127.5t93.5 104.5t174 73.5t268.5 32.5v19q0 76 -40 110.5t-128 34.5q-74 0 -157 -27.5t-167 -68.5l-65 231q76 41 189.5 77t248.5 36q123 0 207 -27.5t135 -81t72.5 -130t19.5 -177.5l-2 -282q0 -49 14.5 -61.5t63.5 -16.5l-31 -225 q-156 -20 -237.5 17.5t-114.5 115.5h-6q-51 -59 -113.5 -102.5t-161.5 -43.5q-61 0 -114.5 20.5t-92.5 56.5t-61.5 84t-22.5 103zM106 1231q0 78 46.5 118t117.5 40q72 0 118 -40t46 -118t-46 -118t-118 -40t-118 40t-46 118zM358 281q0 -47 33 -75t86 -28q47 0 85 17.5 t63 46.5v182q-147 -16 -207 -48t-60 -95zM586 1231q0 78 45 118t117 40q74 0 117.5 -40t43.5 -118t-44 -118t-117 -40q-72 0 -117 40t-45 118z" />
<glyph unicode="&#xe5;" horiz-adv-x="1046" d="M61 233q0 68 28 127.5t93.5 104.5t174 73.5t268.5 32.5v19q0 76 -40 110.5t-128 34.5q-74 0 -157 -27.5t-167 -68.5l-65 231q76 41 189.5 77t248.5 36q123 0 207 -27.5t135 -81t72.5 -130t19.5 -177.5l-2 -282q0 -49 14.5 -61.5t63.5 -16.5l-31 -225 q-156 -20 -237.5 17.5t-114.5 115.5h-6q-51 -59 -113.5 -102.5t-161.5 -43.5q-61 0 -114.5 20.5t-92.5 56.5t-61.5 84t-22.5 103zM195 1311q0 102 76.5 171.5t211.5 69.5t212 -68.5t77 -172.5q2 -102 -76 -172t-213 -70t-211.5 69.5t-76.5 172.5zM317 1313 q0 -61 45.5 -102.5t120.5 -41.5q78 0 123 41.5t45 102.5t-45 100t-123 39q-76 0 -121 -39t-45 -100zM358 281q0 -47 33 -75t86 -28q47 0 85 17.5t63 46.5v182q-147 -16 -207 -48t-60 -95z" />
<glyph unicode="&#xe6;" horiz-adv-x="1609" d="M61 233q0 68 29 128.5t96.5 105.5t178 73.5t272.5 30.5v17q0 80 -46 113.5t-134 33.5q-74 0 -157 -27.5t-167 -68.5l-65 231q76 41 191.5 76t250.5 35q121 0 198.5 -26.5t127.5 -73.5q59 47 131.5 74.5t169.5 27.5q100 0 176 -30.5t127 -84t76.5 -126t25.5 -158.5 q0 -39 -5 -88.5t-15 -79.5l-607 -10v-5q10 -96 74 -148t180 -52q78 0 158 25.5t152 66.5l30 -244q-72 -37 -168 -57.5t-200 -20.5q-147 0 -255.5 52.5t-174.5 144.5q-66 -82 -154 -140.5t-205 -58.5q-61 0 -114.5 20.5t-92.5 56.5t-61.5 84t-22.5 103zM358 281q0 -47 34 -75 t87 -28q47 0 95.5 23.5t87.5 64.5q-10 31 -17.5 77t-9.5 81q-147 -12 -212 -45t-65 -98zM920 563l327 2q2 4 2 9.5v9.5q0 86 -35.5 134t-111.5 48q-80 0 -127 -60.5t-55 -142.5z" />
<glyph unicode="&#xe7;" horiz-adv-x="993" d="M63 469q0 119 37 214t105.5 161.5t166 102.5t216.5 36q100 0 190 -21.5t156 -58.5l-62 -237q-57 33 -122.5 53t-128.5 20q-115 0 -175.5 -71.5t-60.5 -188.5q0 -129 66.5 -196.5t177.5 -67.5q72 0 134 18.5t118 53.5l47 -240q-53 -33 -130 -52.5t-165 -23.5 q-27 -25 -49.5 -45t-34.5 -30q53 -2 100 -16.5t82 -40t56.5 -62.5t21.5 -84q0 -102 -96.5 -174t-311.5 -99l-16 146q133 6 186.5 33.5t53.5 72.5q0 57 -59.5 78t-178.5 10l-20 105l118 110q-197 25 -309.5 150t-112.5 344z" />
<glyph unicode="&#xe8;" horiz-adv-x="1058" d="M61 469q0 117 38 212t106.5 161.5t164 103.5t208.5 37q203 0 310 -110.5t107 -288.5q0 -39 -5 -88.5t-15 -79.5l-604 -10v-5q8 -96 71.5 -148t180.5 -52q78 0 158.5 25.5t152.5 66.5l31 -244q-72 -37 -169.5 -57.5t-201.5 -20.5q-121 0 -219.5 33t-168 96.5t-107.5 156.5 t-38 212zM127 1458h340l203 -379h-197zM373 563l329 2v19q0 86 -35.5 134t-109.5 48q-82 0 -129 -60.5t-55 -142.5z" />
<glyph unicode="&#xe9;" horiz-adv-x="1058" d="M61 469q0 117 38 212t106.5 161.5t164 103.5t208.5 37q203 0 310 -110.5t107 -288.5q0 -39 -5 -88.5t-15 -79.5l-604 -10v-5q8 -96 71.5 -148t180.5 -52q78 0 158.5 25.5t152.5 66.5l31 -244q-72 -37 -169.5 -57.5t-201.5 -20.5q-121 0 -219.5 33t-168 96.5t-107.5 156.5 t-38 212zM373 563l329 2v19q0 86 -35.5 134t-109.5 48q-82 0 -129 -60.5t-55 -142.5zM426 1079l203 379h340l-346 -379h-197z" />
<glyph unicode="&#xea;" horiz-adv-x="1058" d="M61 469q0 117 38 212t106.5 161.5t164 103.5t208.5 37q203 0 310 -110.5t107 -288.5q0 -39 -5 -88.5t-15 -79.5l-604 -10v-5q8 -96 71.5 -148t180.5 -52q78 0 158.5 25.5t152.5 66.5l31 -244q-72 -37 -169.5 -57.5t-201.5 -20.5q-121 0 -219.5 33t-168 96.5t-107.5 156.5 t-38 212zM143 1079l244 383h287l244 -383h-216l-170 219h-4l-166 -219h-219zM373 563l329 2v19q0 86 -35.5 134t-109.5 48q-82 0 -129 -60.5t-55 -142.5z" />
<glyph unicode="&#xeb;" horiz-adv-x="1058" d="M61 469q0 117 38 212t106.5 161.5t164 103.5t208.5 37q203 0 310 -110.5t107 -288.5q0 -39 -5 -88.5t-15 -79.5l-604 -10v-5q8 -96 71.5 -148t180.5 -52q78 0 158.5 25.5t152.5 66.5l31 -244q-72 -37 -169.5 -57.5t-201.5 -20.5q-121 0 -219.5 33t-168 96.5t-107.5 156.5 t-38 212zM143 1231q0 78 46.5 118t117.5 40q72 0 118 -40t46 -118t-46 -118t-118 -40t-118 40t-46 118zM373 563l329 2v19q0 86 -35.5 134t-109.5 48q-82 0 -129 -60.5t-55 -142.5zM623 1231q0 78 45 118t116 40q74 0 118 -40t44 -118t-44 -118t-118 -40q-72 0 -116.5 40 t-44.5 118z" />
<glyph unicode="&#xec;" horiz-adv-x="540" d="M-141 1458h340l202 -379h-196zM121 0v942l315 27v-969h-315z" />
<glyph unicode="&#xed;" horiz-adv-x="540" d="M121 0v942l315 27v-969h-315zM150 1079l202 379h340l-346 -379h-196z" />
<glyph unicode="&#xee;" horiz-adv-x="540" d="M-106 1079l243 383h287l244 -383h-215l-170 219h-4l-166 -219h-219zM121 0v942l315 27v-969h-315z" />
<glyph unicode="&#xef;" horiz-adv-x="540" d="M-123 1231q0 78 46 118t118 40t118 -40t46 -118t-46 -118t-118 -40t-118 40t-46 118zM121 0v942l315 27v-969h-315zM356 1231q0 78 45 118t117 40q74 0 118 -40t44 -118t-44 -118t-118 -40q-72 0 -117 40t-45 118z" />
<glyph unicode="&#xf0;" horiz-adv-x="1177" d="M70 457q0 119 38.5 207t98 146t133.5 87t143 29q72 0 126.5 -22.5t99.5 -63.5l4 2q-33 55 -87.5 122.5t-113.5 127.5q2 0 -38 -10.5t-87 -22.5q-55 -14 -125 -33l-41 166l150 39q-41 35 -79 65.5t-73 57.5l348 67q33 -25 64 -50t59 -52l250 65l43 -167l-156 -39 q121 -135 201 -296t80 -339q0 -121 -36 -225.5t-105.5 -182.5t-169 -122t-226.5 -44q-109 0 -200.5 34t-158.5 97.5t-104.5 153.5t-37.5 203zM387 459q0 -123 59.5 -181.5t141.5 -58.5q86 0 140 65.5t54 184.5q0 49 -8 92t-20 82q-25 27 -71 44.5t-103 17.5 q-84 0 -138.5 -65t-54.5 -181z" />
<glyph unicode="&#xf1;" horiz-adv-x="1157" d="M113 0v936l315 39v-156q63 72 145 118t175 46q143 0 223 -87t80 -241v-655h-316v563q0 86 -35.5 119t-99.5 33q-53 0 -97 -21.5t-75 -50.5v-643h-315zM186 1100q10 92 28.5 151.5t47.5 95t66 50t82 14.5q49 0 94 -18.5t85 -40t73.5 -40t58.5 -18.5q27 0 41 21.5t22 83.5 h189q-8 -92 -27.5 -152.5t-48.5 -96.5t-66.5 -50.5t-82.5 -14.5q-47 0 -93.5 18.5t-86.5 40t-72.5 40t-57.5 18.5q-27 0 -42 -20.5t-23 -81.5h-187z" />
<glyph unicode="&#xf2;" horiz-adv-x="1144" d="M61 473q0 121 40 216t111 160.5t165 99.5t203 34t200.5 -34t159.5 -98.5t105.5 -157.5t37.5 -214q0 -119 -41 -214t-110.5 -160.5t-163.5 -100.5t-201 -35q-106 0 -199.5 33t-161 97.5t-106.5 158.5t-39 215zM180 1458h340l203 -379h-197zM375 475q0 -123 50 -193.5 t148 -70.5t147.5 71.5t49.5 194.5q0 121 -50 193.5t-149 72.5q-98 0 -147 -72.5t-49 -195.5z" />
<glyph unicode="&#xf3;" horiz-adv-x="1144" d="M61 473q0 121 40 216t111 160.5t165 99.5t203 34t200.5 -34t159.5 -98.5t105.5 -157.5t37.5 -214q0 -119 -41 -214t-110.5 -160.5t-163.5 -100.5t-201 -35q-106 0 -199.5 33t-161 97.5t-106.5 158.5t-39 215zM375 475q0 -123 50 -193.5t148 -70.5t147.5 71.5t49.5 194.5 q0 121 -50 193.5t-149 72.5q-98 0 -147 -72.5t-49 -195.5zM438 1079l203 379h340l-346 -379h-197z" />
<glyph unicode="&#xf4;" horiz-adv-x="1144" d="M61 473q0 121 40 216t111 160.5t165 99.5t203 34t200.5 -34t159.5 -98.5t105.5 -157.5t37.5 -214q0 -119 -41 -214t-110.5 -160.5t-163.5 -100.5t-201 -35q-106 0 -199.5 33t-161 97.5t-106.5 158.5t-39 215zM195 1079l243 383h287l244 -383h-215l-170 219h-4l-166 -219 h-219zM375 475q0 -123 50 -193.5t148 -70.5t147.5 71.5t49.5 194.5q0 121 -50 193.5t-149 72.5q-98 0 -147 -72.5t-49 -195.5z" />
<glyph unicode="&#xf5;" horiz-adv-x="1144" d="M61 473q0 121 40 216t111 160.5t165 99.5t203 34t200.5 -34t159.5 -98.5t105.5 -157.5t37.5 -214q0 -119 -41 -214t-110.5 -160.5t-163.5 -100.5t-201 -35q-106 0 -199.5 33t-161 97.5t-106.5 158.5t-39 215zM186 1100q10 92 28.5 151.5t47.5 95t66 50t82 14.5 q49 0 94 -18.5t85 -40t73.5 -40t58.5 -18.5q27 0 41 21.5t22 83.5h189q-8 -92 -27.5 -152.5t-48.5 -96.5t-66.5 -50.5t-82.5 -14.5q-47 0 -93.5 18.5t-86.5 40t-72.5 40t-57.5 18.5q-27 0 -42 -20.5t-23 -81.5h-187zM375 475q0 -123 50 -193.5t148 -70.5t147.5 71.5 t49.5 194.5q0 121 -50 193.5t-149 72.5q-98 0 -147 -72.5t-49 -195.5z" />
<glyph unicode="&#xf6;" horiz-adv-x="1144" d="M61 473q0 121 40 216t111 160.5t165 99.5t203 34t200.5 -34t159.5 -98.5t105.5 -157.5t37.5 -214q0 -119 -41 -214t-110.5 -160.5t-163.5 -100.5t-201 -35q-106 0 -199.5 33t-161 97.5t-106.5 158.5t-39 215zM178 1231q0 78 46 118t118 40t118 -40t46 -118t-46 -118 t-118 -40t-118 40t-46 118zM375 475q0 -123 50 -193.5t148 -70.5t147.5 71.5t49.5 194.5q0 121 -50 193.5t-149 72.5q-98 0 -147 -72.5t-49 -195.5zM657 1231q0 78 45.5 118t116.5 40q74 0 118 -40t44 -118t-44 -118t-118 -40q-72 0 -117 40t-45 118z" />
<glyph unicode="&#xf7;" horiz-adv-x="1077" d="M70 371l6 237h928l6 -237h-940zM375 111q0 72 46 115.5t120 43.5t120 -43.5t46 -115.5t-46.5 -116t-119.5 -44q-74 0 -120 44t-46 116zM375 868q0 72 45 116t119 44q76 0 122 -44t46 -116t-46.5 -115.5t-121.5 -43.5q-74 0 -119 44t-45 115z" />
<glyph unicode="&#xf8;" horiz-adv-x="1144" d="M72 475q0 119 40 213t108.5 159.5t162.5 100.5t205 35q106 0 198 -35l78 129h148l-111 -190q88 -63 139.5 -168t51.5 -244q0 -119 -40 -212t-109 -158.5t-163 -100.5t-202 -35q-53 0 -101.5 8.5t-95.5 24.5l-80 -139h-149l114 198q-92 66 -143 169.5t-51 244.5zM373 483 q0 -102 41 -186l260 448q-43 29 -99 29q-98 0 -150 -78t-52 -213zM498 205q23 -10 44 -15.5t46 -5.5q98 0 150.5 78t52.5 211q0 92 -37 180z" />
<glyph unicode="&#xf9;" horiz-adv-x="1142" d="M106 297v655h316v-563q0 -86 35 -119.5t96 -33.5q51 0 92 18t70 45v653h315v-938l-315 -39v142q-55 -59 -135 -103.5t-174 -44.5q-141 0 -220.5 87t-79.5 241zM141 1458h340l203 -379h-197z" />
<glyph unicode="&#xfa;" horiz-adv-x="1142" d="M106 297v655h316v-563q0 -86 35 -119.5t96 -33.5q51 0 92 18t70 45v653h315v-938l-315 -39v142q-55 -59 -135 -103.5t-174 -44.5q-141 0 -220.5 87t-79.5 241zM459 1079l203 379h339l-346 -379h-196z" />
<glyph unicode="&#xfb;" horiz-adv-x="1142" d="M106 297v655h316v-563q0 -86 35 -119.5t96 -33.5q51 0 92 18t70 45v653h315v-938l-315 -39v142q-55 -59 -135 -103.5t-174 -44.5q-141 0 -220.5 87t-79.5 241zM184 1079l244 383h287l243 -383h-215l-170 219h-4l-166 -219h-219z" />
<glyph unicode="&#xfc;" horiz-adv-x="1142" d="M106 297v655h316v-563q0 -86 35 -119.5t96 -33.5q51 0 92 18t70 45v653h315v-938l-315 -39v142q-55 -59 -135 -103.5t-174 -44.5q-141 0 -220.5 87t-79.5 241zM168 1231q0 78 46 118t118 40t118 -40t46 -118t-46.5 -118t-117.5 -40q-72 0 -118 40t-46 118zM647 1231 q0 78 45 118t117 40q74 0 118 -40t44 -118t-44 -118t-118 -40q-72 0 -117 40t-45 118z" />
<glyph unicode="&#xfd;" horiz-adv-x="1040" d="M-43 -381l94 240q47 -20 79 -31.5t69 -11.5q51 0 78.5 23.5t56.5 92.5l26 74l-372 946h338l202 -626l185 626h336l-344 -907l-48 -125q-37 -104 -78.5 -174t-92 -112t-111 -59t-135.5 -17q-150 0 -283 61zM393 1079l203 379h340l-346 -379h-197z" />
<glyph unicode="&#xfe;" horiz-adv-x="1167" d="M113 -432v1786l315 39v-535q45 43 109.5 84t152.5 41q90 0 166 -35t130 -99.5t85 -155.5t31 -206q0 -119 -38 -214t-103.5 -162.5t-152.5 -103.5t-183 -36q-47 0 -99.5 8.5t-97.5 22.5v-434h-315zM428 246q59 -39 145 -39q102 0 157.5 72.5t55.5 191.5q0 123 -50 191.5 t-148 68.5q-53 0 -90 -18.5t-70 -46.5v-420z" />
<glyph unicode="&#xff;" horiz-adv-x="1040" d="M-43 -381l94 240q47 -20 79 -31.5t69 -11.5q51 0 78.5 23.5t56.5 92.5l26 74l-372 946h338l202 -626l185 626h336l-344 -907l-48 -125q-37 -104 -78.5 -174t-92 -112t-111 -59t-135.5 -17q-150 0 -283 61zM115 1245q0 78 46 118t118 40t117.5 -40t45.5 -118t-46 -118 t-117 -40q-72 0 -118 40t-46 118zM594 1245q0 78 45 118t117 40q74 0 118 -40t44 -118t-44.5 -118t-117.5 -40q-72 0 -117 40t-45 118z" />
<glyph unicode="&#x152;" horiz-adv-x="1964" d="M82 631q0 147 46 267t136 205t223.5 131t309.5 46h1089v-262h-610v-246h504v-260h-504v-250h610v-262h-1098q-170 0 -301 45t-221 128t-137 198.5t-47 259.5zM408 643q0 -199 100 -291t301 -92h141v760h-157q-180 0 -282.5 -92t-102.5 -285z" />
<glyph unicode="&#x153;" horiz-adv-x="1726" d="M61 473q0 121 40 216t111 160.5t165 99.5t203 34q100 0 184 -32.5t145 -92.5q63 59 148.5 92t187.5 33q205 0 310.5 -110.5t105.5 -288.5q0 -39 -5 -88.5t-16 -79.5l-604 -10v-5q10 -96 72.5 -148t179.5 -52q78 0 159 25.5t152 66.5l31 -244q-72 -37 -169 -57.5 t-201 -20.5q-121 0 -204 33t-151 94q-133 -129 -338 -129q-106 0 -199.5 33t-161 97.5t-106.5 158.5t-39 215zM375 475q0 -123 50 -193.5t148 -70.5t147.5 71.5t49.5 194.5q0 121 -50 193.5t-149 72.5q-98 0 -147 -72.5t-49 -195.5zM1038 563l330 2v19q0 86 -35 134t-110 48 q-82 0 -129 -60.5t-56 -142.5z" />
<glyph unicode="&#x178;" horiz-adv-x="1251" d="M20 1280h347l264 -506l256 506h344l-445 -795v-485h-319v487zM223 1534q0 78 46 118t118 40t118 -40t46 -118t-46 -118t-118 -40t-118 40t-46 118zM702 1534q0 78 45.5 118t116.5 40q74 0 118 -40t44 -118t-44 -118t-118 -40q-72 0 -117 40t-45 118z" />
<glyph unicode="&#x2c6;" horiz-adv-x="815" d="M23 1079l243 383h287l244 -383h-215l-170 219h-4l-166 -219h-219z" />
<glyph unicode="&#x2dc;" horiz-adv-x="813" d="M14 1100q10 92 28.5 151.5t47.5 95t66 50t82 14.5q49 0 94 -18.5t85 -40t73.5 -40t58.5 -18.5q27 0 41 21.5t22 83.5h189q-8 -92 -27.5 -152.5t-48.5 -96.5t-66.5 -50.5t-83.5 -14.5q-47 0 -93 18.5t-86 40t-72.5 40t-57.5 18.5q-27 0 -42 -20.5t-23 -81.5h-187z" />
<glyph unicode="&#x2000;" horiz-adv-x="879" />
<glyph unicode="&#x2001;" horiz-adv-x="1759" />
<glyph unicode="&#x2002;" horiz-adv-x="879" />
<glyph unicode="&#x2003;" horiz-adv-x="1759" />
<glyph unicode="&#x2004;" horiz-adv-x="586" />
<glyph unicode="&#x2005;" horiz-adv-x="439" />
<glyph unicode="&#x2006;" horiz-adv-x="293" />
<glyph unicode="&#x2007;" horiz-adv-x="293" />
<glyph unicode="&#x2008;" horiz-adv-x="219" />
<glyph unicode="&#x2009;" horiz-adv-x="351" />
<glyph unicode="&#x200a;" horiz-adv-x="97" />
<glyph unicode="&#x2010;" horiz-adv-x="761" d="M57 371v252h652v-252h-652z" />
<glyph unicode="&#x2011;" horiz-adv-x="761" d="M57 371v252h652v-252h-652z" />
<glyph unicode="&#x2012;" horiz-adv-x="761" d="M57 371v252h652v-252h-652z" />
<glyph unicode="&#x2013;" horiz-adv-x="1077" d="M51 373l6 239h965l6 -239h-977z" />
<glyph unicode="&#x2014;" horiz-adv-x="2039" d="M51 373l6 239h1928l6 -239h-1940z" />
<glyph unicode="&#x2018;" horiz-adv-x="555" d="M43 928q0 70 28.5 130t77 112.5t111 95.5t129.5 77l139 -120q-86 -59 -145 -112.5t-59 -104.5q0 -41 39 -75t145 -79q-10 -84 -71.5 -134t-149.5 -50q-53 0 -98.5 21.5t-77 56t-50 83t-18.5 99.5z" />
<glyph unicode="&#x2019;" horiz-adv-x="555" d="M29 813q86 59 145 111.5t59 103.5q0 41 -39 76t-145 80q10 84 70.5 134t148.5 50q53 0 98.5 -21.5t78 -56.5t51 -82t18.5 -100q0 -70 -28.5 -131.5t-77 -112.5t-110.5 -94t-130 -80z" />
<glyph unicode="&#x201a;" horiz-adv-x="555" d="M29 -203q86 59 145 111.5t59 103.5q0 41 -39 76t-145 80q10 84 70.5 134t148.5 50q53 0 98.5 -21.5t78 -56t51 -82t18.5 -100.5q0 -70 -28.5 -131t-77 -112.5t-110.5 -94.5t-130 -80z" />
<glyph unicode="&#x201c;" horiz-adv-x="1105" d="M43 928q0 70 28.5 130t77 112.5t111 95.5t129.5 77l139 -120q-86 -59 -145 -112.5t-59 -104.5q0 -41 39 -75t145 -79q-10 -84 -71.5 -134t-149.5 -50q-53 0 -98.5 21.5t-77 56t-50 83t-18.5 99.5zM592 928q0 70 28.5 130t76.5 112.5t110.5 95.5t130.5 77l139 -120 q-86 -59 -145.5 -112.5t-59.5 -104.5q0 -41 39.5 -75t145.5 -79q-10 -84 -71.5 -134t-149.5 -50q-53 0 -98.5 21.5t-77 56t-50 83t-18.5 99.5z" />
<glyph unicode="&#x201d;" horiz-adv-x="1105" d="M29 813q86 59 145 111.5t59 103.5q0 41 -39 76t-145 80q10 84 70.5 134t148.5 50q53 0 98.5 -21.5t78 -56.5t51 -82t18.5 -100q0 -70 -28.5 -131.5t-77 -112.5t-110.5 -94t-130 -80zM578 813q86 59 145 111.5t59 103.5q0 41 -39 76t-145 80q10 84 70.5 134t150.5 50 q53 0 98.5 -21.5t78 -56.5t50 -82t17.5 -100q0 -70 -28.5 -131.5t-77 -112.5t-111 -94t-129.5 -80z" />
<glyph unicode="&#x201e;" horiz-adv-x="1095" d="M29 -203q86 59 145 111.5t59 103.5q0 41 -39 76t-145 80q10 84 70.5 134t148.5 50q53 0 98.5 -21.5t78 -56t51 -82t18.5 -100.5q0 -70 -28.5 -131t-77 -112.5t-110.5 -94.5t-130 -80zM578 -203q86 59 145 111.5t59 103.5q0 41 -39 76t-145 80q10 84 70.5 134t150.5 50 q53 0 98.5 -21.5t78 -56t50 -82t17.5 -100.5q0 -70 -28.5 -131t-77 -112.5t-111 -94.5t-129.5 -80z" />
<glyph unicode="&#x2022;" horiz-adv-x="897" d="M55 475q0 23 12.5 63t31 83t39 80.5t34.5 52.5q16 16 53 35.5t80 37t84 29.5t62 12q23 0 62.5 -12t82.5 -29.5t81 -37t52 -35.5q16 -14 35.5 -52t37 -81t30 -83t12.5 -63t-12.5 -62.5t-30 -82.5t-37 -81t-35.5 -54q-14 -14 -52 -35t-81 -38.5t-84 -29.5t-63 -12 q-20 0 -61.5 12t-84.5 29.5t-80 38t-51 35.5q-14 16 -34.5 54t-39 81t-31 83t-12.5 62z" />
<glyph unicode="&#x2026;" horiz-adv-x="1687" d="M98 150q0 82 54.5 131t132.5 49t131 -49t53 -131q0 -80 -53.5 -130.5t-130.5 -50.5q-78 0 -132.5 50.5t-54.5 130.5zM662 150q0 82 55 131t133 49t131 -49t53 -131q0 -80 -53 -130.5t-131 -50.5t-133 50.5t-55 130.5zM1227 150q0 82 54 131t132 49t131 -49t53 -131 q0 -80 -53 -130.5t-131 -50.5t-132 50.5t-54 130.5z" />
<glyph unicode="&#x202f;" horiz-adv-x="351" />
<glyph unicode="&#x2039;" horiz-adv-x="743" d="M51 350v256l567 328l54 -201l-338 -254v-4l338 -252l-54 -198z" />
<glyph unicode="&#x203a;" horiz-adv-x="743" d="M72 223l338 252v4l-338 252l53 201l567 -326v-256l-567 -327z" />
<glyph unicode="&#x205f;" horiz-adv-x="439" />
<glyph unicode="&#x20ac;" horiz-adv-x="1126" d="M51 414l10 143h148q-2 18 -3 37.5t-1 40.5q0 25 1 47.5t3 44.5h-148l-10 143h172q23 121 71 207t115.5 140.5t151.5 80t178 25.5q104 0 200.5 -22.5t158.5 -57.5l-62 -235q-53 31 -119.5 50t-138.5 19q-92 0 -149.5 -49t-83.5 -158h409l-8 -143h-422q-2 -16 -3 -36.5 t-1 -39.5q0 -47 6 -94h359l8 -143h-338q31 -106 92.5 -152.5t140.5 -46.5q72 0 137.5 18.5t118.5 51.5l48 -238q-59 -37 -152.5 -57.5t-204.5 -20.5q-98 0 -183 23.5t-151.5 76t-112.5 137.5t-67 208h-170z" />
<glyph unicode="&#x2122;" horiz-adv-x="2011" d="M74 1102v178h745v-178h-280v-586h-207v586h-258zM907 516l15 764h348l100 -528h27l125 528h338l6 -764h-199l8 567h-24l-164 -542h-227l-138 544h-22l-6 -569h-187z" />
<glyph unicode="&#x25fc;" horiz-adv-x="952" d="M0 0v952h952v-952h-952z" />
<glyph unicode="&#xfb01;" horiz-adv-x="1249" d="M2 702l8 201l154 45l2 82q6 209 99 302t274 93q88 0 153.5 -15t104.5 -32l-9 -41q-10 -41 -21 -90t-21 -89l-9 -40q-37 14 -74.5 25.5t-84.5 11.5q-61 0 -86 -35t-25 -104v-76h362l316 35v-975h-316v692h-356v-692h-307v690z" />
<glyph unicode="&#xfb02;" horiz-adv-x="1298" d="M2 702l8 201l154 45l2 82q6 209 99 302t274 93q88 0 153.5 -15.5t104.5 -31.5l-9 -41q-10 -41 -21 -90t-21 -89l-9 -40q-37 14 -74.5 25.5t-84.5 11.5q-61 0 -86 -35t-25 -104v-76h266l-6 -248h-246v-692h-315v690zM870 0v1354l316 39v-1393h-316z" />
<glyph unicode="&#xfb03;" horiz-adv-x="1959" d="M2 702l8 201l154 45l2 62q6 209 99 302t274 93q88 0 153.5 -15.5t104.5 -31.5l-9 -41q-10 -41 -21 -90t-21 -89l-9 -40q-37 14 -74.5 25.5t-84.5 11.5q-61 0 -86 -35t-25 -105v-55l405 4l2 86q6 209 99.5 302t273.5 93q88 0 154.5 -15t105.5 -32l-4 -20q-4 -19 -11 -48.5 t-15.5 -63.5t-15.5 -62.5t-11 -47.5l-4 -18q-35 14 -73 25.5t-85 11.5q-61 0 -85.5 -35t-24.5 -104v-76h360l315 35v-975h-315v692h-354v-692h-310v690l-393 2v-692h-315v690z" />
<glyph unicode="&#xfb04;" horiz-adv-x="2007" d="M2 702l8 201l154 45l2 62q6 209 99 302t274 93q88 0 153.5 -15.5t104.5 -31.5l-9 -41q-10 -41 -21 -90t-21 -89l-9 -40q-37 14 -74.5 25.5t-84.5 11.5q-61 0 -86 -35t-25 -105v-55l405 4l2 86q6 209 99.5 302t273.5 93q88 0 154.5 -15t105.5 -32l-4 -20q-4 -19 -11 -48.5 t-15.5 -63.5t-15.5 -62.5t-11 -47.5l-4 -18q-35 14 -73 25.5t-85 11.5q-61 0 -85.5 -35t-24.5 -104v-76h264l-6 -248h-246v-692h-316v690l-393 2v-692h-315v690zM1579 0v1354l315 39v-1393h-315z" />
</font>
</defs>
</svg>
